<?xml version="1.0" standalone="no"?>
<!DOCTYPE svg PUBLIC "-//W3C//DTD SVG 1.1//EN" "http://www.w3.org/Graphics/SVG/1.1/DTD/svg11.dtd" >
<svg xmlns="http://www.w3.org/2000/svg" xmlns:xlink="http://www.w3.org/1999/xlink" version="1.1">
<metadata>
Created by FontForge 20190801 at Wed Sep 29 07:24:11 2021
 By root
</metadata>
<defs>
<font id="SpringlakeScript" horiz-adv-x="508" >
  <font-face 
    font-family="Springlake Script"
    font-weight="400"
    font-stretch="normal"
    units-per-em="1000"
    panose-1="0 0 0 0 0 0 0 0 0 0"
    ascent="800"
    descent="-200"
    x-height="421"
    cap-height="693"
    bbox="-190.125 -240.246 934.364 871"
    underline-thickness="0"
    underline-position="0"
    unicode-range="U+000A-20AC"
  />
<missing-glyph horiz-adv-x="527" 
d="M50 700h427v-700h-427v700zM78 680l185 -309l186 309h-371zM251 350l-180 300v-601zM264 329l-185 -308h370zM276 350l181 -303v605z" />
    <glyph glyph-name=".notdef" horiz-adv-x="527" 
d="M50 700h427v-700h-427v700zM78 680l185 -309l186 309h-371zM251 350l-180 300v-601zM264 329l-185 -308h370zM276 350l181 -303v605z" />
    <glyph glyph-name=".null" horiz-adv-x="0" 
 />
    <glyph glyph-name=".null" horiz-adv-x="0" 
 />
    <glyph glyph-name="nonmarkingreturn" horiz-adv-x="333" 
 />
    <glyph glyph-name="controlLF" unicode="&#xa;" horiz-adv-x="0" 
 />
    <glyph glyph-name="controlCR" unicode="&#xd;" horiz-adv-x="0" 
 />
    <glyph glyph-name="space" unicode=" " horiz-adv-x="303" 
 />
    <glyph glyph-name="exclam" unicode="!" horiz-adv-x="160" 
d="M104 219h-51l-22 445q-1 19 10.5 34t30.5 18q24 4 41.5 -12t15.5 -40q-4 -59 -10 -170.5t-11 -193.5zM80.5 30q-17.5 0 -30.5 12.5t-13 30t13 30.5t30.5 13t30 -13t12.5 -30.5t-12.5 -30t-30 -12.5z" />
    <glyph glyph-name="quotedbl" unicode="&#x22;" horiz-adv-x="276" 
d="M77 578q13 0 22 -8.5t8 -19.5l-14 -127q-1 -10 -10 -16.5t-21 -6.5t-20 7t-9 17l-9 127q-1 11 8 19t22 8h23zM222 578q13 0 22.5 -8.5t7.5 -19.5l-13 -127q-1 -10 -10 -16.5t-21 -6.5q-8 0 -14.5 3t-10.5 8.5t-5 12.5l-8 127q-1 7 3 13t11 10t16 4h22z" />
    <glyph glyph-name="numbersign" unicode="#" horiz-adv-x="478" 
d="M453 306l-81 -3l-16 -90l51 2q13 0 23 -7t14 -19v-1q6 -18 -5 -33.5t-30 -14.5h-66l-19 -104q-3 -15 -13.5 -25t-24.5 -11l-50 1l31 140l-107 2l-27 -113q-2 -13 -12.5 -21.5t-23.5 -8.5h-24l24 143l-68 1l-4 36q0 8 6.5 14.5t15.5 7.5l61 2l16 90l-56 -2q-13 -1 -23 6.5
t-14 19.5v1q-6 18 5.5 33t29.5 15l70 -1l19 104q1 9 7 15.5t14 6.5h63q2 -2 -6 -33.5t-16 -62.5l-9 -31l109 -1l27 123q15 8 47 8q9 0 15 -1l-24 -131h28q10 0 19 -4t15.5 -11.5t10.5 -16.5zM282 210l21 91l-112 -5l-19 -90z" />
    <glyph glyph-name="dollar" unicode="$" horiz-adv-x="360" 
d="M159 629q-14 -8 -25.5 -24t-16.5 -41t7 -54q21 -56 65 -111q10 -13 32 -38q29 -35 44 -54.5t33 -51.5t26 -62q8 -34 1 -70.5t-28 -66.5q-31 -44 -80 -56v-45q0 -30 -19 -33q-16 -3 -21 13q-1 3 -1 7v54q-47 5 -87 39t-61 79q-6 14 1 25q8 15 25 15q13 1 20 -13
q29 -64 81 -86q10 -5 22 -4q20 1 36.5 13.5t24.5 32.5q6 15 6.5 33t-6 45.5t-30 64.5t-62.5 77q-111 117 -106 216q7 124 128 157q1 0 3 1h3v31q0 30 22 33q17 3 22 -13q1 -3 1 -7l-1 -41q35 -2 66 -15.5t46 -37.5q9 -14 4 -25q-7 -12 -24 -13q-11 0 -20 6q-43 35 -85 33
q-24 -1 -46 -13z" />
    <glyph glyph-name="percent" unicode="%" horiz-adv-x="786" 
d="M330 531q0 -48 -17.5 -90.5t-54 -70.5t-85.5 -28q-51 0 -88 28.5t-53 70.5t-16 89q0 77 42 134t115 57t115 -57t42 -133zM79 531q0 -52 28 -91.5t66 -39.5q39 0 68 35.5t29 100.5q0 62 -29 95t-68 33q-24 0 -45 -14.5t-35 -45.5t-14 -73zM611 379q73 0 115 -56.5t42 -133
t-42 -133t-115 -56.5q-51 0 -88 29t-53 70.5t-16 89.5q0 76 42 133t115 57zM611 58q39 0 68 35.5t29 100.5q0 22 -4 40.5t-11 32t-16 24.5t-20 17.5t-22.5 10t-23.5 3.5q-38 0 -66 -35.5t-28 -97.5q0 -52 28 -91.5t66 -39.5zM639 709.5q6 -11.5 -1 -22.5l-420 -656
q-6 -10 -18 -10h-28q-13 0 -19 11t1 22l420 657q6 10 18 10h28q13 0 19 -11.5z" />
    <glyph glyph-name="ampersand" unicode="&#x26;" horiz-adv-x="573" 
d="M495 93q27 -12 28 -39t-21 -44.5t-49 -5.5q-32 15 -81 65q-60 -30 -130 -32q-35 0 -68.5 6t-66 19.5t-55.5 40t-30 61.5q-19 105 116 214q-10 21 -11 23q-24 53 -29 104.5t15.5 100.5t67.5 82q7 6 17 11q0 1 1 1t1.5 0.5l0.5 0.5q65 35 117 8q25 -13 41 -37t19 -52
q8 -76 -78 -177q-24 -28 -55 -56q38 -67 91 -132q38 -49 73 -84q26 29 52 73q12 15 27.5 15.5t25.5 -12.5t1 -28q-33 -54 -64 -89q20 -19 26 -24q2 -2 5 -4l6 -4t5 -4q1 -1 2 -1zM235 651q-9 -5 -17.5 -16t-18 -32t-9 -55t12.5 -74q5 -14 13 -34q54 49 83 104q28 52 18 83
q-10 26 -35 31.5t-47 -7.5zM204 98q67 -7 124 16q-100 107 -161 211q-18 -14 -29 -25q-73 -76 -56 -131q18 -61 122 -71z" />
    <glyph glyph-name="quotesingle" unicode="'" horiz-adv-x="124" 
d="M72 578q12 0 20 -8.5t7 -19.5l-12 -127q-1 -10 -9 -16.5t-20 -6.5q-10 0 -17.5 7t-8.5 17l-8 127q-1 11 7.5 19t20.5 8h20z" />
    <glyph glyph-name="parenleft" unicode="(" horiz-adv-x="376" 
d="M320 -100h-27q-46 0 -80 29q-31 28 -59 62t-58.5 86t-49 123.5t-18.5 150.5q0 56 16 114.5t38.5 104t53 90.5t53 71.5t45.5 50.5q18 19 45 19h47q-24 -29 -46.5 -60.5t-52.5 -80.5t-52 -96.5t-37.5 -105t-15.5 -108.5q0 -73 20.5 -145.5t54 -131.5t63 -99t60.5 -74z" />
    <glyph glyph-name="parenright" unicode=")" horiz-adv-x="379" 
d="M99 -100h-49q29 34 59.5 77.5t66 105t58 132.5t22.5 135q0 74 -20 146.5t-54 131t-63 99t-61 74.5h28q46 0 79 -30q31 -27 59 -61t59 -86t49.5 -123.5t18.5 -151.5q0 -56 -16 -114.5t-38.5 -103.5t-53 -90t-53 -71.5t-45.5 -50.5q-19 -19 -46 -19z" />
    <glyph glyph-name="asterisk" unicode="*" horiz-adv-x="307" 
d="M283 594q2 -7 -1 -12.5t-10 -6.5l-54 -12q-14 -3 -18 -17t6 -24l36 -39q5 -5 4.5 -11.5t-6.5 -10.5l-17 -12q-4 -3 -9 -3q-8 0 -12 7l-27 48q-8 12 -22 12t-22 -12l-27 -48q-4 -7 -13 -7q-4 0 -8 3l-17 12q-6 4 -6.5 10.5t4.5 11.5l36 39q10 10 6 24t-18 17l-54 12
q-7 1 -10 6.5t-1 12.5l6 20q4 10 14 10q4 0 7 -1l53 -26h7q11 0 18.5 8t6.5 20l-7 55q-1 6 3.5 11t10.5 5h22q6 0 10.5 -5t3.5 -11l-7 -56q-1 -11 6.5 -19.5t18.5 -8.5h4l7 3l49 24q4 1 7 1q10 0 14 -10z" />
    <glyph glyph-name="plus" unicode="+" horiz-adv-x="537" 
d="M477.5 293.5q9.5 -9.5 9.5 -23.5q0 -15 -9.5 -25.5t-23.5 -10.5h-141q-4 0 -7 -3t-3 -7v-142q0 -8 -4.5 -15.5t-12 -12t-16.5 -4.5q-17 0 -26.5 9.5t-9.5 22.5v145q0 7 -7 7h-144q-14 0 -23.5 9.5t-9.5 23.5q0 16 10 26q9 10 23 10h141q4 0 7 3t3 7v141q0 14 9.5 23.5
t23.5 9.5q17 0 26.5 -9.5t9.5 -23.5v-144q0 -7 7 -7h145q13 0 22.5 -9.5z" />
    <glyph glyph-name="comma" unicode="," horiz-adv-x="129" 
d="M103 89q4 -15 4.5 -20t-0.5 -17q0 -5 -5.5 -21.5t-7.5 -18.5q0 -1 -5.5 -10.5t-12 -21t-10.5 -16.5q-1 -2 -4 -6t-6 -9t-5 -7q-1 -3 -6 -1q-11 5 -21.5 17t-1.5 23q4 6 8 14.5t7.5 18.5t5.5 14q1 3 -6.5 11t-13 19t1.5 33q0 1 1 1q14 31 50 26q8 -3 16 -11q4 -5 7 -9
q0 -1 1.5 -3t2 -4z" />
    <glyph glyph-name="hyphen" unicode="-" horiz-adv-x="284" 
d="M230 269q15 0 25 -10t10 -24.5t-10 -24.5t-25 -10h-177q-14 0 -24 10t-10 24.5t10 24.5t24 10h177z" />
    <glyph glyph-name="period" unicode="." horiz-adv-x="126" 
d="M63 30q-18 0 -30.5 12.5t-12.5 30t12.5 30.5t30.5 13t30.5 -13t12.5 -30.5t-12.5 -30t-30.5 -12.5z" />
    <glyph glyph-name="slash" unicode="/" horiz-adv-x="372" 
d="M75 0q-13 0 -20 10t-4 21l188 669q5 18 24 18h34q12 0 19.5 -10t4.5 -22l-189 -668q-5 -18 -24 -18h-33z" />
    <glyph glyph-name="zero" unicode="0" horiz-adv-x="501" 
d="M280 697q65 -11 111 -70.5t65.5 -139t15.5 -166.5q-3 -58 -17 -112t-38.5 -99.5t-63.5 -75t-87 -33.5q-8 -1 -16 -1q-43 0 -80 21.5t-62.5 57t-42.5 76t-26 83.5q-26 124 4.5 236.5t109.5 187.5q40 38 99 38q14 0 28 -3zM152 164q38 -80 97 -80q41 0 77 48q23 37 34 76
q20 59 22 119q2 43 -5.5 91t-25.5 93.5t-43 71.5q-26 28 -56 28q-13 0 -30 -7t-27 -19q-43 -52 -62.5 -131.5t-13 -156t32.5 -133.5z" />
    <glyph glyph-name="one" unicode="1" horiz-adv-x="218" 
d="M165 678q22 -23 21 -56q-6 -214 -13 -333q-7 -137 -8 -262q0 -11 -7.5 -19t-19.5 -8h-30q-11 0 -19 8t-7 20l15 569q-23 3 -39 5q-20 2 -31 17t-10 33t14 32.5t36 14.5h3.5h6.5h8.5h8.5t8 0.5t6 0.5h2q33 0 55 -22z" />
    <glyph glyph-name="two" unicode="2" horiz-adv-x="535" 
d="M494 98q14 -5 21 -17.5t3 -27.5l-4 -15q-3 -12 -13 -19.5t-23 -7.5q-5 0 -9 1q-53 12 -175 12q-83 0 -172 -21l-5 -1q-17 -5 -27 -5q-19 0 -28 13q-15 20 -12 48t16 57.5t35.5 61t46.5 58.5t49 50q15 14 45 39q30 24 45.5 38t37 37t36.5 45q13 20 21 44.5t6 53.5t-19 48
q-28 29 -84 29q-57 0 -113 -37q-10 -6 -21 -6q-24 0 -35 23l-4 8q-6 13 -2.5 27t14.5 22q59 44 143 44q87 0 142 -35.5t67 -100.5q8 -44 -2.5 -87t-37 -80t-54.5 -65t-66 -58q-126 -101 -156 -178q93 19 201 19q84 0 133 -17z" />
    <glyph glyph-name="three" unicode="3" horiz-adv-x="555" 
d="M529 252q8 -57 -18.5 -117t-94.5 -100q-62 -35 -138 -35q-15 0 -31 2q-57 5 -103 30.5t-70 65.5q-29 46 -23 106q2 17 15.5 29t32.5 12q10 0 20 -4q34 -15 31 -52q-2 -26 6 -41q30 -58 96 -65q8 -1 16 -1q43 0 84.5 18.5t56.5 38.5q53 68 25 133q-32 77 -140 90l-5 1
l-14 39l8 2q55 18 92.5 59t28.5 83q-4 18 -15 33t-28 23.5t-37 11.5h-12q-51 0 -109 -35q-8 -5 -17 -5q-15 0 -25 12l-9 10q-9 12 -7 27q3 15 16 24q76 46 156 46q11 0 21 -1q92 -9 126 -93q12 -30 13.5 -59.5t-4.5 -51t-17.5 -42t-21.5 -31.5t-21 -20q12 -5 23 -11.5
t27 -19.5t28.5 -27.5t23 -37t14.5 -47.5z" />
    <glyph glyph-name="four" unicode="4" horiz-adv-x="447" 
d="M426.5 243q11.5 -12 10.5 -28q0 -15 -10 -25.5t-24 -11.5q-18 -2 -38 -6q-6 -84 -5 -128q0 -18 -12 -31t-30 -13t-31 13q-12 12 -12 29q0 14 2 43q1 37 1 60v14l-14 -2q-30 -5 -59 -5q-138 0 -180 94q-34 74 30 176q35 57 112 167q14 20 60 86q12 18 34 18q7 0 14 -3
q19 -7 25 -26.5t-6 -36.5q-188 -258 -194 -285q-11 -45 11 -72q25 -33 94 -33q17 0 76 8q12 193 23 267q5 34 34 34q14 0 23 -9q12 -13 11 -37l-6 -248q18 2 30 3q19 0 30.5 -12z" />
    <glyph glyph-name="five" unicode="5" horiz-adv-x="447" 
d="M300 450q63 -15 97 -82.5t21 -151.5q-13 -87 -84.5 -144.5t-149.5 -57.5q-17 0 -34 3.5t-39 13t-42.5 29.5t-34.5 49q-10 19 -1 39q9 18 29 22q5 1 8 1q25 0 36 -24q29 -60 85 -60q33 0 65.5 20t54.5 47q27 32 35.5 81.5t-6.5 88.5q-21 57 -76 57q-27 0 -138 -39
q-27 -10 -34 -12q-11 -3 -20 -3q-35 0 -37 40q-4 71 9.5 169t41.5 128q17 18 74 24q12 1 17 2q43 6 145 6q7 0 17 -1q21 0 33 -17q13 -17 8 -38q-4 -15 -15.5 -24.5t-26.5 -9.5h-37q-106 0 -153 -14l-8 -2l-2 -10q-19 -102 -23 -147l-2 -25l41 16q77 29 116 29q15 0 30 -3z
" />
    <glyph glyph-name="six" unicode="6" horiz-adv-x="453" 
d="M418 334q25 -70 6 -141.5t-79 -130.5q-61 -62 -137 -62q-66 0 -115 46t-62 120q-14 82 8 181.5t74 190.5t121 151q12 11 28 11q20 0 32 -16q2 -2 5 -7.5t-1.5 -23.5t-23.5 -38q-73 -77 -110 -162l-11 -25l27 6q41 10 77 10q122 0 161 -110zM260 95q25 11 48 42t33 59
q26 67 -2 121q-27 50 -86 50q-40 0 -119 -32l-8 -3l-5 -10q-6 -28 -7 -33q-9 -38 -1 -91.5t33 -83.5q26 -31 64 -31q23 0 50 12z" />
    <glyph glyph-name="seven" unicode="7" horiz-adv-x="453" 
d="M392 674q15 -19 9 -43q-2 -12 -6 -24q-3 -11 -58 -152q-133 -341 -162 -428q-4 -12 -14.5 -19.5t-23.5 -7.5q-6 0 -11 2q-17 5 -25 20t-2 32q42 121 215 563q-173 -6 -213 -11q-3 -1 -6 -1q-20 0 -33.5 15t-11.5 35q2 17 13.5 28.5t27.5 12.5q45 4 112 4q76 0 149 -4
q25 -2 40 -22z" />
    <glyph glyph-name="eight" unicode="8" horiz-adv-x="434" 
d="M315 367q152 -170 44 -306q-28 -35 -73 -55t-95 -20q-38 0 -73 12.5t-63 45t-33 80.5q-4 39 7 74t37 66.5t51.5 53.5t64.5 51l12 9l-11 10q-41 36 -65 83.5t-23 90.5q1 63 54 104q44 35 110 35q41 0 73.5 -16t48.5 -44q16 -29 17.5 -63t-7 -61.5t-24.5 -57t-28 -46
t-24 -30.5l-7 -8zM116 98q21 -29 66 -29q17 0 36 5t36 15.5t31 24t23.5 32t12.5 39.5q9 70 -58 136l-7 7l-27 -18q-24 -15 -37 -24.5t-32 -26t-31 -35.5t-19 -41q-17 -53 6 -85zM209 613q-34 -21 -37 -54q-2 -24 12.5 -51t27 -40.5t26.5 -25.5l11 -9l13 8q66 79 62 130
q-3 26 -22 42q-15 12 -43 12q-31 0 -50 -12z" />
    <glyph glyph-name="nine" unicode="9" horiz-adv-x="453" 
d="M421 534q22 -125 -37.5 -278.5t-165.5 -245.5q-12 -10 -28 -10q-20 0 -32 16q-2 1 -5 7t2 24t24 38q72 77 109 162l11 25l-26 -6q-42 -11 -78 -11q-122 0 -161 111q-25 70 -6 141t79 131q61 62 137 62q66 0 115 -46t62 -120zM111 504q-26 -67 3 -121q26 -50 85 -50
q40 0 119 32l9 3l4 10q6 27 7 32q9 39 1 92.5t-33 83.5q-26 30 -64 30q-23 0 -49 -11q-25 -12 -48.5 -42.5t-33.5 -58.5z" />
    <glyph glyph-name="colon" unicode=":" horiz-adv-x="134" 
d="M67 30q-18 0 -30.5 12.5t-12.5 30t12.5 30.5t30.5 13t30.5 -13t12.5 -30.5t-12.5 -30t-30.5 -12.5zM67 348q-18 0 -30.5 12.5t-12.5 30.5t12.5 30.5t30.5 12.5t30.5 -12.5t12.5 -30.5t-12.5 -30.5t-30.5 -12.5z" />
    <glyph glyph-name="semicolon" unicode=";" horiz-adv-x="138" 
d="M108 89q4 -15 4.5 -20t-0.5 -17q0 -5 -5.5 -21.5t-7.5 -18.5q0 -1 -5.5 -10.5t-12 -21t-10.5 -16.5q-1 -1 -3 -4l-4 -6t-4 -6.5t-4 -5.5q-1 -3 -6 -1q-11 5 -21.5 17t-1.5 23q4 6 8 14.5t7.5 18.5t5.5 14q1 3 -6.5 11t-13 19t1.5 33q0 1 1 1q14 31 50 26q8 -3 16 -11
q4 -5 7 -9q0 -1 1.5 -3t2 -4zM68 348q-18 0 -30.5 12.5t-12.5 30.5t12.5 30.5t30.5 12.5t30.5 -12.5t12.5 -30.5t-12.5 -30.5t-30.5 -12.5z" />
    <glyph glyph-name="less" unicode="&#x3c;" horiz-adv-x="489" 
d="M457 57q-7 -7 -16 -7q-4 0 -9 2l-397 152q-15 5 -15 22v59q0 16 15 22l397 152q5 1 9 1q9 0 16 -7t7 -16q0 -28 -16 -51t-42 -33l-243 -91q-5 -2 -5 -7t5 -7l247 -92q16 -6 28.5 -18t19 -27.5t6.5 -32.5v-4q0 -10 -7 -17z" />
    <glyph glyph-name="equal" unicode="=" horiz-adv-x="491" 
d="M57 306q-14 0 -24 10.5t-10 24.5t10 24t24 10h376q14 0 24.5 -10t10.5 -24t-10.5 -24.5t-24.5 -10.5h-376zM433 168q14 0 24.5 -10t10.5 -24t-10.5 -24t-24.5 -10h-376q-14 0 -24 10t-10 24t10 24t24 10h376z" />
    <glyph glyph-name="greater" unicode="&#x3e;" horiz-adv-x="489" 
d="M56 52q-4 -2 -9 -2q-9 0 -16 7t-7 16v4q0 27 15 48.5t40 30.5l245 92q5 2 5 7.5t-5 7.5l-245 91q-17 6 -29 18t-19 28t-7 33v4q0 9 7 16t16 7q5 0 9 -1l401 -154q11 -4 11 -17v-66q0 -13 -11 -17z" />
    <glyph glyph-name="question" unicode="?" horiz-adv-x="440" 
d="M404 605q21 -61 13.5 -114t-45.5 -110q-17 -26 -79 -74q-26 -20 -40 -31.5t-33.5 -32t-29.5 -41.5t-12 -45q-16 -4 -39 -4q-13 0 -22 2q1 28 9.5 52.5t25 47t36.5 41.5t49 41q149 115 96 235q-31 67 -112 67q-51 0 -117 -26q-19 -8 -36 3t-18 31v3q-1 25 22 36
q69 31 146 31q20 0 38 -2.5t42 -9.5t43 -18.5t36.5 -33t26.5 -48.5zM148.5 30q-17.5 0 -30 12.5t-12.5 30t12.5 30.5t30 13t30 -13t12.5 -30.5t-12.5 -30t-30 -12.5z" />
    <glyph glyph-name="at" unicode="@" horiz-adv-x="916" 
d="M886 395q9 -80 -9.5 -159t-66.5 -137q-69 -85 -190 -101q-16 -6 -32 -2q-2 0 -4.5 -0.5t-3.5 -0.5q-15 0 -22.5 10.5t-6.5 23.5q-2 7 -2 14v10v9q-43 -53 -99 -62q-53 -10 -99.5 13t-68.5 71q-23 55 -22 113t22 114q20 54 56.5 93.5t88.5 46.5q71 11 131 -37v1
q0 21 15 35.5t36 14.5q20 0 35.5 -15t14.5 -35q-7 -215 -8 -348q96 27 141 115q33 64 36.5 142.5t-22.5 145.5q-19 46 -52.5 82t-75.5 57t-90.5 31.5t-97.5 9t-96 -13.5q-123 -33 -207.5 -130t-97.5 -224q-9 -85 17 -168.5t83 -146.5q54 -59 130.5 -85.5t151 -23.5t157.5 26
q17 5 28.5 -7.5t8.5 -29.5t-21 -22q-77 -21 -151.5 -25t-146 11t-134 57t-107.5 108q-64 97 -76.5 215t31.5 225q34 86 99.5 151.5t150.5 102.5t177 40q100 2 185.5 -33t144 -108.5t69.5 -173.5zM551 184q2 77 4 138q-4 4 -6 9q-14 37 -50.5 56t-68.5 4q-33 -15 -54 -55
t-26 -82q-21 -177 80 -190q34 -4 69 36t49 79q1 1 2 2.5t1 2.5z" />
    <glyph glyph-name="A" unicode="A" 
d="M484 171q3 -9 12.5 -68t9.5 -72q0 -7 -1 -11.5t-5 -6t-7.5 -2t-12.5 -0.5l-58 -3q-12 0 -18.5 0.5t-12 4t-5.5 10.5q0 17 -10 72q-10 52 -18 80q-4 13 -8 27t-6 19h-6.5h-7.5q-38 -2 -50 -1q-12 2 -27 1q-29 -2 -58 -1q-18 1 -40 1.5t-33 0.5h-13.5t-26.5 0.5t-21 0.5
q-6 -23 -14 -63q-8 -37 -11 -67q-5 -44 -2 -71q1 -13 0 -15t-5 -3l-14 -2q-3 0 -5 0.5t-4 5.5t-2 15q-4 30 4 84q4 36 16 91q10 47 23 94q2 7 12 36.5t20 57.5t12 31q1 5 14.5 39t34 78t33.5 65q30 51 60 77q12 13 17 16q9 5 20 -4q33 -32 67 -94q26 -38 37 -63
q11 -20 13 -37q5 -24 19 -55q13 -24 26 -60.5t17 -55.5q5 -22 11.5 -46.5t10 -38.5t7 -31.5t6.5 -35.5zM330 251h6q-2 8 -2 9q-19 72 -30 115q-5 19 -28 69q-7 15 -15.5 32.5t-17.5 34.5t-12 23q-1 3 -4 8t-8 12.5t-8 13.5q-2 2 -4 4.5t-4 5.5t-3 5q-18 -32 -32 -62t-17 -35
q-13 -25 -23 -54q-24 -65 -41 -119q-10 -34 -18 -60q65 -1 68 -1q30 1 44 0q54 -1 60 -2q4 0 89 1z" />
    <glyph glyph-name="B" unicode="B" horiz-adv-x="579" 
d="M567 287q10 -38 3 -73q-11 -57 -40.5 -100t-65 -66t-75.5 -36.5t-69.5 -16t-50.5 0.5h-1q-11 1 -14 1q-5 1 -8 1l-1 -3v2v1l-15 3q-2 0 -9.5 2.5t-14.5 5t-7 3.5q-19 5 -41 19v-7v-6.5v-5.5t-2 -5.5t-4.5 -5t-5.5 -2.5q-15 -4 -52 -3.5t-49 4.5q-9 3 -10 13l2 97
q-7 81 -2 104q6 25 3 56q-8 62 -6 119q2 36 2 81.5t1 69.5q1 54 1 133q1 13 6 15.5t22 3.5l58 1q12 0 18 -0.5t11.5 -5t5 -13.5t-0.5 -65.5t1 -84.5q2 5 3 9q22 69 53 108q17 24 36 39q10 8 26 16q20 11 52 16q39 6 71 -3.5t49.5 -26t30.5 -38t17 -34.5t5 -19q3 -20 3 -33
q0 -28 -7 -50q-12 -40 -32 -72q-11 -17 -22 -30q30 -4 53.5 -16t36 -27t18.5 -25t8 -18q3 -12 9 -33zM160 417q0 -24 -2 -69q21 3 39 7t47.5 12t54 21.5t49.5 32.5t42 47t23 62q9 45 3.5 75t-20.5 47t-35.5 22.5t-42.5 2t-42 -14.5v-1q-2 -1 -8 -5q-17 -14 -31 -32
q-14 -23 -23.5 -42t-15 -34t-8.5 -20q-11 -27 -17 -56q-6 -21 -13 -55zM241 31q34 -5 65 -3.5t58.5 16t47.5 37.5t30.5 60t8.5 84q0 1 -0.5 5t-2 10l-3.5 14t-5 15q-11 23 -29.5 38.5t-36.5 23.5t-45.5 9t-46 0t-48 -7.5t-41.5 -9.5t-37 -10q0 -14 -1 -16q0 -3 1.5 -38.5
t3 -81t0.5 -67.5q0 -14 -1 -41q9 -8 12 -10q19 -10 21 -11q6 -5 12 -6q7 -3 26 -8q6 -2 11 -3z" />
    <glyph glyph-name="C" unicode="C" horiz-adv-x="556" 
d="M533 171q3 4 10 3.5t12.5 -6t3.5 -11.5q-6 -16 -20 -42q-24 -44 -66 -75t-91 -44.5t-103 -9t-102 26.5t-87 67.5t-59 107.5q-3 15 -6.5 31.5t-4.5 21.5t-2.5 15.5t-2 20l-1.5 28.5q-5 39 1 84q9 45 10 51q7 22 9 26q16 50 40 90.5t52 65.5t57 42t58.5 25t51.5 11t42 3
q78 -3 131 -43q19 -13 32 -31q3 -3 2 -6q-1 -2 -3.5 -4.5t-5.5 -5t-6.5 -4t-4.5 -2.5q-2 0 -5 3q-12 13 -27 25l-23 11.5t-12 6.5q-8 5 -20 6q-22 4 -45 1q-7 0 -15 -2q-57 -20 -88 -48q-1 -2 -4 -4q-19 -25 -33.5 -49.5t-24.5 -47t-17 -43t-10.5 -39t-5.5 -34t-2 -29.5
t0.5 -23t1.5 -16t1 -8q0 -18 4 -39q1 -6 2.5 -17.5t2.5 -17.5q4 -20 7 -32q5 -21 22 -52q2 -2 4 -7l2 -4q2 -3 9 -16.5t13 -23t16.5 -22.5t26 -24.5t34.5 -19.5q12 -6 29 -9q15 -1 29 -1q21 1 43 8q88 29 138 131z" />
    <glyph glyph-name="D" unicode="D" horiz-adv-x="610" 
d="M595 383q6 -39 0 -85q-9 -45 -11 -50q-7 -22 -8 -26q-19 -60 -50.5 -105.5t-64.5 -70t-70.5 -39.5t-64.5 -19t-51 -3q-71 3 -117 33v-6t-4 -8t-8 -5q-15 -4 -52 -3.5t-49 4.5q-9 3 -10 13l2 97q-7 81 -2 104q6 25 3 56q-8 62 -6 119q2 36 2 81.5t1 69.5q1 54 1 133
q1 13 6 15.5t22 3.5l58 1q12 0 18 -0.5t11.5 -5t5 -13t-0.5 -64t1 -84.5q24 67 61 109t77.5 56t84 7.5t81.5 -32.5t69.5 -69t48.5 -98q2 -14 6 -30.5t5 -21.5t2.5 -15.5t2 -20t0.5 -28.5zM369 82q23 31 41 62.5t27.5 59t15.5 51t7 45t1 34.5t-1 25l-1 12q0 17 -4 39
q-1 6 -2.5 17.5t-2.5 16.5q-4 20 -7 33q-6 21 -22 51q-2 3 -4 7q-1 3 -2 4q-3 4 -9.5 19.5t-13.5 27.5t-19 26t-30.5 22t-41.5 8q-21 0 -39.5 -12.5t-32.5 -37t-24.5 -50t-20 -62.5t-14.5 -63t-12 -62q-2 -54 -3 -58q0 -3 1.5 -39t3 -81t0.5 -67l-1 -54q0 -1 1 -2t2 -1
q8 -5 15.5 -8.5t12 -6t7.5 -3.5q8 -5 20 -6q22 -4 45 -2q6 1 15 2q56 21 87 49q2 2 5 4z" />
    <glyph glyph-name="E" unicode="E" horiz-adv-x="433" 
d="M439 41q2 -9 -7 -11q-3 -2 -19.5 -5.5t-34 -6.5t-24.5 -3q-23 -3 -44 -4q-5 -1 -17.5 -0.5t-26.5 1t-16 0.5q-40 -6 -72.5 -6t-53.5 3.5t-37 12t-23.5 16t-13 18.5t-6.5 16.5t-2 13.5q-1 3 -1 4q-3 17 -5 36t-3.5 35t-1.5 20q-6 54 -6 93q0 12 3 66t5 59q0 2 0.5 38.5
t2 82t5.5 67.5q0 4 2.5 25t4.5 41.5t4 31.5q1 4 5.5 8t8.5 4q15 2 52 -3t48 -10l1 -1q18 3 27 2q11 0 25 2q26 4 54 5q55 1 68 0h15.5t28 -0.5t17.5 -1.5q4 0 5.5 -0.5t1.5 -2v-4.5l-1 -14q0 -9 -9 -9q-3 1 -17 -0.5t-30.5 -3t-20.5 -1.5q-30 -1 -40 -1q-4 0 -30.5 -5
t-27.5 -5q-3 0 -63 -8q-6 -48 -8 -60q1 -82 -5 -102q-8 -25 -6 -55q2 -17 2 -42h16q22 4 42 4q13 0 29.5 0.5t24.5 -0.5q2 0 24 1t24 1q5 0 6 -1.5t1 -6.5v-18q1 -10 -6 -10q-33 -1 -58 -3q-22 -1 -33 -2h-23h-21q-1 1 -25 -1q0 -26 -1 -38q-2 -34 0 -81.5t2 -63.5
q0 -3 1 -10.5t5 -21.5t10.5 -26t20.5 -21.5t31 -10.5q3 -1 8.5 -1.5t10 -1t7.5 0.5q7 0 50.5 -2.5t83 -4t42.5 -0.5q6 1 7.5 0.5t2.5 -4.5z" />
    <glyph glyph-name="F" unicode="F" horiz-adv-x="498" 
d="M506 687q3 -5 3.5 -25t-2.5 -27q-2 -5 -10 -5h-22t-29 -0.5t-18 -0.5q-26 -1 -124 -6t-107 -7h-1h-2q-1 -5 -2.5 -19t-2.5 -21q1 -81 -5 -102q-8 -24 -6 -54q1 -17 2 -43h1q22 3 42 3q13 0 29.5 1t25.5 0q1 0 23 1t25 1q4 0 5 -1.5t1 -6.5l1 -18q0 -10 -7 -10
q-33 -1 -58 -3q-21 -1 -33 -2h-22.5h-21.5q-1 1 -10 0q0 -26 -1 -39q-3 -70 1 -145q3 -49 40 -107q9 -15 0.5 -30t-26.5 -15q-116 2 -127 79v5q-3 17 -5 35.5t-3.5 34.5t-2.5 21q-5 54 -5 93q-1 12 2.5 66t5.5 59q0 2 0.5 38.5t2 82t4.5 66.5q1 5 2 18q-18 -1 -30.5 -2
t-15.5 -2q-9 -2 -12 1t-5 11l1 17q-2 6 -0.5 9t10.5 5q8 2 58 11q2 20 4 31q0 3 2.5 5.5t5.5 4.5t6 2q15 2 51.5 -3t48.5 -10q5 -3 7 -9q4 1 11.5 2t10.5 1q44 7 87 6q24 0 40 4q20 3 76 2l71 1q8 0 10 -4z" />
    <glyph glyph-name="G" unicode="G" horiz-adv-x="591" 
d="M586 301l2 -23q0 -21 -5 -42q0 -1 -0.5 -6t-2 -11.5t-3.5 -16.5t-5 -19q-12 -42 -31 -71q-4 -9 -19 -27t-26 -26q-38 -36 -90.5 -56t-108.5 -18t-108 22.5t-94.5 67.5t-63.5 113q-2 12 -5 24t-4 17.5t-2.5 13t-2 12t-1 12.5l-1 16t-1.5 21q-5 40 1 85q9 45 10 51
q7 22 9 26q19 60 50.5 105.5t64 70t70 39.5t65 19t51.5 3q78 -3 131 -43q19 -13 32 -31q3 -3 2 -6q-2 -4 -9.5 -9.5t-10.5 -6.5q-2 0 -5 2q-12 14 -27 26l-23 11.5t-12 6.5q-8 5 -20 6q-22 4 -45 1q-7 0 -15 -2q-57 -20 -88 -48q-1 -2 -4 -4q-21 -28 -37 -56t-26 -51.5
t-16.5 -47.5t-9 -41.5t-3.5 -35t-0.5 -28t1.5 -20t1 -10.5q0 -17 4 -38q1 -6 2.5 -17.5t2.5 -17.5q4 -20 7 -32q5 -21 22 -52q2 -2 4 -7l2 -4q2 -3 9 -16.5t13 -23t16.5 -22.5t26 -24.5t34.5 -19.5q12 -6 29 -9q15 -1 29 -1q21 1 43 8q40 13 74 43q1 2 3 4q5 4 15 15
q6 6 11 13l12 16q10 20 17.5 39t8.5 21q7 14 10 34q4 29 4 42v14q-1 0 -1 1h-15h-25h-45h-22h-42h-25q-9 0 -10.5 2t-1.5 7l1 17q0 4 0.5 5.5t3.5 3.5t9 1q65 1 108 1q40 1 61 1h7q14 0 19 -3q12 -4 14 -16z" />
    <glyph glyph-name="H" unicode="H" horiz-adv-x="593" 
d="M578 51q9 -15 0.5 -30t-25.5 -15q-117 2 -127 79q-1 4 -1 5q-2 13 -4 28t-3 26t-2 21.5t-2 15.5q-5 54 -5 93q0 15 4 81h-49q-29 -1 -45 -1q-49 0 -60 2q-1 0 -18.5 -0.5t-39.5 -1t-32 -0.5h-11q-2 -52 -3 -57q0 -3 1.5 -39t3 -81t0.5 -67q-1 -62 -2 -98q0 -3 -2 -5.5
t-4.5 -5t-5.5 -2.5q-15 -4 -52 -3.5t-49 4.5q-9 3 -10 13l2 97q-7 81 -2 104q6 25 3 56q-8 62 -6 119q2 36 2 81.5t1 69.5q1 54 1 133q1 13 6 15.5t22 3.5l58 1q12 0 18 -0.5t11.5 -5t5.5 -13.5q-1 -11 -1 -77.5t2 -85.5q3 -59 3 -91q-1 -7 -1 -29h9q39 2 51 1q12 -2 27 -1
q30 2 58 2q18 -1 40 -1h34q1 0 37 -1q0 7 1 8q0 2 0.5 25.5t1 52t2 60.5t3.5 50q1 4 3.5 25t4.5 41.5t4 31.5q1 4 5.5 8t8.5 4q8 1 20 -1.5t25 -7.5t25 -12.5t18 -15.5q9 -22 8 -92t-5 -94q-7 -41 -7.5 -78t2 -63.5t1.5 -29.5q-3 -70 2 -145q3 -48 39 -107z" />
    <glyph glyph-name="I" unicode="I" horiz-adv-x="193" 
d="M161 420q-2 -103 -6 -123q0 -3 0.5 -26t2 -51.5t2 -60.5t0.5 -49q-1 -62 -2 -98q0 -4 -4 -8t-8 -5q-15 -4 -52 -3.5t-49 4.5q-9 3 -10 13l2 97q-7 81 -2 104q6 25 3 56q-8 63 -6 119q2 37 2 82t1 69q1 54 1 133q1 13 6 15.5t22 3.5l58 1q12 0 18 -0.5t11.5 -5t5.5 -13.5
q-1 -11 -1 -77.5t2 -85.5q3 -59 3 -91z" />
    <glyph glyph-name="J" unicode="J" horiz-adv-x="368" 
d="M337 430q0 -5 2.5 -36t4.5 -58.5t1 -30.5v-24.5t-1 -53.5t-4 -53q-1 -8 -5.5 -24t-6.5 -29q-1 -4 -5 -15t-15 -30t-25.5 -35t-40.5 -28t-56 -12q-4 0 -9 1q-17 -3 -32 0q-13 0 -26.5 3.5t-21 7t-9.5 4.5q-4 1 -12.5 6t-22.5 18.5t-23 29.5q-26 42 -28 103q-2 11 -0.5 44
t5.5 49q1 11 5 13q4 3 13 0.5t12 -6.5q1 -2 0 -12q-7 -45 -5 -86q2 -15 4 -27.5t5 -22t4.5 -14.5t5 -13t4.5 -9q11 -26 28 -35q24 -21 49 -21q28 0 47.5 20.5t29.5 53t15 76.5t4.5 88.5t-3.5 91.5t-7 82t-7.5 64.5t-3.5 35.5q-1 7 -3.5 35t-4 53.5t-1.5 39.5q1 24 43 14
q47 -11 67 -41l5 -9q5 -13 8.5 -31.5t5 -33.5t3 -31t1.5 -19q5 -54 6 -93z" />
    <glyph glyph-name="K" unicode="K" horiz-adv-x="533" 
d="M375 135q27 -20 83 -43.5t83 -20.5q5 -14 -15.5 -33t-54 -28t-74.5 4q-65 25 -130.5 89.5t-113.5 132.5q0 -29 3 -78q0 -11 2 -29t3 -28t1.5 -26.5t-1.5 -26.5q-2 -12 -0.5 -21t-2 -15t-13.5 -6q-35 1 -58 8t-31.5 18.5t-11.5 21t-2.5 22.5t0.5 14q-2 11 -3.5 22.5
t-2.5 21.5t-2 19t-1.5 16.5t-0.5 11.5q-6 54 -6 93q0 12 3 66t5 59q0 2 0.5 38.5t2 82t5.5 66.5q0 4 2.5 25.5t4.5 41.5t4 32q1 4 5.5 8t8.5 4q17 2 46.5 -9.5t41.5 -27.5q9 -22 8 -92t-5 -94q-9 -49 -8 -99q14 9 28 20q50 47 51 48q13 9 28 27q5 6 14 16t15.5 18t13.5 16
t10 11q9 10 17.5 19.5t14.5 17t11.5 14t12 14t12.5 14.5q2 3 27 34t30 38q5 6 8 6.5t7 -3.5l19 -15q11 -8 3 -19q-3 -3 -33 -41.5t-37 -47.5q-23 -30 -40 -49q-5 -6 -30.5 -33.5t-28.5 -29.5l-8 -8.5t-18.5 -19.5t-22.5 -23.5t-24.5 -23.5t-20.5 -17q-22 -18 -40 -29h1
q2 -4 7.5 -14t8.5 -15t6.5 -10t6 -9t3.5 -5q7 -9 77.5 -66t95.5 -75z" />
    <glyph glyph-name="L" unicode="L" horiz-adv-x="399" 
d="M395 112q2 -1 4.5 -6t4.5 -10t4 -9.5t2 -6.5q0 -4 -5 -7q-5 -2 -41 -17q-111 -43 -190 -49q-52 -4 -88 17t-45 66q-3 16 -5.5 35t-3.5 35.5t-1 20.5q-6 54 -6 93q0 7 1.5 36.5t3.5 57.5t3 31q0 2 0.5 38.5t2 82t4.5 67.5q1 4 3.5 25t4.5 41.5t4 31.5q1 4 5.5 8t8.5 4
q11 1 28 -3.5t34.5 -13.5t25.5 -20q9 -22 8 -92t-5 -94q-7 -41 -7.5 -78t2 -63.5t1.5 -29.5q-3 -70 2 -145q3 -58 6 -69q5 -16 23.5 -23t36.5 -4q2 0 53 10q9 0 78 25q23 8 37 16q3 2 6 -1z" />
    <glyph glyph-name="M" unicode="M" horiz-adv-x="836" 
d="M803 499q3 -76 2.5 -213t-4.5 -166q0 -5 -2.5 -26t-4.5 -41t-4 -32q-1 -4 -4.5 -7.5t-8.5 -4.5q-15 -2 -42.5 9.5t-38.5 27.5q-6 29 -5 109.5t3 192.5t1 128q0 12 -2 31t-2.5 34t-0.5 28q-5 113 -58 111q-4 -2 -8 -2q-18 -4 -36 -17l-4 -4q-7 -5 -12 -11q-2 -2 -4 -5
q-8 -9 -13 -16q-13 -23 -21.5 -42t-14 -34t-7.5 -20q-11 -27 -17 -56q-13 -58 -23 -123q-4 -30 -11 -66q-9 -127 -51 -136q-19 -4 -28 14q-1 2 -1 4q-8 35 -11.5 99t-4 133t-1.5 78q-1 12 -2.5 31t-2.5 34t0 28h-1q-4 113 -56 111q-3 -2 -8 -2q-17 -4 -35 -17l-4 -4
q-6 -5 -12 -11q0 -1 -4 -5q-7 -8 -12 -16q-13 -23 -21.5 -42t-13.5 -34t-7 -20q-11 -27 -16 -56q-9 -37 -19 -97q1 -21 3 -45t2 -28q-4 -71 1 -145q0 -11 2 -29t3 -28t1.5 -26.5t-1.5 -26.5q-2 -12 -0.5 -21t-2 -15t-13.5 -6q-30 1 -51 6.5t-31 12.5t-15 17.5t-5.5 18.5
t-0.5 17.5v11.5q-3 17 -5 35.5t-3.5 34.5t-1.5 21q-6 54 -6 93q0 12 3 66t5 59q0 2 0.5 38.5t2 81.5t4.5 67q1 4 3.5 25.5t4.5 41.5t4 32q1 4 5.5 8t8.5 4q17 2 46.5 -9.5t41.5 -27.5q10 -13 7 -109q20 60 43 91q16 24 32 39q7 6 17 12q20 16 54 21q55 7 101 -23t56 -94
q1 -5 1 -22q1 -8 1 -18.5v-12.5q3 -18 3 -60q6 26 13 50q21 69 49 108q16 24 34 39q6 6 17 12q20 16 55 21q56 7 103.5 -23t57.5 -94q1 -5 1 -22q1 -8 0.5 -18.5t0.5 -12.5q1 -9 2 -42v-1.5v-2.5v1z" />
    <glyph glyph-name="N" unicode="N" horiz-adv-x="531" 
d="M499 499q2 -76 1.5 -213t-3.5 -166q-1 -4 -3 -25.5t-4 -41.5t-4 -31q-1 -5 -5 -8.5t-8 -4.5q-15 -2 -42.5 10t-38.5 27q-6 29 -5.5 109.5t3 192.5t1.5 128q-1 12 -2.5 31t-2.5 34t-1 28q-5 113 -57 111q-4 -1 -9 -2q-17 -4 -35 -17l-5 -4q-6 -5 -12 -11q-1 -1 -4 -5
q-7 -9 -12 -16q-14 -23 -22.5 -42t-13.5 -34t-8 -20q-10 -26 -16 -56q-14 -58 -23 -122q-9 -62 -15 -126q0 -23 3 -67q0 -11 2 -29t3 -28t1.5 -26.5t-1.5 -26.5q-2 -12 -0.5 -21t-2 -15t-13.5 -6q-35 1 -58 8t-31.5 18.5t-11.5 21t-2.5 22.5t0.5 14q-3 17 -5 36t-3.5 34.5
t-1.5 20.5q-6 54 -6 93q0 12 3 66t5 59q0 2 0.5 38.5t2 82t4.5 66.5q1 4 3.5 25.5t4.5 41.5t4 32q1 4 5.5 8t8.5 4q17 2 46.5 -9.5t41.5 -27.5q9 -22 8 -92t-5 -94q-4 -20 -6 -46q5 23 6 26q20 76 21 80q20 69 49 109q16 23 33 38q7 6 17 12q21 16 56 21q55 7 102.5 -23
t58.5 -94q0 -5 1 -22q1 -8 0.5 -18.5t-0.5 -12.5q1 -9 3 -42v-1.5v-2.5v1z" />
    <glyph glyph-name="O" unicode="O" horiz-adv-x="611" 
d="M584 449q6 -21 10 -52.5t3 -44.5q0 -67 -11 -125q-1 -1 -2.5 -8.5t-5 -20t-7.5 -22.5q-11 -34 -24 -54q-3 -6 -6 -8q-1 -2 -2 -5q-24 -44 -66 -75t-91 -44.5t-103 -8.5t-102 27t-87 67t-59 108q-3 15 -6.5 31.5t-4.5 21.5t-2.5 15.5t-2 20t-1.5 27.5q-5 40 1 85
q9 45 10 51q7 22 9 26q16 50 40 90t52 65t57 42.5t58.5 25.5t51.5 11t42 2q78 -3 131 -43q3 -2 12 -10l7.5 -6.5t16.5 -16t12 -14.5q13 -16 23 -34q25 -41 36 -79q1 -6 5.5 -22t5.5 -23zM565 328q2 8 -1 49.5t-5 45.5q0 13 -14 58q-18 52 -35 77q-2 5 -17 24t-18 22
q-12 14 -27 25q-12 7 -23 12.5t-12 5.5q-8 5 -20 7q-22 3 -45 1q-7 -1 -15 -2q-57 -20 -88 -48q-1 -2 -4 -5q-21 -27 -37 -55t-26 -51.5t-16.5 -47.5t-9 -41.5t-3.5 -35.5t-0.5 -28t1.5 -19.5t1 -10.5q0 -17 4 -39q1 -6 2.5 -17t2.5 -17q4 -20 7 -33q5 -21 22 -51q2 -2 4 -7
l2 -4q2 -3 9 -16.5t13 -23t16.5 -22.5t26 -24.5t34.5 -19.5q12 -6 29 -9q15 -2 29 -1q21 1 43 8q88 29 138 131q10 21 12 27q11 31 15 65q4 35 5 70z" />
    <glyph glyph-name="P" unicode="P" horiz-adv-x="520" 
d="M516 577q3 -20 3 -33q0 -28 -6 -50q-24 -77 -68 -124q-46 -49 -106.5 -82.5t-104 -45t-76.5 -12.5q3 -78 2 -105q-1 -62 -2 -98q0 -5 -4 -9t-8 -5q-15 -3 -52 -3t-49 4q-9 3 -10 14l2 97q-7 80 -2 104q6 24 3 55q-8 63 -6 119q1 30 1.5 58t0.5 50.5t1 42.5q1 55 1 134
q1 13 6 15.5t22 2.5l58 1q12 0 18 -0.5t11.5 -4.5t5.5 -13q-1 -11 -1 -77.5t2 -85.5q3 -53 3 -60q7 28 15 53q22 69 53 108q17 24 36 39q10 8 26 16q20 11 53 16q38 6 70 -3.5t50 -26t30.5 -38t16.5 -34t5 -19.5zM430 516q6 37 3.5 64t-12.5 44.5t-25 27t-32.5 12
t-35.5 -1.5t-34 -14q-1 0 -1.5 -0.5l-0.5 -0.5q-1 0 -7 -5q-18 -13 -31 -32q-15 -23 -24 -42t-15 -34l-8 -20q-12 -27 -18 -56q-15 -58 -25 -123q-5 -30 -8 -56v-11q2 0 6 1q15 2 27 4t38 10t46.5 18.5t47.5 30t46.5 43.5t37 60.5t25.5 80.5z" />
    <glyph glyph-name="Q" unicode="Q" horiz-adv-x="645" 
d="M641 4q7 -2 5 -10l-2 -17q-2 -10 -11 -9q-14 3 -33 10q-12 5 -35 16q-18 9 -34 19q-4 3 -21.5 16.5t-19.5 15.5l-2 1q-49 -42 -117 -57.5t-134 -2t-123.5 64.5t-82.5 132q-3 15 -6.5 31.5t-4.5 21.5t-2.5 15.5t-2 20t-1.5 27.5q-5 40 1 85q9 45 10 51q7 22 9 26
q16 50 40 90t52 65t57 42.5t58.5 25.5t51.5 11t42 2q78 -3 131 -43q3 -2 12 -10l7.5 -6.5t16.5 -16t12 -14.5q13 -16 23 -34q25 -41 36 -79q1 -6 5.5 -22t5.5 -23q6 -21 10 -52.5t3 -44.5q0 -67 -11 -125q-1 -1 -2.5 -8.5t-5 -20t-7.5 -22.5q-11 -34 -24 -54q-3 -6 -6 -8
q-1 -2 -2 -5q-10 -17 -26 -37q16 -10 30 -20q20 -14 51 -32q2 -2 22.5 -9.5t24.5 -6.5zM481 96q26 29 46 70q9 20 12 27q10 32 14 65q4 35 5 70q2 8 -0.5 49.5t-5.5 45.5q0 13 -14 58q-18 52 -34 77q-2 5 -17 24t-18 22q-11 14 -26 25q-11 7 -22 12.5t-13 5.5q-7 5 -19 7
q-22 3 -44 1q-7 -1 -15 -2q-56 -20 -87 -48q-1 -2 -4 -5q-20 -27 -36 -55t-25.5 -51.5t-16 -47.5t-9 -41.5t-3.5 -35.5t-0.5 -28t1.5 -19.5t1 -10.5q0 -17 4 -38q1 -7 2.5 -19.5t2.5 -15.5q3 -20 7 -33q5 -21 21 -51q2 -2 4 -7l1 -1.5t1 -2.5q2 -3 9 -16.5t13 -23
t16.5 -22.5t25.5 -24.5t33 -19.5q12 -6 29 -9q15 -2 28 -1q21 1 43 8q33 11 62 34q-18 12 -26 16q-19 12 -33 16q-4 1 -4 5q0 3 1.5 9t3.5 12t4 8t7 1q15 -6 39 -19q26 -13 36 -21z" />
    <glyph glyph-name="R" unicode="R" horiz-adv-x="527" 
d="M513 495q-24 -78 -68 -125q-38 -41 -86.5 -71t-87.5 -44t-75 -21q12 -8 31.5 -20.5t36.5 -23.5t34.5 -22.5t32 -21.5t23.5 -16q24 -18 73.5 -40t71.5 -19q7 -25 -17.5 -46.5t-70.5 -10.5q-57 14 -127.5 69t-124.5 115q2 -51 1 -73q-1 -62 -2 -98q0 -5 -4 -9t-8 -5
q-15 -3 -52 -3t-49 4q-9 3 -10 14l2 97q-7 80 -2 104q6 24 3 55q-8 63 -6 119q1 30 1.5 58t0.5 50.5t1 42.5q1 55 1 134q1 13 6 15.5t22 2.5l58 1q12 0 18 -0.5t11.5 -4.5t5.5 -13q-1 -11 -1 -77.5t2 -85.5q3 -53 3 -60q7 28 15 53q22 69 53 108q17 24 36 39q10 8 26 16
q20 11 53 16q38 6 70 -3.5t50 -26t30.5 -38t16.5 -34t5 -19.5q3 -20 3 -33q0 -28 -6 -49zM430 516q6 37 3.5 64t-12.5 44.5t-25 27t-32.5 12t-35.5 -1.5t-34 -14q-1 0 -1.5 -0.5l-0.5 -0.5q-1 0 -7 -5q-18 -13 -31 -32q-15 -23 -24 -42t-15 -34l-8 -20q-12 -27 -18 -56
q-15 -58 -25 -123q-5 -30 -8 -56v-11q2 0 6 1q13 2 22.5 4t31.5 7t40 13.5t41.5 21t42.5 31.5t37.5 42.5t32 56.5t20.5 71z" />
    <glyph glyph-name="S" unicode="S" horiz-adv-x="402" 
d="M334 295q35 -46 46 -89q0 -1 1.5 -6.5t3 -14t1.5 -18.5q2 -39 -11 -71q-13 -39 -46 -66l-1 -1.5t-2 -1.5q-27 -26 -70 -41q-18 -7 -44 -12q-20 -2 -40 -3q-36 1 -62 13q-26 10 -47 36q-1 1 -5 6.5t-9 14t-10 21.5t-7 27q-6 30 -1.5 57.5t14.5 46.5q16 28 25 37
q18 22 38 32q10 6 13 4q5 -1 9 -9.5t2 -12.5q-1 -4 -8 -8q-34 -21 -51 -57q-6 -16 -9 -30t-3.5 -21.5t0 -17t0.5 -13.5q2 -26 14 -41q9 -19 35 -37q15 -9 38 -14q9 -1 19 -2h1q21 -1 49 4q7 2 20 5q33 20 47 68q6 18 3 38t-7.5 36.5t-16 34t-21.5 31t-23.5 27.5t-23 22.5
t-19.5 17t-13 11.5q-43 42 -49 52q-57 48 -80.5 106t-18.5 93q7 52 30.5 88t52.5 52t63 22t60.5 3.5t48.5 -9.5h1q23 -6 30 -11q29 -17 42.5 -31.5t26.5 -38.5q10 -15 14 -40q5 -26 0 -46q-1 -9 -3 -10.5t-5 0.5l-14 4q-9 2 -7 12q4 16 -2 39q-6 25 -18 41q-10 14 -17 19
q-10 9 -18 14q-8 8 -30 16q-11 4 -30 7q-1 0 -7 1v-1q-38 2 -67.5 -18t-41 -51.5t-2.5 -72.5t42 -78q12 -12 50 -45t47 -42q51 -50 73 -78z" />
    <glyph glyph-name="T" unicode="T" horiz-adv-x="506" 
d="M516 693q2 -5 0.5 -25t-4.5 -27q-2 -4 -10 -4q-10 1 -38.5 3t-30.5 3q-20 1 -110 3q0 -93 2 -120q3 -59 3 -91q-2 -104 -6 -124q0 -3 1.5 -38.5t3 -81t0.5 -66.5q-1 -62 -2 -98q0 -5 -4 -9t-8 -5q-15 -3 -52 -3t-49 4q-9 3 -10 13l3 97q-8 81 -2 105t2 55q-8 63 -6 119
q2 37 2 82t1 69q0 2 0.5 12t0.5 22.5v29.5v29q-23 1 -25 1q-11 -1 -18.5 -1h-11.5t-13.5 -0.5t-20.5 -0.5q-8 0 -35.5 0.5t-46 1t-30.5 -0.5q-6 0 -9.5 1.5t-4 4t-1.5 8.5l3 17q-1 4 -1 6.5t3 4t9 2.5q5 1 28 1h46t25 1q20 2 108 6q2 1 10 0l289 -1q7 -1 9 -5z" />
    <glyph glyph-name="U" unicode="U" horiz-adv-x="535" 
d="M497 298q-4 -70 1 -144q1 -13 3.5 -39.5t2.5 -36t-1 -35.5q-2 -12 -0.5 -21t-2 -15t-13.5 -5q-35 0 -58 7t-31.5 19t-11.5 21t-2.5 22t0.5 14q-2 13 -4 28t-3 26l-2 22t-1 15q-5 44 -5 51q-8 -33 -17 -62q-20 -69 -49 -108q-16 -24 -33 -39q-7 -6 -17 -12
q-21 -16 -56 -21q-55 -7 -102.5 23t-58.5 94q0 5 -1 22q-1 8 -0.5 18.5t0.5 12.5q-1 9 -3 42v1.5v2.5v-1q-2 76 -1.5 213t3.5 166q1 4 3 25.5t4.5 41.5t3.5 31q1 5 5 8.5t8 4.5q15 2 42.5 -10t38.5 -27q6 -28 5.5 -106t-3 -186.5t-1.5 -124.5q1 -10 2 -24.5t2 -24.5t1.5 -22
t0.5 -22v-1q5 -112 57 -110q4 1 9 2q17 3 35 17q5 3 5 4q6 5 12 11l4 4q8 10 12 17q14 23 22.5 41.5t13.5 34t8 20.5q10 26 16 55q19 79 23 111q9 60 14 118q2 83 7 115q0 4 1.5 18t3 27.5t3.5 28.5t3 24q1 4 5.5 8t8.5 4q17 2 46.5 -9.5t41.5 -27.5q9 -22 8 -92t-5 -94
q-7 -41 -7.5 -78t2 -63.5t2.5 -29.5z" />
    <glyph glyph-name="V" unicode="V" horiz-adv-x="522" 
d="M517 691q9 -2 6 -22q-2 -13 -18 -79.5t-23 -89.5q-15 -53 -28 -93q-2 -7 -12.5 -36t-20.5 -56t-12 -31q-8 -20 -25 -61.5t-24.5 -59t-19.5 -43.5t-21.5 -41t-19.5 -26q-3 -4 -11 -13.5t-14 -15.5t-12 -10q-12 -8 -19 -5q-3 1 -5 7q-5 2 -9 6q-24 35 -51 94q-41 68 -46 97
q-4 25 -19 54q-29 54 -45 112q-7 25 -16.5 55.5t-15 50.5t-9.5 42q-10 39 -15 65q-5 22 -9 44.5t-4 29.5q-1 15 4 18.5t22 3.5l57 2q8 1 14.5 0.5t11.5 -1.5t8 -4t3 -8q0 -15 12 -69q12 -51 22 -79q19 -55 28 -83q1 -5 9.5 -32.5t16 -53t8.5 -28.5q0 -10 73 -163
q4 -12 21 -41q10 20 18 38t13.5 29.5t8.5 19.5q12 22 23 54q30 84 42 118q18 53 47 153q3 7 17.5 66.5t15.5 70.5q2 13 3.5 15t5.5 2z" />
    <glyph glyph-name="W" unicode="W" horiz-adv-x="781" 
d="M741 690h28q-1 -5 -2.5 -67.5t-4.5 -91.5q-24 -258 -65 -366q-1 -5 -5 -16t-7 -18.5t-7.5 -18.5t-8.5 -19.5t-9.5 -18.5t-11.5 -17q-16 -24 -33 -39q-7 -6 -17 -12q-20 -16 -56 -21q-26 -3 -52.5 5t-50.5 27t-40 55t-19 83q-2 34 -2 42l-0.5 1.5t-0.5 2.5v5v5.5v6v5.5
q-8 -32 -16 -60q-21 -68 -49 -108q-16 -23 -34 -38q-6 -6 -17 -12q-17 -13 -64 -20q-55 -7 -102.5 23t-58.5 94q0 5 -1 22q-1 8 -0.5 18.5t0.5 12.5q-1 9 -3 42v1.5v2.5v-1q-2 76 -1.5 213t3.5 166q1 4 3 25.5t4.5 41.5t3.5 31q1 5 5 8.5t8 4.5q15 2 42.5 -10t38.5 -27
q6 -28 5.5 -106t-3 -186.5t-1.5 -124.5q1 -10 2 -24.5t2 -24.5t1.5 -22t0.5 -22v-1q5 -112 57 -110q4 1 9 2q17 3 35 17q5 3 5 4q6 5 12 11l4 4q8 10 12 17q14 23 22.5 41.5t13.5 34t8 20.5q10 26 16 55q19 79 23 111q8 50 14 95q6 67 9 86q1 4 5 7.5t8 4.5q15 2 42.5 -10
t38.5 -27q6 -22 5 -65t-4 -110t-2 -83q2 -25 -1 -104l1 -1q2 -58 23 -84.5t47 -25.5q3 1 8 2q18 3 35 17q5 3 5 4q6 5 12 11l4 4q8 10 12 17q11 18 19 34.5t11.5 25t8 20.5t5.5 16q13 32 23.5 74.5t16.5 83t10 74t6.5 60.5t2.5 29q4 26 6.5 59t3.5 56t2 45.5t1 25.5z" />
    <glyph glyph-name="X" unicode="X" horiz-adv-x="531" 
d="M530 43q4 -19 0 -23t-21 -6l-58 -8q-14 -3 -25 -1.5t-13 11.5q0 15 -28 71q-25 47 -48 80q-43 60 -59 83q-4 7 -35 53q-3 -5 -6 -9q-70 -97 -104 -143q-12 -17 -93 -128q-8 -12 -11.5 -13.5t-6.5 2.5l-14 10q-8 7 5 25q23 32 111 155q40 56 62 86q21 30 35 48
q-19 29 -20.5 32t-27.5 34.5t-58.5 72.5t-46.5 62q-63 89 -66 96q-8 12 1 21q5 6 17 14.5t25 16.5t25.5 14t18.5 8q9 2 16 -7q19 -31 61 -90q63 -72 74 -95q12 -26 37 -53q8 -8 19 -22q17 23 55 76t46 66q3 3 30.5 40.5t37.5 51.5q7 11 12 11q6 1 15 -5.5t10 -12.5
q0 -4 -7 -14l-67 -92q-54 -79 -72 -100q-16 -20 -36 -50q30 -38 43 -59q15 -22 37.5 -56t34.5 -53t25 -43q0 -1 4.5 -8t9 -15.5t11.5 -21.5t12 -25q14 -28 23 -52q7 -18 10 -35z" />
    <glyph glyph-name="Y" unicode="Y" horiz-adv-x="450" 
d="M426 512q0 -55 -3 -93v-36t-0.5 -58.5t-1.5 -30.5t-3 -25t-5.5 -53t-8.5 -52q-2 -8 -7.5 -24t-9.5 -28q0 -3 -2.5 -8.5t-9 -16t-14.5 -21t-21 -22t-27.5 -20.5t-34.5 -14.5t-42 -5.5q-79 0 -123 45q-16 17 -1 33q12 14 25 3l4.5 -4.5t8.5 -8t10.5 -8t15 -7.5t17.5 -4
q32 -5 55 18.5t35.5 69t18 94t6.5 108.5q-11 -23 -20 -36q-16 -24 -33 -39q-7 -5 -18 -12q-20 -16 -55 -20q-26 -4 -52.5 4.5t-50.5 27.5t-40.5 54.5t-18.5 82.5q-3 35 -3 42v2v2q0 4 -0.5 11.5t-0.5 11.5q-1 -5 -2 6q-5 63 0 114q0 8 2 26.5t4 34.5t3 25q1 4 5 8t8 4
q15 2 42.5 -9.5t38.5 -27.5q6 -17 5.5 -38.5t-2.5 -62t-1 -57.5q1 -24 -1 -104q2 -40 13.5 -68t25.5 -39t30 -11q3 2 8 2q101 6 110 240q-1 22 -1 28v27v35.5t0.5 36.5t1.5 29q3 25 45 11q44 -15 62 -46q3 -5 5 -10q3 -9 4.5 -20.5t2 -23l1 -23t0.5 -21v-17.5v-11z" />
    <glyph glyph-name="Z" unicode="Z" horiz-adv-x="531" 
d="M287 285q-25 -34 -53.5 -76t-42.5 -62q-2 -3 -12 -18.5t-27 -40.5t-25 -38q17 1 27 0q16 -2 36 0q40 2 60 2t50 0.5t56 0.5h40h30h33q6 0 8.5 -0.5t2.5 -2v-5.5v-17q0 -4 -0.5 -5.5t-3.5 -3.5t-8 -2q-3 0 -37 -0.5t-45 -0.5q-25 -1 -105 -2h-18.5t-28.5 0.5t-16 0.5
t-34.5 -1t-66 -1.5t-35.5 -0.5q-15 -2 -27.5 -2t-17.5 1h-6q-26 0 -29 25t16 54q3 4 25.5 38.5t45 68.5t29.5 46q33 55 54 87q5 7 24 32.5t37.5 51t21.5 27.5q2 2 24 36t50.5 76.5t44.5 61.5q2 3 6 7.5t7.5 9.5t8.5 11.5t9 11.5q-32 -2 -43 0q-13 2 -28 0q-31 -2 -60 -1
h-41.5t-34.5 1h-22.5h-42h-24.5q-7 0 -8 1.5t-1 6.5v18q1 10 10 10h49.5h54.5q29 1 45 1q51 0 62 -1h19t41 0.5t33 0.5h21q4 3 42.5 3t43.5 -3q14 0 20.5 -9.5t5.5 -22.5t-3.5 -23t-4.5 -13q-29 -33 -67 -82q-49 -79 -66 -95q-22 -19 -38 -49q-33 -61 -71 -113z" />
    <glyph glyph-name="bracketleft" unicode="[" horiz-adv-x="147" 
d="M161 -98q-24 -2 -43 -2q-22 0 -45 2q-18 1 -30 15q-8 9 -7 20q5 51 1 391q-5 360 1 408q1 7 3.5 13.5t6.5 12t10.5 8.5t13.5 3h22q21 0 63 2q39 2 57 2q3 -9 -1 -28q-3 -17 -9.5 -30t-9.5 -15h-9q-11 0 -34 -1q-20 -1 -33 -2h-11l-1 -12q-1 -65 3 -341q5 -307 2 -363v-13
h54h21q1 -13 -8.5 -40t-16.5 -30z" />
    <glyph glyph-name="backslash" unicode="\" horiz-adv-x="376" 
d="M260 0q-13 0 -17 13l-192 681q-3 9 2.5 16.5t14.5 7.5h47q14 0 18 -14l192 -681q2 -8 -3.5 -15.5t-14.5 -7.5h-47z" />
    <glyph glyph-name="bracketright" unicode="]" horiz-adv-x="147" 
d="M74 -98q-23 -2 -46 -2q-22 0 -45 2q-6 4 -15 30.5t-8 39.5h21h50l4 13q-3 56 2 363q4 276 3 341l-1 12h-11q-13 1 -33 2q-27 2 -46 2q-13 27 -16 44q-5 23 0 28q9 0 56 -2q40 -2 63 -2h21q10 0 18 -5.5t12 -14t5 -17.5q6 -48 1 -408q-4 -341 1 -391q1 -11 -7 -20
q-12 -14 -29 -15z" />
    <glyph glyph-name="underscore" unicode="_" horiz-adv-x="620" 
d="M533 -31q42 0 51 -29q6 -24 -14 -36q-7 -4 -17 -4l-467 3q-44 0 -50 29q-5 21 15 30q7 4 16 4z" />
    <glyph glyph-name="a" unicode="a" horiz-adv-x="487" 
d="M508 186q1 4 10 3t9 -5q-2 -24 -7.5 -47t-16.5 -52t-32.5 -46.5t-50.5 -17.5h-1.5h-0.5q-29 2 -50.5 11.5t-32.5 21.5t-18 27.5t-9 26t-2 21.5q-7 -8 -14 -15q-3 -4 -11.5 -12t-10.5 -9q-11 -12 -34 -25q-1 -1 -2 -1t-1 -1q-8 -4 -14 -6q-32 -17 -64.5 -15t-54 10
t-33.5 18q-1 1 -9 7t-11.5 9t-10.5 11t-10 16l-7.5 20t-6 28t-1.5 36q0 21 9.5 51t16.5 43q16 29 37 54q15 17 49 38.5t82 32.5q25 6 55 2q23 -3 40 -9q1 0 10 -4q2 17 3 23q0 6 11 7q6 0 18 -0.5t25 -1.5t24.5 -2t16.5 -3q7 -2 7 -7q-4 -38 -5 -50q-2 -25 -1.5 -84.5
l0.5 -59.5q-2 -21 -2.5 -34t-1.5 -24v-18.5v-20.5q0 -20 4.5 -36.5t14 -26.5t21.5 -11q17 -1 34.5 30t28.5 97zM308 380v2q-17 8 -23 9l-7.5 1.5t-5.5 0.5t-7 1q-10 3 -24 2q-50 -6 -87.5 -58t-39.5 -130l-0.5 -2.5t-0.5 -5.5v-7t1 -8.5t2 -8.5q0 -1 1.5 -8.5t3 -14
t5.5 -17.5t8.5 -18.5t11.5 -17t15.5 -12.5t20.5 -6.5t26 1.5q7 3 12 5q11 6 25 15q9 6 27 26q14 15 31 41v3.5v3.5q-3 28 -2 39q0 7 2.5 35t3.5 30v22t-0.5 40.5t1.5 36.5z" />
    <glyph glyph-name="b" unicode="b" horiz-adv-x="455" 
d="M391 408q12 -9 18 -15.5t15.5 -22t14 -40.5t4.5 -58q0 -22 -9 -52.5t-17 -43.5q-16 -29 -37 -55q-14 -17 -48 -38.5t-83 -32.5q-25 -6 -55 -2q-23 3 -40 8q-2 1 -15 7q1 -29 3 -33q1 -6 -1.5 -9t-6.5 -4.5t-14 -3.5l-51 -12q-12 -5 -22.5 -1.5t-12.5 21.5q-2 10 -3 44.5
t-1.5 81t-0.5 49.5q-2 62 -1 95q0 12 4 67.5t5 60.5q0 3 0.5 40.5t1 84.5t2.5 69q0 6 1 26.5t2.5 42t2.5 32.5q0 10 11 13q16 8 44 -12.5t34 -51.5q4 -26 6 -76.5t2 -95.5v-48q4 -66 0 -124q-1 -16 -2 -34q40 88 93 128q27 21 62 22.5t58.5 -7.5t35.5 -20zM339 247
q5 38 6 72q0 40 -18.5 66.5t-51.5 18.5q-19 -4 -38.5 -25.5t-35.5 -50.5t-28.5 -55.5t-21.5 -49t-10 -23.5q0 -1 -1 0q-1 -20 -1 -37q-2 -7 -1 -61q5 -3 16 -8t15 -5q5 -1 8 -1.5l6 -1t7 -1.5q10 -3 24 -1q48 5 82 50.5t43 112.5z" />
    <glyph glyph-name="c" unicode="c" horiz-adv-x="356" 
d="M377 224q3 0 7 -2t7 -4.5t4 -4.5t-2 -7q-1 -2 -5.5 -10.5t-9.5 -18t-13 -23t-18.5 -26.5t-23.5 -26t-29.5 -25.5t-35.5 -21.5l-3 -1l-12 -6l-1 -1q-53 -16 -93.5 -14t-61.5 14q-35 21 -55 54.5t-20 98.5q0 21 9.5 51t16.5 43q16 29 37 54q47 55 118 76q41 12 83 -1
q29 -9 45 -32.5t12 -45.5q-4 -15 -25 -26.5t-33 -10.5q5 23 -2.5 55t-30.5 33q-49 1 -87 -53.5t-40 -134.5l-0.5 -2.5t-0.5 -5.5v-7t1 -8.5t2 -8.5q26 -104 98 -103q42 1 98 55q7 7 15 17.5t15 22t12.5 21t10 19t6.5 11.5q3 5 5 5z" />
    <glyph glyph-name="d" unicode="d" horiz-adv-x="468" 
d="M489 186q1 4 10 3t9 -5q-2 -24 -7.5 -47t-16.5 -52t-32.5 -46.5t-50.5 -17.5h-1h-1q-53 3 -79.5 29t-30.5 56v1q-2 14 -2 30v1l-1 1q-10 -27 -25.5 -46t-25.5 -25q-1 -1 -2 -1t-1 -1q-8 -4 -14 -6q-88 -37 -148 6t-60 134q0 21 9.5 51t16.5 43q16 28 37 54q15 17 49 38.5
t82 32.5q25 6 55 2q20 -3 32 -6v4q1 3 1 40.5t0.5 84.5t2.5 69q1 5 1.5 19t1.5 28t2 29.5t1 24.5q1 10 12 13q15 8 43.5 -12.5t33.5 -51.5q5 -26 5 -74t-1.5 -90t-0.5 -46q0 -12 -4 -123v-43.5t0.5 -37.5t0.5 -19q-2 -20 -2.5 -33t-0.5 -18v-7q-1 -3 -1 -15v-5.5v-6.5
q0 -9 1 -12q-1 -20 3.5 -36.5t14 -26.5t21.5 -11q17 -1 34.5 30t28.5 97zM289 380q0 2 1 9q-5 2 -6 2l-7.5 1.5t-5.5 0.5t-7 1q-10 3 -25 2q-32 -4 -60 -27.5t-46.5 -66t-19.5 -94.5q-3 -3 2 -32q6 -44 32.5 -73.5t59.5 -19.5q29 9 46 44.5t23.5 73.5t7.5 39q1 20 2 30
q1 11 2 38q-1 55 1 72z" />
    <glyph glyph-name="e" unicode="e" horiz-adv-x="356" 
d="M377 224q3 0 7 -2t7 -4.5t4 -4.5t-2 -7q-1 -2 -5.5 -10.5t-9.5 -18t-13 -23t-18.5 -26.5t-23.5 -26t-29.5 -25.5t-35.5 -21.5l-3 -1l-12 -6l-1 -1q-53 -16 -93.5 -14t-61.5 14q-35 21 -55 54.5t-20 98.5q0 21 9.5 51t16.5 43q16 29 37 54q47 55 118 76q41 12 83 -1
q20 -6 33.5 -20t19 -32t1.5 -37q-11 -60 -70 -94t-145 -32l-0.5 -2.5t-0.5 -5.5v-7t1 -8.5t2 -8.5q26 -104 98 -103q42 1 98 55q7 7 15 17.5t15 22t12.5 21t10 19t6.5 11.5q3 5 5 5zM242 396q-30 3 -57.5 -18.5t-46 -62.5t-21.5 -90q82 18 114 44q19 15 30 33t12.5 33.5
t-2 29t-11.5 21.5t-18 10z" />
    <glyph glyph-name="f" unicode="f" horiz-adv-x="267" 
d="M223 181q-26 -13 -48 -22l-6 -2t-5.5 -2t-5.5 -2t-5 -1.5t-4 -1.5t-2.5 -1h-0.5v0l1 -1h1q4 -2 9 -5q10 -7 23 -17q28 -22 47 -54q7 -12 12 -27t6.5 -23.5t1.5 -10.5l2 -13.5t3 -29.5t-1 -39q-3 -31 -16 -62.5t-29 -47.5q-16 -20 -37 -34q-27 -18 -54 -22q-5 -2 -12 -1
q-32 1 -54 30t-22 67q-2 12 -5 138q-2 63 -1 95q0 26 5 158t8 165v11t0.5 22t2.5 29.5t4.5 35.5t8.5 36.5t13 36.5t18 32.5t25 26t33 16.5t41 5q62 -4 63 -125q-1 -32 -9 -85q-6 -38 -16 -71t-22.5 -56.5t-22 -38.5t-21 -29.5t-13.5 -17.5q0 -1 -6.5 -5t-6.5 -5
q1 -22 -3 -57q18 3 19 4q5 1 18 6q21 6 57 27q39 20 60 41q8 8 10 8.5t5 -1.5l12 -9q10 -5 -9 -22q-28 -25 -72 -49zM165 633q-13 -7 -22 -29.5t-12.5 -50t-4.5 -67.5t0 -72t2.5 -72.5t1.5 -61.5q2 4 11.5 18t19 29.5t21.5 50.5t21 79q8 39 9 58q3 38 -1 68q-4 33 -15 43
q-6 6 -14 8q-8 1 -17 -1zM151 108q-8 6 -13 9l-6 4q-1 0 -14 6l-0.5 0.5l-0.5 0.5q-1 -5 -1 -6q0 -6 -2 -30.5t-3 -41.5t-2 -45.5t-1 -49.5t1 -46t5 -41.5t9 -31t14 -19.5t21 -1q15 11 25 23q16 19 28 55q6 17 9 34q5 22 1 53q-7 46 -14 61q-8 19 -27 40q-12 14 -29 26z" />
    <glyph glyph-name="g" unicode="g" horiz-adv-x="415" 
d="M392 145v-34.5t0.5 -50.5t-1.5 -30q0 -2 -1.5 -22.5t-4.5 -48.5t-7 -48q-2 -8 -7 -22.5t-7 -25.5q-1 -4 -5.5 -13.5t-16 -26.5t-26 -30.5t-39 -23t-51.5 -7.5q-4 0 -8 1q-16 0 -30 3q-11 1 -23.5 5t-19 7.5t-8.5 5.5q-3 1 -10.5 6t-19.5 18t-19 29q-11 20 -13 37
q-1 7 6 9.5t15 -0.5t8 -9q1 -6 4 -14l3 -8q9 -24 24 -34q20 -20 44 -22q111 -8 106 336q-22 -50 -66 -72q-59 -28 -105.5 -16.5t-74.5 54.5t-28 102q0 21 9.5 51t16.5 43q16 29 37 54q15 17 49 38.5t82 32.5q25 6 55 2q23 -3 40 -9q1 0 8.5 -3t15 -7t8.5 -6q10 -9 1 -20
q-7 -7 -14 0q-3 2 -16 8t-18 7l-7.5 1.5t-5.5 0.5t-7 1q-10 3 -25 2q-50 -6 -87 -58t-39 -130q-3 -3 2 -32q6 -44 32.5 -73.5t59.5 -19.5q12 4 21.5 11.5t16.5 19.5t12.5 23.5t9.5 27t6 25t4.5 23.5t3.5 17q-1 25 -1 29q0 33 2 51q2 17 23 24.5t44 1t28 -24.5q13 -42 15 -80
q1 -51 -1 -86z" />
    <glyph glyph-name="h" unicode="h" horiz-adv-x="447" 
d="M468 135q1 4 10 3t9 -6q-2 -17 -5 -34.5t-11 -41t-19 -41t-29.5 -31t-42.5 -14.5q-53 -4 -82.5 29t-29.5 75q0 6 1 8l-1 1v6v4q0 5 1 99.5t2 95.5q2 4 2 26q1 35 -8.5 54.5t-25.5 19.5q-24 0 -43.5 -25.5t-31 -67t-17.5 -76.5t-10 -71v1h-1q-4 -74 -1 -86q1 -5 -1.5 -8
t-6.5 -4.5t-14 -3.5l-46 2q-13 -5 -23 -1.5t-13 21.5q-2 10 -2.5 33.5t-0.5 55v38.5q-2 62 -1 95q0 25 5 157t8 165q0 5 2.5 45.5t3.5 55.5q0 10 11 13q16 8 44 -12.5t34 -51.5q4 -26 6 -76.5t2 -95.5v-48q3 -44 1 -106q22 45 51 68q27 21 55.5 24.5t45.5 -3.5t30 -18
q27 -22 40 -83v-1q6 -27 6 -61q0 -92 -4 -135v-15.5v-15.5v-1q-1 -6 0 -14q-2 -31 8.5 -52t28.5 -22q17 -1 34.5 30t28.5 97z" />
    <glyph glyph-name="i" unicode="i" horiz-adv-x="194" 
d="M215 201q0 3 5 3.5t9.5 -1.5t4.5 -5q-2 -23 -7.5 -45.5t-16.5 -50.5t-32.5 -46t-50.5 -20q-50 -4 -78 24t-33 68q-1 11 -1 23v4v0q0 129 2 133l0.5 10t0.5 24t0.5 28t0.5 25v12q0 23 22.5 33.5t45.5 2t23 -30.5l1.5 -11.5l1.5 -11.5q-1 -19 0.5 -89t1.5 -86v-15.5v-15.5
q-1 -3 -1 -6q0 -6 1 -9v-3v-3q0 -29 10 -48t27 -20t34.5 30t28.5 97zM62 474q-19 1 -31.5 9.5t-16 19t-4.5 21t2 15.5q3 16 15 27q7 7 16 9q13 4 25 3q17 -1 29 -12q11 -8 15 -20q7 -20 -1 -40q-6 -15 -20 -24q-13 -9 -29 -8z" />
    <glyph glyph-name="j" unicode="j" horiz-adv-x="157" 
d="M127 145q0 -5 0.5 -34.5t0.5 -50.5t-1 -30q-1 -2 -2.5 -22.5t-4.5 -48.5t-7 -48q-1 -8 -6 -22.5t-8 -25.5q-1 -4 -5.5 -13.5t-15.5 -26.5t-26 -30.5t-39 -23t-52 -7.5q-3 0 -8 1q-16 0 -29 3q-12 1 -24.5 5t-19 7.5t-8.5 5.5q-3 1 -10.5 6t-19.5 18t-19 29q-10 20 -13 37
q-1 7 6 9.5t15 -0.5t9 -9q0 -6 3.5 -14l3.5 -8q9 -24 23 -34q21 -20 44 -22q29 -2 50 25t32 73.5t17 101t7 115.5t0 107.5t-2.5 86.5t-1.5 44q0 33 2 51q2 16 23 24t44 1.5t29 -25.5q12 -41 14 -79q3 -116 -1 -176zM45 474q-20 1 -32.5 9.5t-15.5 19t-4.5 21t1.5 15.5
q4 16 16 27q7 7 15 9q14 4 26 3q16 -1 29 -12q10 -8 14 -20q7 -20 0 -40q-7 -15 -20 -24q-14 -9 -29 -8z" />
    <glyph glyph-name="k" unicode="k" horiz-adv-x="413" 
d="M435 201q2 11 13 9q10 -3 10 -16q-1 -26 -5.5 -54t-15 -65t-32.5 -64t-52 -34q-16 -5 -32 -3.5t-28.5 4t-24.5 10.5t-21 15.5t-17.5 18.5t-15 20t-12.5 20t-10 19t-7.5 16t-5.5 11q-10 16 -18.5 38.5t-13.5 37.5t-7 17l-1 1q0 -21 -1 -39q-2 -6 -0.5 -49t3.5 -51
q1 -5 -1.5 -8t-6.5 -4.5t-14 -3.5l-51 2q-12 -3 -22.5 0t-12.5 20q-3 14 -5 127q-2 62 -1 95q0 25 5 157t8 165q0 6 1 26.5t2.5 42t2.5 32.5q0 10 11 13q16 8 44 -12.5t34 -51.5q4 -26 6 -76.5t2 -95.5v-48q2 -30 2 -86q22 42 78.5 80.5t95.5 17.5q21 -11 27 -32t-1 -46.5
t-23 -52t-40 -50t-51 -38.5q57 -151 65 -163q35 -66 77 -44q10 5 18 12.5t14 21t9.5 22.5t7.5 28.5t5 27.5t4 31.5t4 28.5zM142 288q30 3 80 35.5t69 78.5q5 19 -6 22q-13 3 -35 -8t-38 -27q-32 -32 -51 -61.5t-19 -39.5z" />
    <glyph glyph-name="l" unicode="l" horiz-adv-x="213" 
d="M234 167q1 5 10 4t9 -6q-2 -23 -9 -50.5t-19.5 -60t-36 -55.5t-51.5 -25q-54 -4 -83 29t-29 75v7v1.5v1.5t-1 5h1q0 7 -3 40q-2 28 -2 39q3 93 5 111q1 11 1 38q-1 55 1 72q1 2 2 16q1 22 1 23q0 3 0.5 40.5t1 84.5t2.5 69q0 5 1.5 26.5t2.5 42.5t2 32q0 10 11 13
q16 8 44 -12.5t34 -51.5q4 -26 4.5 -74t-1 -90t-1.5 -46q1 -12 -3 -123q-1 -18 -0.5 -58t0.5 -64.5v-34.5q-2 -20 -2 -33.5t-1 -24.5v-5v-5v-6v-16h-1v-10q-1 -30 9.5 -51.5t28.5 -22.5q16 -1 38.5 43.5t33.5 111.5z" />
    <glyph glyph-name="m" unicode="m" horiz-adv-x="668" 
d="M689 204q1 4 10 3t9 -5q-2 -23 -7.5 -46t-16.5 -50.5t-32.5 -46t-50.5 -20.5q-54 -4 -83 29t-29 75q0 20 1 33q1 109 2 110q1 4 2 26q0 36 -11 59t-27 23q-61 -1 -89 -177v1q-1 -24 -2 -36q-1 -4 -1 -102q0 -14 -9.5 -23.5t-23.5 -9.5h-32q-14 0 -24 10t-10 24
q2 205 2 207q2 4 3 26q-1 36 -11.5 58.5t-26.5 22.5q-74 0 -98 -247l-1 1q-5 -74 -1 -86q0 -4 -0.5 -6.5t-4 -4.5t-6.5 -2.5t-11 -2.5l-47 2q-12 -5 -22.5 -1.5t-12.5 21.5q-2 10 -2.5 33.5t-1 55t-0.5 38.5q-2 65 7 220q1 11 12 13q16 8 44 -12.5t33 -51.5q5 -23 8 -58
q25 68 64 98q27 21 55.5 24.5t45.5 -3.5t29 -18q27 -21 40 -80q23 51 54 75q27 21 55.5 24.5t45.5 -3t30 -17.5q27 -23 40 -84v-1q6 -26 6 -61q0 -38 -4 -80v-13v-2q-1 -6 -1 -15q-1 -30 9.5 -51.5t28.5 -22.5q17 -1 34.5 30t28.5 97z" />
    <glyph glyph-name="n" unicode="n" horiz-adv-x="445" 
d="M466 204q1 4 10 3t9 -5q-3 -23 -8 -46t-16 -50.5t-32.5 -46t-50.5 -20.5q-37 -3 -63.5 13.5t-38.5 40.5t-12 49q0 11 1 49q2 96 2 97q2 4 3 26q-1 36 -11.5 58.5t-26.5 22.5q-74 0 -98 -246h-1q-5 -74 -1 -86q0 -4 -0.5 -6.5t-4 -4.5t-6.5 -2.5t-11 -2.5l-47 2
q-12 -5 -22.5 -1.5t-12.5 21.5q-2 10 -2.5 33.5t-1 55t-0.5 38.5q-2 65 7 220q1 11 12 13q16 8 44 -12.5t33 -51.5q5 -23 8 -58q25 68 64 98q27 21 55.5 24.5t45.5 -3.5t29 -18q28 -22 41 -83v-1q6 -26 5 -61q0 -22 -2 -66v-15.5v-15.5q-1 -6 -1 -15q-1 -30 9.5 -51.5
t28.5 -22.5q17 -1 34.5 30t28.5 97z" />
    <glyph glyph-name="o" unicode="o" horiz-adv-x="359" 
d="M337 300q9 -33 7 -55q0 -37 -6 -68l-1 -5q-3 -14 -7 -24q-6 -19 -14 -30q-2 -4 -4 -6q-18 -35 -54 -55t-80 -20q-48 0 -91.5 28.5t-61.5 86.5l-4 20q-5 19 -6 45q-3 21 1 47l1 9q3 14 5 19q4 13 5 15q11 36 30.5 62t38 39t40.5 20.5t33.5 9t21.5 1.5h5q45 -2 74 -24
q3 -2 8 -6v-1q3 -2 8.5 -7.5t8.5 -9t4 -4.5q7 -9 12 -19q14 -23 20 -43zM318 233q0 5 -1 26t-2 26q-3 15 -8 33q-10 28 -19 41q-4 9 -20 26q-6 7 -14 13q-6 4 -13 7l-6 3q-3 2 -8 2q-6 1 -16 1h-8t-8 -1q-29 -11 -46 -26q-59 -77 -51 -156l1 -4q0 -9 2 -21l3 -20
q2 -10 4 -18q2 -11 11 -27q1 0 3 -4l5 -10q18 -36 48 -49q6 -3 13 -4t11 -1h5q11 0 22 4q48 16 74 70q5 10 7 15q5 17 8 35q2 20 3 34v5z" />
    <glyph glyph-name="p" unicode="p" horiz-adv-x="423" 
d="M204 406q89 37 149 -6.5t60 -133.5q0 -22 -9.5 -52t-17.5 -43q-15 -28 -37 -54q-14 -17 -48 -38.5t-82 -32.5q-26 -5 -56 -1q-15 1 -25 4q-3 -31 -3 -35q-1 -2 -1 -25.5t-0.5 -57t-2.5 -55.5q0 -5 -2.5 -45.5t-3.5 -55.5q-1 -11 -11 -13q-16 -8 -44.5 12.5t-33.5 51.5
q-5 26 -6.5 62.5t-1.5 68v34.5q-5 65 -1 124q3 41 4 88.5t2 67.5q1 6 0 66t-3 67q-2 3 0 6t2 4t4.5 2.5t6.5 2t9 2.5l50 12q13 5 23 1t13 -21q2 -13 3 -74q11 22 25 38t22 20v1l1.5 0.5l1.5 0.5q8 4 13 7zM310 257q2 4 -2 32q-7 44 -33 73.5t-60 19.5q-7 -2 -14.5 -7
t-12.5 -10t-10.5 -14t-9 -15t-7 -17.5t-5.5 -17t-4.5 -17.5t-3.5 -16t-3 -15.5t-2 -12.5v-1v-1q2 -62 1 -95q-1 -14 -4 -69q4 0 6.5 -0.5t5.5 -1t6 -1.5q11 -3 25 -1q50 6 87.5 57.5t39.5 129.5z" />
    <glyph glyph-name="q" unicode="q" horiz-adv-x="410" 
d="M423 -180q2 -13 -9.5 -33t-35.5 -20q-25 0 -46 15t-34.5 43.5t-16.5 65.5q-2 22 3 162q0 13 1 44v4v12v12v12q-10 -24 -25 -41.5t-24 -22.5v-1q-1 0 -2 -0.5l-1 -0.5l-14 -7q-88 -37 -148 6.5t-60 133.5q0 22 9.5 52t16.5 43q16 28 37 54q15 17 49 38.5t82 32.5
q25 5 55 1q23 -2 40 -8q2 0 16 -7t16 -9q10 -10 1 -20q-7 -7 -14 0q-3 2 -16 8t-18 6l-7.5 1.5t-5.5 1t-7 1.5q-10 3 -25 1q-32 -3 -60 -26.5t-46.5 -66t-19.5 -94.5q-3 -4 2 -32q6 -44 32.5 -73.5t59.5 -19.5q14 4 25 15t17.5 22.5t13 31t8.5 29t6 29t4 20.5q-1 24 -1 29
q0 33 2 51q2 16 23 24t44 1.5t28 -25.5q4 -12 6 -25.5t2.5 -22t0.5 -19.5v-13q1 -21 0 -33q0 -39 -5 -129q-10 -184 4 -228q12 -34 37 -25z" />
    <glyph glyph-name="r" unicode="r" horiz-adv-x="385" 
d="M378 265q4 -1 4 -5.5t-3 -8.5t-8 -4q-89 3 -97 59l-0.5 8.5t-1.5 16.5t-3 19t-5 19t-7.5 14.5t-10.5 6.5q-23 3 -44 -23t-34.5 -67t-22 -80t-11.5 -72l-1 1q-5 -74 -1 -86q1 -5 -1.5 -8t-6.5 -4.5t-14 -3.5l-47 2q-12 -5 -22.5 -1.5t-12.5 21.5q-2 10 -2.5 33.5t-1 55
t-0.5 38.5q-2 65 7 220q1 11 12 13q16 8 44 -12.5t33 -51.5q5 -23 8 -58q25 68 64 98q27 21 55.5 25t46.5 -3t28 -19q16 -16 23 -41t7 -44.5t6 -36t20 -21.5z" />
    <glyph glyph-name="s" unicode="s" horiz-adv-x="249" 
d="M143 255q1 -1 15 -14.5t27.5 -29t28.5 -36t23.5 -43t6.5 -42.5q-3 -25 -14 -45q-13 -24 -37 -38q-12 -9 -34 -17t-34 -10q-26 -5 -54 -1q-40 7 -57 29q-7 9 -4 19t11.5 12t16.5 -5q12 -13 32 -16q55 -10 71 27q21 48 -45 125q-3 3 -17 22.5t-15 22.5q-30 34 -39.5 72.5
t-2.5 61.5q9 27 23 46.5t31 28t31 12t28 3.5q2 0 4 -0.5t3.5 -0.5t3.5 -0.5t3 -0.5q6 0 9.5 -2.5t5.5 -6t2.5 -7.5t-1 -8.5t-4 -7.5t-7 -5.5t-9.5 -2.5q-22 -1 -37 -28q-21 -38 10 -85q6 -7 25 -29z" />
    <glyph glyph-name="t" unicode="t" horiz-adv-x="209" 
d="M230 142q1 5 10 4t9 -6q-2 -23 -7.5 -45.5t-16.5 -50.5t-32.5 -46.5t-50.5 -20.5q-54 -4 -84.5 28.5t-30.5 73.5q0 6 1.5 66t2.5 130.5t2.5 132.5t1.5 71h-24h-25q-4 0 -5 3q-1 4 -1 13.5t1 11.5q1 3 5 3h50q1 10 2 15q0 2 2.5 33t2.5 46q0 17 37 45q41 32 51 14
q2 -3 2 -9q0 -74 1 -144h26.5h38.5h20q4 0 5 -1.5t1 -5.5v-15q0 -9 -7 -8q-3 0 -41 -0.5t-43 -0.5q0 -2 -2.5 -193.5t-1.5 -196.5q-1 -30 9 -51.5t28 -22.5q17 0 34.5 30.5t28.5 96.5z" />
    <glyph glyph-name="u" unicode="u" horiz-adv-x="441" 
d="M462 142q1 5 10 4t9 -6q-2 -18 -5 -35t-11 -40.5t-19 -41t-30 -31t-42 -15.5q-37 -2 -63 14.5t-37.5 40.5t-11.5 50v13q0 9 1 32q-47 -89 -129 -89h-0.5h-1.5q-32 2 -55.5 15t-34 26t-16 33t-6 26.5t-0.5 15.5q0 5 1 70.5t2 66.5v3.5v9t0.5 12.5t0.5 13t0.5 10.5t0.5 5.5
q-1 40 76 40q7 0 12.5 -5.5t5.5 -13.5q0 -19 0.5 -63t1 -69t-0.5 -45q-1 -4 -0.5 -18.5t0.5 -20.5q-1 -34 12.5 -59t40.5 -19q22 0 53.5 41.5t37.5 89.5q1 24 1 25v17.5t0.5 42.5l1 50t1 43.5t0.5 19.5q0 11 22.5 20t44.5 7t22 -16q0 -1 2 -15l2 -14q0 -11 -1 -85t-2 -139.5
t-1 -69.5q-1 -29 11 -51t31 -23q17 0 34.5 30.5t28.5 96.5z" />
    <glyph glyph-name="v" unicode="v" horiz-adv-x="352" 
d="M346 425q8 -4 3 -14q-3 -5 -11 -24t-16.5 -39.5t-11.5 -28.5q-7 -17 -11.5 -29.5t-8.5 -22.5q-17 -42 -29 -69q0 -2 -15.5 -35.5t-31.5 -69t-18.5 -41.5t-5.5 -7q-28 -7 -30 3q-1 3 -25.5 59.5t-54 123t-54.5 124t-26 61.5q-1 6 7 11q6 3 21.5 0t32 -8t31 -12t17.5 -12
l3 -7q94 -207 102 -232q6 19 11 29q7 13 13 32q12 37 15 45q7 15 14 33t11.5 29.5t10.5 24.5q22 56 33 76q3 7 5.5 8t5.5 -2z" />
    <glyph glyph-name="w" unicode="w" horiz-adv-x="512" 
d="M498 415q5 -2 5.5 -4.5t-1.5 -17.5q-1 -5 -8 -43.5t-14.5 -77.5t-11.5 -53l-5 -20t-3.5 -15t-3 -10.5t-3 -10t-3.5 -10t-5 -13t-7 -17.5q-1 -1 -3.5 -6.5t-6 -11.5t-8 -14t-11.5 -16t-14 -15q-21 -19 -48 -19q-72 -1 -104 45q-14 -16 -25 -25t-31 -16t-46 -7
q-29 0 -51.5 21.5t-35.5 52.5t-21 76t-11 80t-3.5 76t0 54t0.5 23q0 27 55 -5q22 -13 26 -15q18 -8 18 -18q0 -6 -1 -32.5t-1.5 -51t0 -58t4.5 -61.5t11 -53t20 -39.5t31 -15.5q20 0 49 37q-14 29 -17.5 67t6.5 60q8 22 25 29.5t31 3.5q21 -5 25 -29q4 -21 -4 -51
q-1 -5 -6.5 -19t-6.5 -14l-8 -20q0 -2 2 -6q13 -29 33 -44q28 -23 50 -10q17 8 34 33q17 29 33 81q9 28 18 69q2 4 7.5 35.5t12 66.5t7.5 41q2 10 4 14t3.5 4.5t4.5 -0.5zM264 168q7 25 9 39q4 10 3.5 22t-10.5 10q-6 -1 -7.5 -15.5t0.5 -29t5 -26.5z" />
    <glyph glyph-name="x" unicode="x" horiz-adv-x="353" 
d="M345 104q4 -8 2 -11t-12 -11l-37 -29q-7 -6 -11.5 -8.5t-9.5 -3t-9 4.5q-112 149 -116 154l-11.5 -17t-27.5 -40t-25 -36q-2 -2 -13 -20.5t-22.5 -38t-12.5 -23.5q-4 -7 -6.5 -8.5t-6.5 1.5l-16 7q-9 4 -3 18q4 8 27.5 47.5t34.5 55.5q19 31 36 56q5 7 24 33
q-6 9 -6.5 10.5t-15 20t-32 42t-25.5 36.5q0 1 -14.5 23.5t-19.5 31.5q-4 6 3 13q9 8 34.5 23.5t34.5 18.5q7 2 11 -3q83 -128 90 -136q37 50 53 68q37 43 50 54q5 5 9 4q5 -1 12.5 -9t8.5 -13q0 -3 -5 -9q-16 -15 -47 -50q-40 -53 -46 -59q-5 -5 -12 -14q7 -8 68.5 -94.5
t63.5 -88.5z" />
    <glyph glyph-name="y" unicode="y" horiz-adv-x="388" 
d="M362 158q0 -5 0.5 -47t-0.5 -68q-2 -46 -11 -87.5t-28 -82.5t-53.5 -67t-81.5 -30q-14 -1 -29 2q-12 1 -24.5 5.5t-19 7.5t-8.5 5q-3 1 -10.5 6.5t-19.5 18.5t-19 28q-10 20 -13 37q-1 8 6 10.5t15 -0.5t9 -10q1 -5 4 -13t3 -9q9 -24 23 -33q21 -21 44 -22
q109 -8 107 340q-29 -49 -71 -53q-41 -4 -78 12.5t-61 47.5t-27 68q-8 78 -3 121q1 7 3 26t3.5 34.5t3.5 24.5q0 5 4 8.5t9 4.5q13 1 39.5 -11t41.5 -27q5 -5 5 -35t-2 -73.5t-1 -61.5q2 -51 16.5 -71t50.5 -20q32 0 49 36t15 77q-2 37 -2 42q0 33 2 50t23 24.5t44 1.5
t29 -25q7 -24 11.5 -91t1.5 -101z" />
    <glyph glyph-name="z" unicode="z" horiz-adv-x="296" 
d="M333 138q6 -6 -1 -13q-15 -16 -33 -30q-20 -16 -41 -26q-24 -11 -48 -18q-63 -17 -166 -3q-27 4 -35.5 29t9.5 47q13 15 30 35.5t28 33t13 15.5q20 28 27 37q3 3 14 18t12 16q3 1 38 51q36 48 14 61q-2 2 -6 2.5t-8.5 1t-9.5 0t-8.5 -0.5t-6 -0.5l-2.5 -0.5q-6 2 -86 -4
q-2 0 -10 -0.5t-15.5 -1t-12 -1t-5.5 3.5t-1 15t1 15q2 3 5 3q111 5 117 6h17.5t18 -0.5t12.5 -0.5q75 0 96 -25q17 -20 -16 -83q-64 -123 -125 -188q-17 -19 -17.5 -34t13.5 -17q16 -5 47 -1q31 5 68 23q0 1 4.5 3.5t10.5 6.5t11 9q3 2 26 23q6 7 11 2z" />
    <glyph glyph-name="braceleft" unicode="{" horiz-adv-x="277" 
d="M295 -98q-22 -2 -42 -2q-22 0 -45 3q-18 0 -30 14q-8 9 -7 20q7 50 3.5 103.5t-14.5 100.5t-37 84.5t-64 55.5q-4 7 -7 30.5t-1 33.5q38 10 61.5 42t30 73.5t8.5 89t-2 89.5q-3 70 0 93q2 15 10.5 26t23.5 11h22q21 0 62 2q39 1 57 2q3 -10 -1 -28q-3 -17 -9.5 -30
t-9.5 -15q-5 1 -9 1q-12 0 -33 -2q-20 -1 -33 -1l-12 -1v-11q-1 -34 2 -101q2 -53 2.5 -98.5t-13 -89t-43.5 -72.5l-9 -9l9 -9q29 -30 48.5 -79.5t25 -94.5t8 -87.5t-0.5 -60.5v-13h53h22q1 -13 -8.5 -39.5t-17.5 -30.5z" />
    <glyph glyph-name="verticalbar" unicode="|" horiz-adv-x="158" 
d="M40 752q0 26 21 37t41.5 2.5t20.5 -29.5l-7 -817q0 -29 -20.5 -40t-41 -1t-20.5 33z" />
    <glyph glyph-name="braceright" unicode="}" horiz-adv-x="277" 
d="M68 -97q-22 -3 -45 -3q-22 0 -45 3q-6 3 -15 29.5t-8 39.5h22h49l4 13q-3 18 -0.5 60.5t8 87.5t25 94.5t48.5 79.5l9 9l-9 9q-30 29 -43.5 72.5t-13 89t2.5 98.5q3 67 2 101v12h-12q-13 0 -33 1q-27 2 -45 2q-13 28 -16 45q-5 22 0 27q5 0 56 -2q40 -2 62 -2h21
q15 0 24 -11t11 -26q3 -23 0 -93q-4 -41 -2 -88.5t8.5 -89t30 -73.5t61.5 -43q1 -5 0.5 -14.5t-1.5 -19t-3 -18t-4 -12.5q-38 -18 -64 -55.5t-37 -84t-14.5 -100.5t3.5 -104q1 -10 -7 -20q-12 -13 -30 -14z" />
    <glyph glyph-name="nonbreakingspace" unicode="&#xa0;" horiz-adv-x="303" 
 />
    <glyph glyph-name="exclamdown" unicode="&#xa1;" horiz-adv-x="154" 
d="M102 454l24 -501q1 -19 -11 -34t-30 -18q-24 -4 -42 12t-16 40q2 27 4.5 69.5t4.5 88.5t4.5 95t4 93t3 79t2.5 55l1 21h51zM76 519q-14 0 -24 10t-10 24t10 24t24 10t24 -10t10 -24t-10 -24t-24 -10z" />
    <glyph glyph-name="cent" unicode="&#xa2;" horiz-adv-x="332" 
d="M266 78q18 6 32.5 -3.5t14 -23.5t-15.5 -25q-28 -17 -78 -15l-1 -95q0 -16 -10.5 -25t-20.5 -3t-10 25l-1 103q-63 11 -100 49q-57 58 -50 162q10 164 93 222q24 18 57 28l-1 96q0 20 11 26.5t22.5 -1t11.5 -21.5l-1 -92q34 3 66 -5q17 -4 23 -15.5t2 -23.5
q-8 -27 -37 -22q-45 6 -71 -9q-30 -18 -47 -60.5t-20.5 -81t-1.5 -75.5q4 -39 17.5 -66.5t32 -38.5t40.5 -14.5t43 4.5z" />
    <glyph glyph-name="sterling" unicode="&#xa3;" horiz-adv-x="541" 
d="M441 73q15 11 29.5 6.5t18 -17.5t-4.5 -26q-14 -18 -46.5 -28t-75.5 -5q-39 4 -149 46q-25 9 -67.5 -5t-76.5 -40q-12 -10 -26.5 2t-19.5 29t0 28q4 4 11 13q19 24 28.5 37t24.5 38.5t21.5 47.5t10.5 54t1 67q-45 0 -70 1q-13 1 -17.5 11.5t1.5 21t19 10.5l56 1
q-12 65 -14 87q-10 110 47 173q35 39 81 53.5t89.5 6.5t82.5 -37.5t61 -74.5q9 -17 2 -29.5t-19.5 -20.5t-28.5 -6t-25 15q0 1 -3.5 6t-7 9.5t-9.5 12.5t-11.5 14.5t-14 14t-16.5 13t-18.5 10t-21 7t-22.5 2t-24 -4.5q-31 -9 -45 -41t-10 -79q4 -37 15 -81t12 -49l112 1
q17 0 23.5 -12t0.5 -24t-22 -12h-103q10 -109 -66 -201q31 15 112 -18q9 -4 30.5 -13.5t32 -13.5t29 -9.5t30.5 -6t26.5 3t26.5 12.5z" />
    <glyph glyph-name="yen" unicode="&#xa5;" horiz-adv-x="493" 
d="M462 613q-1 -6 -3 -21q-3 -28 -5 -43t-7.5 -43.5t-12 -46.5t-17.5 -42.5t-25 -41.5t-35 -34t-46 -29q-2 -14 -4 -48l118 -1q28 0 32 -19q2 -15 -13 -20q-3 -1 -7 -1l-132 -2q-1 -28 -2 -51l127 1q19 0 25 -11.5t-1.5 -22.5t-20.5 -11h-131q-2 -47 -3 -76q0 -31 -26 -44
t-51 0t-24 44q0 29 3 77l-115 1q-29 0 -32 19q-2 15 13 20q3 1 7 1l129 1q0 5 1 15t1 18t1 15v3l-125 -2q-19 0 -25 12t1.5 23.5t20.5 11.5h129q2 40 2 46q-2 0 -8 2.5t-14.5 6t-18 7.5t-14.5 7q-45 29 -77 79q-69 106 -43 261q3 20 23 30.5t40 5.5q20 -6 29.5 -23.5
t5.5 -39.5q-2 -22 -3.5 -53t7 -66.5t22 -65t41 -49.5t64.5 -20t65.5 27t43.5 70.5t22 85t9 82.5v9t2 8.5t4.5 8t6.5 6t8 3.5q12 3 24 -3t14 -18q4 -23 0 -59z" />
    <glyph glyph-name="section" unicode="&#xa7;" horiz-adv-x="334" 
d="M170 728q-11 -6 -20.5 -19.5t-13.5 -34t5 -44.5q18 -45 54 -90q7 -9 26 -32q18 -21 27.5 -33t23 -31t21.5 -37t13 -37q14 -59 -23 -112q-30 -44 -79 -49q-3 -1 -6 -1q-10 0 -21 1q1 -1 3.5 -4t4.5 -5q24 -28 36.5 -44t27 -42.5t20.5 -50.5q15 -60 -22 -113
q-31 -44 -79 -49q-3 -1 -7 -1q-42 -2 -79 27.5t-56 70.5q-5 11 1 20q7 12 21 13q11 0 16 -11q24 -52 67 -71q8 -4 18 -3q16 0 29.5 10.5t20.5 27.5q28 71 -76 181q-91 96 -87 177q6 102 106 129q4 1 17 2q-91 96 -86 176q5 103 105 130q12 3 25 3q32 2 63 -9.5t45 -34.5
q7 -11 3 -20q-6 -10 -20 -11q-9 0 -16 5q-35 29 -70 27q-20 0 -38 -11zM235 292q9 16 7.5 39.5t-8 46t-23.5 38.5t-40 15q-18 0 -37 -11q-12 -6 -21 -19.5t-13.5 -34t5.5 -43.5q1 -3 7 -16q23 -36 55 -50q8 -4 18 -3q34 1 50 38z" />
    <glyph glyph-name="copyright" unicode="&#xa9;" horiz-adv-x="734" 
d="M366.5 685q92.5 0 171.5 -45.5t125 -124.5t46 -171.5t-46 -171.5t-125 -124.5t-171.5 -45.5t-171 45.5t-124.5 124.5t-46 171.5t46 171.5t124.5 124.5t171 45.5zM366.5 48q122.5 0 209.5 86.5t87 209.5q0 60 -23.5 114.5t-63.5 94.5t-94.5 63.5t-114.5 23.5
q-123 0 -209.5 -87t-86.5 -209.5t86.5 -209t209 -86.5zM428 204q23 7 34.5 -12t-9.5 -32q-28 -16 -83 -11q-63 7 -99 44q-47 47 -41 133q8 135 76 183q62 44 137 26q14 -3 19 -13t2 -20q-6 -22 -31 -18q-36 6 -58 -7q-36 -21 -48 -75t-8 -103q5 -63 37 -85t72 -10z" />
    <glyph glyph-name="guillemotleft" unicode="&#xab;" horiz-adv-x="431" 
d="M112 239q87 -98 114 -127q16 -18 8 -37q-5 -11 -16 -18t-20 -7q-7 0 -10 3l-159 170q-9 8 -10 25.5t6 26.5l150 166q11 13 23 13q14 0 29 -18q5 -8 4 -17.5t-7 -17.5l-112 -143q-8 -10 0 -19zM397 112q17 -18 8 -37q-5 -11 -15.5 -18t-20.5 -7q-6 0 -10 3l-158 170
q-9 8 -10.5 25.5t6.5 26.5l150 166q11 13 22 13q14 0 29 -18q6 -8 5 -17.5t-8 -17.5l-112 -143q-8 -10 1 -19l22.5 -25t50.5 -57t40 -45z" />
    <glyph glyph-name="softhyphen" unicode="&#xad;" horiz-adv-x="0" 
 />
    <glyph glyph-name="registered" unicode="&#xae;" horiz-adv-x="468" 
d="M313 502q-23 -27 -64 -41q13 -13 23 -25q39 -45 59 -93q2 -5 -0.5 -9t-6.5 -5q-10 -3 -14 7q-19 43 -56 86q-16 19 -31 32q-11 -2 -24 -4v-99q0 -12 -9 -16.5t-18.5 0t-9.5 16.5v94q-3 0 -7 -0.5t-6 -0.5q-6 -1 -9 4.5t0 11.5t9 7l13 1v114q-12 -3 -13 -3q-7 -3 -11 2
t-3 11t8 9q9 3 19 5q1 14 15.5 16.5t19.5 -8.5q29 4 55 2q52 -5 73 -36q11 -21 6.5 -41t-18.5 -37zM239 482q37 12 57 35q12 14 13.5 29t-10.5 29q-22 20 -71 18q-12 0 -29 -3v-117q23 4 40 9zM234 684q86 0 147.5 -61t61.5 -147.5t-61.5 -147.5t-147.5 -61t-147.5 61
t-61.5 147.5t61.5 147.5t147.5 61zM234 295q75 0 128 53t53 127.5t-53 127.5t-128 53t-128 -53t-53 -127.5t53 -127.5t128 -53z" />
    <glyph glyph-name="degree" unicode="&#xb0;" horiz-adv-x="285" 
d="M221 618q34 -33 39 -79t-21 -86q-13 -20 -37 -35t-49 -17q-7 -1 -13 -1q-47 0 -79 30q-37 34 -37 89.5t35 89.5q37 39 90 39q11 0 22 -2q15 -3 30 -12.5t20 -15.5zM205 499q4 13 4.5 29t-9.5 33t-28 25q-10 5 -22 6.5t-27.5 -4t-26.5 -20.5q-33 -44 -1 -90q18 -25 53 -23
q19 2 34.5 14.5t22.5 29.5z" />
    <glyph glyph-name="periodcentered" unicode="&#xb7;" horiz-adv-x="114" 
d="M56.5 150q-15.5 0 -26.5 11t-11 26.5t11 26.5t26.5 11t26.5 -11t11 -26.5t-11 -26.5t-26.5 -11z" />
    <glyph glyph-name="guillemotright" unicode="&#xbb;" horiz-adv-x="432" 
d="M235 274q7 -8 5.5 -25.5t-9.5 -24.5l-159 -171q-4 -3 -10 -3q-10 0 -20.5 7t-15.5 18q-9 19 8 37l113 127q9 9 1 19l-112 143q-7 8 -8 17.5t5 17.5q14 18 29 18q11 0 22 -13zM406 274q7 -8 6 -25.5t-10 -24.5l-159 -171q-3 -3 -10 -3q-6 0 -13 3t-13 9t-10 13q-8 19 8 37
l114 127q8 9 0 19l-112 143q-6 8 -7.5 17.5t4.5 17.5q15 18 29 18q12 0 22 -13z" />
    <glyph glyph-name="questiondown" unicode="&#xbf;" horiz-adv-x="439" 
d="M388 -30v-3q1 -26 -21 -36q-70 -31 -147 -31q-25 0 -48.5 4t-52 15t-51 35t-34.5 58q-20 61 -12.5 114t44.5 110q18 26 79 73q26 20 40 32t33.5 32t29.5 41.5t12 45.5q17 4 39 4q13 0 22 -2q-2 -54 -31.5 -95.5t-88.5 -87.5q-149 -115 -95 -234q30 -68 112 -68
q50 0 116 27q19 7 36 -3.5t18 -30.5zM290 519q-14 0 -24 10t-10 24t10 24t24 10t24 -10t10 -24t-10 -24t-24 -10z" />
    <glyph glyph-name="Agrave" unicode="&#xc0;" 
d="M223 750q-13 16 -70 88q-4 6 -3.5 11.5t4.5 9.5t13 7t20 3q48 0 60 -21q15 -28 40 -88q6 -15 -19 -19q-31 -4 -45 9zM484 177q3 -9 12.5 -68.5t9.5 -71.5q0 -7 -1 -11.5t-5 -6.5t-7.5 -2t-12.5 -1l-58 -2q-12 0 -18.5 0.5t-12 4t-5.5 10.5q0 17 -10 71q-10 53 -18 81
q-4 12 -8 26.5t-6 19.5h-6.5h-7.5q-38 -3 -50 -1t-27 1q-29 -2 -58 -1q-18 0 -40 1t-33 1h-13.5t-26.5 0.5t-21 0.5q-6 -23 -14 -64q-8 -36 -11 -66q-5 -44 -2 -71q1 -13 0 -15t-5 -3l-14 -2q-3 0 -5 0.5t-4 5.5t-2 15q-4 30 4 84q4 36 16 91q10 47 23 94q2 6 8 25
t13.5 40.5t14 39t8.5 20.5q1 5 14.5 39t34 78t33.5 65q30 51 60 77q11 13 17 16q9 5 20 -5q33 -31 67 -93q26 -38 37 -63q11 -20 13 -37q5 -24 19 -55q13 -24 26 -60.5t17 -55.5q6 -24 14.5 -57t12.5 -52.5t8 -42.5zM330 257h6q-2 8 -2 9q-19 72 -30 115q-5 19 -28 68
q-5 12 -12 26t-12.5 24.5t-11.5 22.5l-9 18q-1 3 -4 8t-8 12.5t-8 12.5q-2 3 -12 15q-12 -23 -22 -43t-16 -33.5t-10 -20.5q-13 -25 -23 -53q-24 -65 -41 -119q-10 -34 -18 -60q65 -1 68 -1q30 1 44 0q54 -2 60 -2q4 0 89 1z" />
    <glyph glyph-name="Aacute" unicode="&#xc1;" 
d="M301 750q-12 -13 -43 -9q-22 2 -22 15q0 2 2 4q24 60 39 88q12 21 60 21q23 0 33 -10t1 -21q-57 -73 -70 -88zM484 177q3 -9 12.5 -68.5t9.5 -71.5q0 -7 -1 -11.5t-5 -6.5t-7.5 -2t-12.5 -1l-58 -2q-12 0 -18.5 0.5t-12 4t-5.5 10.5q0 17 -10 71q-10 53 -18 81
q-4 12 -8 26.5t-6 19.5h-6.5h-7.5q-38 -3 -50 -1t-27 1q-29 -2 -58 -1q-18 0 -40 1t-33 1h-13.5t-26.5 0.5t-21 0.5q-6 -23 -14 -64q-8 -36 -11 -66q-5 -44 -2 -71q1 -13 0 -15t-5 -3l-14 -2q-2 0 -3.5 0.5t-3 2t-3 6t-1.5 12.5q-4 30 4 84q4 36 16 91q10 47 23 94q2 6 8 25
t13.5 40.5t14 39t8.5 20.5q1 5 14.5 39t34 78t33.5 65q30 51 60 77q12 13 17 16q9 5 20 -5q33 -31 68 -93q25 -38 36 -63q11 -20 13 -37q5 -24 19 -55q13 -24 26 -60.5t17 -55.5q6 -24 14.5 -57t12.5 -52.5t8 -42.5zM330 257h6q-2 8 -2 9q-19 72 -30 115q-5 19 -28 68
q-7 16 -15.5 33t-17.5 34.5t-12 23.5q-1 3 -4 8t-8 12.5t-8 12.5q-2 3 -11 15q-18 -32 -32 -61.5t-17 -35.5q-13 -25 -23 -53q-24 -65 -41 -119q-10 -34 -18 -60q65 -1 68 -1q30 1 44 0q54 -2 60 -2q4 0 89 1z" />
    <glyph glyph-name="Acircumflex" unicode="&#xc2;" 
d="M156 741q-16 0 -24 9.5t1 20.5q4 4 31.5 38.5t37.5 46.5q9 10 18 10h52q13 0 22 -11q58 -69 71 -87q9 -12 -14 -21q-32 -11 -48 6l-56 70q-45 -63 -51 -68q-14 -14 -40 -14zM484 177q3 -9 12.5 -68.5t9.5 -71.5q0 -7 -1 -11.5t-5 -6.5t-7.5 -2t-12.5 -1l-58 -2
q-12 0 -18.5 0.5t-12 4t-5.5 10.5q-1 17 -10 71q-10 53 -18 81q-3 9 -5 16.5t-3.5 12t-3 9.5t-2.5 8h-6.5h-7.5q-38 -3 -50 -1t-27 1q-29 -2 -58 -1q-18 0 -40 1t-33 1h-13.5t-27 0.5t-20.5 0.5q-6 -23 -14 -64q-8 -36 -11 -66q-5 -44 -2 -71q1 -13 0 -15t-5 -3l-14 -2
q-2 0 -3.5 0.5t-3 2t-3 6t-1.5 12.5q-4 30 4 84q4 36 16 91q10 47 23 94q3 11 22 65.5t22 59.5q1 5 14.5 39t34 78t33.5 65q30 51 60 77q12 13 17 16q9 5 20 -5q33 -31 68 -93q25 -38 36 -63q11 -20 13 -37q5 -24 19 -55q13 -24 26 -60.5t17 -55.5q6 -24 14.5 -57
t12.5 -52.5t8 -42.5zM330 257h6q-2 8 -2 9q-19 72 -30 115q-5 19 -28 68q-7 16 -15.5 33t-17.5 34.5t-12 23.5q-1 3 -4 8t-8 12.5t-8 12.5q-2 3 -11 15q-18 -32 -32 -61.5t-17 -35.5q-13 -25 -23 -53q-24 -65 -41 -119q-10 -34 -18 -60q65 -1 68 -1q30 1 44 0q54 -2 60 -2
q4 0 89 1z" />
    <glyph glyph-name="Atilde" unicode="&#xc3;" 
d="M125 756q-1 1 -2.5 3.5l-3 5l-3 5t-2 3.5l-0.5 1q-10 16 4 28q36 30 73 35q22 3 50 -5.5t53 -18.5t37 -10q14 1 38 17q12 7 18 -8l10 -27q5 -16 -8 -25q-26 -19 -64 -17q-14 0 -32.5 5.5t-33 12t-29.5 11.5t-22 5q-25 0 -54 -26q-13 -13 -29 5zM484 177q3 -9 12.5 -68.5
t9.5 -71.5q0 -7 -1 -11.5t-5 -6.5t-7.5 -2t-12.5 -1l-58 -2q-12 0 -18.5 0.5t-12 4t-5.5 10.5q0 17 -10 71q-10 53 -18 81q-4 12 -8 26.5t-6 19.5h-6.5h-7.5q-38 -3 -50 -1t-27 1q-29 -2 -58 -1q-18 0 -40 1t-33 1h-13.5t-26.5 0.5t-21 0.5q-6 -23 -14 -64q-8 -36 -11 -66
q-5 -44 -2 -71q1 -13 0 -15t-5 -3l-14 -2q-2 0 -3.5 0.5t-3 2t-3 6t-1.5 12.5q-4 30 4 84q4 36 16 91q10 47 23 94q2 6 8 25t13.5 40.5t14 39t8.5 20.5q0 3 9 25t21 51t27 59.5t25 46.5q30 51 60 77q12 13 17 16q9 5 20 -5q33 -31 68 -93q25 -38 36 -63q11 -20 13 -37
q5 -24 19 -55q13 -24 26 -60.5t17 -55.5q6 -24 14.5 -57t12.5 -52.5t8 -42.5zM330 257h6q-2 8 -2 9q-19 72 -30 115q-5 19 -28 68q-5 12 -12 26t-12.5 24.5t-11.5 22.5l-9 18l-3 6t-4.5 7.5t-6 9.5t-6.5 10q-2 3 -11 15q-18 -32 -32 -61.5t-17 -35.5q-13 -25 -23 -53
q-24 -65 -41 -119q-10 -34 -18 -60q65 -1 68 -1q30 1 44 0q54 -2 60 -2q4 0 89 1z" />
    <glyph glyph-name="Adieresis" unicode="&#xc4;" 
d="M187 740q-19 0 -32.5 13.5t-13.5 33t13.5 33t32.5 13.5t33 -13.5t14 -33t-14 -33t-33 -13.5zM321.5 740q-19.5 0 -33 13.5t-13.5 33t13.5 33t33 13.5t33 -13.5t13.5 -33t-13.5 -33t-33 -13.5zM484 177q3 -9 12.5 -68.5t9.5 -71.5q0 -7 -1 -11.5t-5 -6.5t-7.5 -2t-12.5 -1
l-58 -2q-12 0 -18.5 0.5t-12 4t-5.5 10.5q0 17 -10 71q-10 53 -18 81q-3 9 -5 16.5t-3.5 12t-3 9.5t-2.5 8h-6.5h-7.5q-38 -3 -50 -1t-27 1q-29 -2 -58 -1q-18 0 -40 1t-33 1h-13.5t-26.5 0.5t-21 0.5q-6 -23 -14 -64q-8 -36 -11 -66q-5 -44 -2 -71q1 -13 0 -15t-5 -3
l-14 -2q-3 0 -5 0.5t-4 5.5t-2 15q-4 30 4 84q4 36 16 91q10 47 23 94q3 11 22 65.5t22 59.5q1 5 14.5 39t34 78t33.5 65q30 51 60 77q12 13 17 16q9 5 20 -5q33 -31 68 -93q25 -38 36 -63q11 -20 13 -37q5 -24 19 -55q13 -24 26 -60.5t17 -55.5q6 -24 14.5 -57t12.5 -52.5
t8 -42.5zM330 257h6q-2 8 -2 9q-19 72 -30 115q-5 19 -28 68q-7 16 -15.5 33t-17.5 34.5t-12 23.5q-1 3 -4 8t-8 12.5t-8 12.5q-2 3 -11 15q-18 -32 -32 -61.5t-17 -35.5q-13 -25 -23 -53q-24 -65 -41 -119q-10 -34 -18 -60q65 -1 68 -1q30 1 44 0q54 -2 60 -2q4 0 89 1z
" />
    <glyph glyph-name="Aring" unicode="&#xc5;" 
d="M484 177q3 -9 12.5 -68.5t9.5 -71.5q0 -7 -1 -11.5t-5 -6.5t-7.5 -2t-12.5 -1l-58 -2q-12 0 -18.5 0.5t-12 4t-5.5 10.5q0 17 -10 71q-10 53 -18 81q-4 12 -8 26.5t-6 19.5h-6.5h-7.5q-38 -2 -50 -1q-12 2 -27 1q-29 -2 -58 -1q-18 1 -40 1.5t-33 0.5h-9h-17.5t-19.5 0.5
t-15 0.5q-6 -23 -14 -64q-8 -36 -11 -66q-5 -44 -2 -71q1 -13 0 -15t-5 -3l-14 -2q-3 0 -5 0.5t-4 5.5t-2 15q-4 30 4 84q4 36 16 91q10 47 23 94q3 11 22 65.5t22 59.5q1 5 14.5 39t34 78t33.5 65q28 47 57 74q-32 7 -45.5 29t-13.5 44q0 27 9 46t23 28t27 12.5t27 3.5
q40 0 60 -25t20 -52q0 -29 -13.5 -52.5t-41.5 -32.5q26 -28 55 -80q26 -38 37 -63q11 -20 13 -37q5 -24 19 -55q13 -24 26 -60.5t17 -55.5q5 -22 11.5 -47t10 -38.5t7 -31t6.5 -35.5zM218 727q12 -18 34 -18q32 2 45 32q7 11 1 31.5t-25 30.5q-7 4 -19 4q-21 0 -33.5 -14.5
t-13.5 -32.5t11 -33zM330 257h6q-2 8 -2 9q-19 72 -30 115q-5 19 -28 68q-7 16 -15.5 33t-17.5 34.5t-12 23.5q-1 3 -4 8t-8 12.5t-8 12.5q-2 3 -11 15q-18 -32 -32 -61.5t-17 -35.5q-13 -25 -23 -53q-24 -65 -41 -119q-10 -34 -18 -60q65 -1 68 -1q30 1 44 0q54 -2 60 -2
q4 0 89 1z" />
    <glyph glyph-name="AE" unicode="&#xc6;" horiz-adv-x="706" 
d="M712 47q3 -9 -6 -11q-4 -2 -20.5 -5.5t-34 -6.5t-24.5 -3q-22 -3 -44 -4q-5 -1 -31 -0.5t-28 1.5q-41 -6 -73.5 -6t-53.5 3.5t-36.5 12t-23.5 16t-13.5 18.5t-6.5 16.5t-2 13.5q-1 3 -1 4q-2 17 -4.5 35.5t-4 34.5t-1.5 21q-1 7 -2 15.5t-1.5 13.5t-0.5 9q-13 0 -20 1
q-12 2 -27 1q-29 -2 -58 -1q-18 1 -40 1.5t-33 0.5h-13.5t-26.5 0.5t-21 0.5q-6 -23 -14 -64q-8 -36 -11 -66q-5 -44 -2 -71q1 -13 0 -15t-5 -3l-14 -2q-3 0 -5 0.5t-4 5.5t-2 15q-4 30 4 84q4 36 16 91q10 47 23 94q3 11 22 65.5t22 59.5q1 5 14.5 39t34 78t34.5 65
q29 51 59 77q12 13 17 16q9 5 20 -4q26 -25 48 -62q5 43 8 59q0 4 4.5 8t9.5 4q15 2 51.5 -3t48.5 -11h1q17 2 27 2t25 2q26 4 53 5h69q3 0 29 -0.5t31 -1.5q6 0 7 -1.5t0 -5.5v-14q-1 -9 -9 -9q-4 1 -18 -0.5t-30 -3t-21 -1.5q-30 -1 -40 -1q-3 -1 -29.5 -6t-28.5 -5
q-3 1 -63 -7q-6 -48 -7 -60q0 -82 -6 -102q-8 -25 -5 -55q1 -17 2 -42q9 -1 15 0q22 3 43 3q13 0 29 0.5t25 0.5q2 0 24 0.5t24 1.5q3 0 4.5 -1t1.5 -2.5v-4.5l1 -18q0 -10 -7 -11q-32 0 -58 -2q-21 -2 -32 -2h-23.5h-20.5q-1 0 -26 -1v-38q-2 -34 -0.5 -81.5t1.5 -63.5
q0 -3 1 -10.5t5 -21.5t11 -26t20.5 -21.5t31.5 -11.5q2 0 6 -0.5t7 -0.5t6.5 -0.5t6.5 -0.5q5 0 34 -1t58.5 -2.5t55.5 -2.5t28 0q6 1 7 0.5t2 -4.5zM298 280q0 26 6 102q-8 24 -28 67q-5 12 -12 26t-12.5 24.5t-11.5 22.5l-9 18q-1 3 -4 8t-8 12.5t-8 12.5q-2 3 -11 15
q-9 -15 -16 -29t-11.5 -23.5t-8.5 -17.5t-7 -15t-6 -12q-13 -25 -23 -53q-24 -65 -41 -119q-10 -34 -18 -60q65 -1 68 -1q30 1 44 0q54 -2 60 -2h9.5t22.5 0.5t26 0.5q-1 9 -1 23z" />
    <glyph glyph-name="Ccedilla" unicode="&#xc7;" horiz-adv-x="556" 
d="M533 177q3 4 10 3.5t12.5 -6t3.5 -11.5q-6 -16 -20 -42q-30 -56 -86 -89t-124 -39v-22q18 -4 33 -19q24 -23 20 -58q-4 -36 -33 -53q-16 -9 -37 -9q-34 0 -51 20q-9 11 -3 24q5 10 16 10q6 0 13 -4q11 -7 23 -7q24 0 27 22q2 26 -38 36q-17 4 -18 22v37
q-84 6 -152.5 57.5t-97.5 144.5q-3 15 -6.5 31.5t-4.5 21.5t-2.5 15.5t-2 20t-1.5 27.5q-5 40 1 85q9 45 10 51q7 22 9 26q16 50 40 90.5t52 65t57 42t58.5 25.5t51.5 11t42 3q78 -3 131 -44q19 -12 32 -30q3 -3 2 -6q-2 -4 -9.5 -9.5t-10.5 -6.5q-2 0 -5 2q-12 14 -27 25
q-12 7 -23 12.5t-12 5.5q-8 6 -20 7q-22 4 -45 1q-7 0 -15 -2q-57 -20 -88 -48q-1 -2 -4 -5q-19 -24 -33.5 -49t-24.5 -47t-17 -42.5t-10.5 -39t-5.5 -34.5t-2 -29.5t0.5 -22.5t1.5 -16.5t1 -8.5q0 -17 4 -38q1 -6 2.5 -17.5t2.5 -17.5q4 -20 7 -33q5 -21 22 -51q2 -2 4 -7
l2 -4q2 -3 9 -16.5t13 -23t16.5 -22.5t26 -24.5t34.5 -19.5q12 -6 29 -9q15 -1 29 -1q21 1 43 8q88 29 138 131z" />
    <glyph glyph-name="Egrave" unicode="&#xc8;" horiz-adv-x="432" 
d="M197 750q-15 17 -70 88q-9 11 1 21t33 10q48 0 60 -21q14 -28 39 -88q7 -15 -18 -19q-31 -4 -45 9zM439 47q2 -9 -7 -11q-6 -3 -36.5 -9t-41.5 -6q-23 -3 -44 -4q-5 -1 -17.5 -0.5t-26.5 1t-16 0.5q-40 -6 -72.5 -6t-53.5 3.5t-37 12t-23.5 16t-13 18.5t-6.5 16.5
t-2 13.5q-1 3 -1 4q-3 17 -5 35.5t-3.5 34.5t-1.5 21q-6 54 -6 93q0 7 1.5 36t3.5 57t3 32q0 2 0.5 38.5t2 81.5t5.5 67q0 4 2.5 25.5t4.5 41.5t4 32q1 4 5.5 8t8.5 4q15 2 52 -3t48 -11h1q18 2 27 2q11 0 25 2q26 4 54 5h68h15.5t28 -0.5t17.5 -1.5q4 0 5.5 -0.5t1.5 -2
v-4.5l-1 -14q0 -9 -9 -9q-2 1 -12 0t-20.5 -2l-21 -2t-14.5 -1q-30 -1 -40 -1q-4 -1 -30.5 -6t-27.5 -5q-3 1 -63 -7q-6 -48 -8 -60q1 -82 -5 -102q-8 -25 -6 -55q2 -17 2 -42q9 -1 16 0q22 3 42 3q13 0 29.5 0.5t24.5 0.5q2 0 24 0.5t24 1.5q5 0 6 -1.5t1 -6.5v-18
q1 -10 -6 -11q-33 0 -58 -2q-22 -2 -33 -2h-23h-21q-1 0 -25 -1q0 -26 -1 -38q-2 -34 0 -81.5t2 -63.5q0 -3 1 -10.5t5 -21.5t10.5 -26t20.5 -21.5t31 -11.5q3 0 8.5 -0.5t10 -1t7.5 -0.5q7 0 50.5 -2t83 -3.5t42.5 -0.5q6 1 7.5 0.5t2.5 -4.5z" />
    <glyph glyph-name="Eacute" unicode="&#xc9;" horiz-adv-x="432" 
d="M267 750q-11 -13 -43 -9q-22 2 -21 15q0 2 1 4q25 60 39 88q12 21 60 21q23 0 33 -9.5t1 -21.5q-57 -73 -70 -88zM439 47q2 -9 -7 -11q-6 -3 -36.5 -9t-41.5 -7q-23 -2 -44 -3q-5 -1 -17.5 -0.5t-26.5 1t-16 0.5q-40 -6 -72.5 -6t-53.5 3.5t-37 12t-23.5 16t-13 18.5
t-6.5 16.5t-2 13.5q-1 3 -1 4q-3 17 -5 35.5t-3.5 34.5t-1.5 21q-6 54 -6 93q0 5 1 24.5t2 40.5t2.5 39t2.5 21q0 2 0.5 38.5t2 81.5t5.5 67q0 4 2.5 25.5t4.5 41.5t4 32q1 4 5.5 8t8.5 4q15 2 52 -3t48 -11h1q18 2 27 2q11 0 25 2q26 4 54 5h68q4 0 30 -0.5t31 -1.5
q5 0 6 -1.5t1 -5.5l-1 -14q0 -9 -9 -9q-3 1 -17 -0.5t-30.5 -3t-20.5 -1.5q-30 -1 -40 -1q-3 -1 -16.5 -3.5l-27 -5t-14.5 -2.5q-3 1 -63 -7q-6 -48 -8 -60q1 -82 -5 -102q-8 -25 -6 -55q2 -17 2 -42q9 -1 16 0q22 3 42 3q13 0 29.5 0.5t24.5 0.5q2 0 24 0.5t24 1.5
q5 0 6 -1.5t1 -6.5v-18q1 -10 -6 -11q-33 0 -58 -2q-22 -2 -33 -2h-23h-21q-1 0 -25 -1q0 -26 -1 -38q-2 -34 0 -81.5t2 -63.5q0 -3 1 -10.5t5 -21.5t10.5 -26t20.5 -21.5t31 -11.5q3 0 8.5 -0.5t10 -1t7.5 -0.5q7 0 50.5 -2t83 -3.5t42.5 -0.5q6 1 7.5 0.5t2.5 -4.5z" />
    <glyph glyph-name="Ecircumflex" unicode="&#xca;" horiz-adv-x="432" 
d="M139 741q-15 0 -23 9.5t0 20.5q4 4 31.5 38.5t37.5 46.5q9 10 18 10h52q13 0 22 -11q58 -69 71 -87q10 -12 -14 -21q-32 -11 -48 6l-56 70q-45 -63 -51 -68q-14 -14 -40 -14zM439 47q2 -9 -7 -11q-6 -3 -36.5 -9t-41.5 -6q-23 -3 -44 -4q-5 -1 -17.5 -0.5t-26.5 1
t-16 0.5q-40 -6 -72.5 -6t-53.5 3.5t-37 12t-23.5 16t-13 18.5t-6.5 16.5t-2 13.5q-1 3 -1 4q-2 13 -4 28t-3 26t-2 21.5t-1 15.5q-6 54 -6 93q0 12 3 66t5 59q0 2 0.5 38.5t2 81.5t5.5 67q0 4 2.5 25.5t4.5 41.5t4 32q1 4 5.5 8t8.5 4q15 2 52 -3t48 -11h1q18 2 27 2
q11 0 25 2q26 4 54 5h68q2 0 15.5 -0.5t28 -0.5t17.5 -1q5 0 6 -1.5t1 -5.5l-1 -14q0 -9 -9 -9q-3 1 -17 -0.5t-30.5 -3t-20.5 -1.5q-30 -1 -40 -1q-4 -1 -30.5 -6t-27.5 -5q-3 1 -63 -7q-6 -48 -8 -60q1 -82 -5 -102q-8 -25 -6 -55q2 -17 2 -42q9 -1 16 0q22 3 42 3
q13 0 29.5 0.5t24.5 0.5q2 0 24 0.5t24 1.5q5 0 6 -1.5t1 -6.5v-18q1 -10 -6 -11q-33 0 -58 -2q-22 -2 -33 -2h-23h-21q-1 0 -25 -1q0 -26 -1 -38q-2 -34 0 -81.5t2 -63.5q0 -3 1 -10.5t5 -21.5t10.5 -26t20.5 -21.5t31 -11.5q3 0 8.5 -0.5t10 -1t7.5 -0.5q7 0 50.5 -2
t83 -3.5t42.5 -0.5q6 1 7.5 0.5t2.5 -4.5z" />
    <glyph glyph-name="Edieresis" unicode="&#xcb;" horiz-adv-x="432" 
d="M166 741q-19 0 -32.5 13.5t-13.5 32.5t13.5 32.5t32.5 13.5t32.5 -13.5t13.5 -32.5t-13.5 -32.5t-32.5 -13.5zM300 741q-19 0 -32.5 13.5t-13.5 32.5t13.5 32.5t32.5 13.5t32.5 -13.5t13.5 -32.5t-13.5 -32.5t-32.5 -13.5zM439 48q2 -8 -7 -10q-6 -3 -36.5 -9t-41.5 -7
q-23 -3 -44 -4h-17.5t-26.5 0.5t-16 1.5q-40 -6 -72.5 -6t-53.5 3.5t-37 12t-23.5 15.5t-13 18.5t-6.5 17t-2 13.5q-1 3 -1 4q-3 17 -5 35.5t-3.5 34.5t-1.5 20q-6 55 -6 93q0 13 3 66.5t5 58.5q0 3 0.5 39.5t2 81.5t5.5 67q0 4 2.5 25.5t4.5 41.5t4 32q1 4 5.5 7.5t8.5 4.5
q15 2 52 -3.5t48 -10.5l0.5 -0.5l0.5 -0.5q18 3 27 3q11 0 25 2q26 4 54 4q55 1 68 1q2 0 15.5 -0.5t28 -1t17.5 -0.5q5 0 6 -1.5t1 -5.5l-1 -15q0 -8 -9 -8q-3 0 -17 -1t-30.5 -2.5t-20.5 -1.5q-30 -1 -40 -2q-4 0 -30.5 -5t-27.5 -5q-3 1 -63 -7q-6 -48 -8 -61
q1 -81 -5 -102q-8 -25 -6 -54q2 -17 2 -42q9 -1 16 0q22 3 42 3q13 0 29.5 0.5t24.5 0.5q2 0 24 0.5t24 0.5q5 0 6 -1.5t1 -6.5v-17q1 -11 -6 -11q-33 0 -58 -2q-22 -2 -33 -2h-23h-21q-1 0 -25 -1q0 -26 -1 -38q-2 -34 0 -81.5t2 -63.5q0 -3 1 -10.5t5 -21.5t10.5 -26
t20.5 -21.5t31 -11.5q3 0 8.5 -0.5t10 -1t7.5 -0.5q7 0 50.5 -2t83 -4t42.5 0q6 1 7.5 0t2.5 -5z" />
    <glyph glyph-name="Igrave" unicode="&#xcc;" horiz-adv-x="193" 
d="M137 760q7 -15 -18 -19q-31 -4 -45 9q-13 15 -70 88q-9 11 1 21t33 10q48 0 60 -21q15 -28 39 -88zM160 425q-1 -103 -5 -123q-1 -3 0.5 -39t3 -81t1.5 -67q-1 -62 -2 -98q0 -4 -4 -8t-8 -5q-15 -4 -52 -3.5t-49 4.5q-9 3 -10 13l2 97q-7 81 -2 104q6 25 2 56
q-7 62 -5 119q2 36 2 81.5t1 69.5q1 55 1 133q1 13 6 15.5t22 2.5l57 2q13 0 19 -0.5t11.5 -5t4.5 -13.5v-77.5t1 -85.5q4 -59 3 -91z" />
    <glyph glyph-name="Iacute" unicode="&#xcd;" horiz-adv-x="193" 
d="M163 869q23 0 33 -10t1 -21q-57 -73 -70 -88q-12 -13 -43 -9q-22 2 -22 15q0 2 1 4q25 60 40 88q12 21 60 21zM157 679q-1 -11 -1 -77.5t2 -85.5q3 -59 2 -91q-1 -103 -5 -123q0 -3 1.5 -39t3 -81t0.5 -67q-1 -62 -2 -98q0 -4 -4 -8t-8 -5q-15 -4 -52 -3.5t-49 4.5
q-9 3 -10 13l2 97q-7 81 -2 104q6 25 3 56q-8 62 -6 119q2 36 2 81.5t1 69.5q1 55 1 133q1 13 6 15.5t22 2.5l58 2q12 0 18 -0.5t11.5 -5t5.5 -13.5z" />
    <glyph glyph-name="Icircumflex" unicode="&#xce;" horiz-adv-x="193" 
d="M215 768q9 -12 -15 -21q-32 -11 -47 6l-56 70q-46 -63 -51 -68q-15 -14 -40 -14q-16 0 -24 9.5t0 20.5q4 4 31.5 38.5t37.5 46.5q9 10 18 10h52q14 0 22 -11q59 -69 72 -87zM156 679q-1 -11 -0.5 -77.5t1.5 -85.5q3 -59 3 -91q-1 -103 -5 -123q-1 -3 0.5 -39t3 -81
t0.5 -67q-1 -62 -2 -98q0 -4 -3.5 -8t-8.5 -5q-15 -4 -52 -3.5t-49 4.5q-9 3 -9 13l2 97q-8 81 -2 104q6 25 2 56q-8 62 -5 119q1 36 1 81.5t2 69.5q0 55 1 133q0 13 5 15.5t22 2.5l58 2q12 0 18.5 -0.5t11.5 -5t5 -13.5z" />
    <glyph glyph-name="Idieresis" unicode="&#xcf;" horiz-adv-x="193" 
d="M29 741q-19 0 -32.5 13.5t-13.5 32.5t13.5 32.5t32.5 13.5t33 -13.5t14 -32.5t-14 -32.5t-33 -13.5zM163.5 741q-19.5 0 -33 13.5t-13.5 32.5t13.5 32.5t33 13.5t33 -13.5t13.5 -32.5t-13.5 -32.5t-33 -13.5zM156 679v-77.5t1 -85.5q3 -59 3 -91q-1 -103 -5 -123
q-1 -3 0.5 -39t3 -81t0.5 -67q-1 -62 -1 -98q-1 -4 -4.5 -8t-8.5 -5q-14 -4 -51.5 -3.5t-49.5 4.5q-8 3 -9 13l2 97q-7 81 -2 104q6 25 2 56q-8 62 -5 119q1 36 1.5 81.5t1.5 69.5q0 55 1 133q0 13 5.5 15.5t21.5 2.5l58 2q13 0 19 -0.5t11 -5t5 -13.5z" />
    <glyph glyph-name="Ntilde" unicode="&#xd1;" horiz-adv-x="531" 
d="M135 756q-2 2 -5 6.5t-5 8l-2 3.5q-10 16 4 28q36 30 73 35q22 3 50 -5.5t53 -18.5t37 -10q14 1 38 17q13 7 18 -8l10 -27q5 -16 -8 -25q-25 -19 -64 -17q-14 0 -32.5 5.5t-33 12t-29.5 11.5t-22 5q-25 0 -54 -26q-13 -13 -28 5zM499 504q2 -76 1.5 -212.5t-3.5 -165.5
q-1 -5 -2.5 -19t-2.5 -27t-3 -28.5t-3 -24.5q-1 -3 -3 -5.5t-4.5 -4.5t-5.5 -2q-15 -2 -42.5 9.5t-38.5 27.5q-6 29 -5.5 109.5t3 192.5t1.5 128q-1 11 -2.5 30.5t-2.5 34.5t-1 28q-5 113 -57 111q-4 -2 -9 -2q-17 -4 -35 -17l-5 -4q-6 -5 -12 -11q-1 -2 -4 -5
q-7 -9 -12 -16q-11 -18 -18.5 -34.5t-11.5 -26t-7.5 -20t-6.5 -15.5q-10 -27 -16 -56q-14 -58 -23 -123q-9 -61 -15 -125q0 -23 3 -67q1 -12 3.5 -38.5t2.5 -36.5t-1 -35q-2 -12 -0.5 -21.5t-2 -15t-13.5 -5.5q-35 1 -58 7.5t-31.5 18.5t-11.5 21.5t-2.5 22t0.5 14.5
q-3 17 -5 35.5t-3.5 34.5t-1.5 20q-6 55 -6 94q0 12 3 65.5t5 59.5q0 2 0.5 38.5t2 81.5t5.5 67q0 4 2.5 25.5t4.5 41.5t4 32q1 4 5.5 8t8.5 4q11 1 28 -3.5t34.5 -14t25.5 -19.5q9 -22 8 -92t-5 -94q-4 -21 -6 -46q5 23 6 26q20 76 21 80q20 69 49 108q16 24 33 39
q7 6 17 12q21 16 56 20q55 8 102.5 -22t58.5 -94q0 -5 1 -22q1 -8 0.5 -18.5t-0.5 -12.5q1 -9 3 -42v-1.5v-2.5z" />
    <glyph glyph-name="Ograve" unicode="&#xd2;" horiz-adv-x="611" 
d="M309 751q-14 16 -70 88q-9 11 1 21t33 10q48 0 60 -22q15 -27 40 -87q6 -15 -19 -19q-31 -4 -45 9zM584 455q6 -22 10 -53t3 -44q0 -68 -11 -125q-1 -1 -2.5 -9t-5 -20t-7.5 -22q-11 -34 -24 -54q-3 -6 -6 -9l-2 -4q-24 -44 -66 -75t-91 -44.5t-103 -9t-102 26.5
t-87 67.5t-59 108.5q-3 14 -6.5 31t-4.5 21.5t-2.5 15t-2 20l-1.5 28.5q-5 40 1 85q9 45 10 51q7 22 9 25q16 51 40 91t52 65t57 42.5t58.5 25.5t51.5 11t42 2q78 -3 131 -43q3 -2 12 -10l7.5 -6.5t16.5 -16t12 -14.5q13 -17 23 -34q25 -41 36 -79q1 -6 5.5 -22t5.5 -23z
M565 333q2 9 -1 50.5t-5 45.5q0 13 -14 58q-18 52 -35 76q-2 6 -17 25t-18 22q-12 14 -27 25q-12 7 -23 12t-12 6q-8 5 -20 6q-22 4 -45 2q-7 -1 -15 -2q-57 -20 -88 -49l-4 -4q-21 -27 -37 -55t-26 -51.5t-16.5 -47.5t-9 -42t-3.5 -35.5t-0.5 -27.5t1.5 -19.5t1 -10.5
q0 -17 4 -39q1 -6 2.5 -17.5t2.5 -16.5q4 -20 7 -33q5 -21 22 -51q2 -3 4 -7q1 -3 2 -4q2 -3 9 -17t13 -23t16.5 -22.5t26 -24.5t34.5 -20q12 -5 29 -8q15 -2 29 -1q21 0 43 8q88 29 138 130q10 21 12 28q11 31 15 64q4 36 5 70z" />
    <glyph glyph-name="Oacute" unicode="&#xd3;" horiz-adv-x="611" 
d="M368 751q-12 -13 -43 -10q-23 3 -22 15l1 5q25 60 40 87q12 22 59 22q24 0 33.5 -10t1.5 -21q-57 -73 -70 -88zM584 455q6 -22 10 -53t3 -44q0 -68 -11 -125q-1 -1 -2.5 -9t-5 -20t-7.5 -22q-11 -34 -24 -54q-3 -6 -6 -9l-2 -4q-24 -44 -66 -75t-91 -44.5t-103 -9
t-102 26.5t-87 67.5t-59 108.5q-3 13 -6 27t-4 19.5t-2.5 13.5t-2 14.5t-1 16t-1.5 25.5q-5 40 1 85q9 45 10 51q7 22 9 25q19 60 50.5 105.5t64 70t70 39.5t65 19t51.5 3q78 -3 131 -43q3 -2 12 -10l7.5 -6.5t16.5 -16t12 -14.5q13 -17 23 -34q25 -41 36 -79q1 -6 5.5 -22
t5.5 -23zM565 333q2 9 -1 50.5t-5 45.5q0 13 -14 58q-18 52 -35 76q-2 6 -17 25t-18 22q-12 14 -27 25q-12 7 -23 12t-12 6q-8 5 -20 6q-22 4 -45 2q-7 -1 -15 -2q-57 -20 -88 -49l-4 -4q-19 -24 -33.5 -49t-24.5 -47t-17 -43t-10.5 -39.5t-5.5 -34t-2 -29t0.5 -22.5
t1.5 -16.5t1 -8.5q0 -17 4 -39q1 -6 2.5 -17.5t2.5 -16.5q4 -20 7 -33q5 -21 22 -51q2 -3 4 -7q1 -3 2 -4q2 -3 9 -17t13 -23t16.5 -22.5t26 -24.5t34.5 -20q12 -5 29 -8q15 -2 29 -1q21 0 43 8q88 29 138 130q10 21 12 28q11 31 15 64q4 36 5 70z" />
    <glyph glyph-name="Ocircumflex" unicode="&#xd4;" horiz-adv-x="611" 
d="M228 742q-16 0 -24 9.5t0 20.5q4 4 31.5 38.5t37.5 46.5q9 10 18 10h52q14 0 22 -12q59 -69 72 -86q9 -12 -15 -21q-31 -11 -47 6l-56 70q-45 -63 -51 -69q-14 -13 -40 -13zM584 455q6 -22 10 -53t3 -44q0 -68 -11 -125q-1 -1 -2.5 -9t-5 -20t-7.5 -22q-11 -34 -24 -54
q-3 -6 -6 -9l-2 -4q-24 -44 -66 -75t-91 -44.5t-103 -9t-102 26.5t-87 67.5t-59 108.5q-3 13 -6 27t-4 19.5t-2.5 13.5t-2 14.5t-1 16t-1.5 25.5q-5 40 1 85q9 45 10 51q7 22 9 25q16 51 40 91t52 65t57 42.5t58.5 25.5t51.5 11t42 2q78 -3 131 -43q3 -2 12 -10l7.5 -6.5
t16.5 -16t12 -14.5q13 -17 23 -34q25 -41 36 -79q1 -6 5.5 -22t5.5 -23zM565 333q2 9 -1 50.5t-5 45.5q0 13 -14 58q-18 52 -35 76q-2 6 -17 25t-18 22q-12 14 -27 25q-9 5 -16 8.5l-12 6l-7 3.5q-8 5 -20 6q-22 4 -45 2q-7 -1 -15 -2q-57 -20 -88 -49l-4 -4
q-19 -24 -33.5 -49t-24.5 -47t-17 -43t-10.5 -39.5t-5.5 -34t-2 -29t0.5 -22.5t1.5 -16.5t1 -8.5q0 -17 4 -39q1 -6 2.5 -17.5t2.5 -16.5q4 -20 7 -33q5 -21 22 -51q2 -3 4 -7q1 -3 2 -4q2 -3 9 -17t13 -23t16.5 -22.5t26 -24.5t34.5 -20q12 -5 29 -8q15 -2 29 -1q21 0 43 8
q88 29 138 130q10 21 12 28q11 31 15 64q4 36 5 70z" />
    <glyph glyph-name="Otilde" unicode="&#xd5;" horiz-adv-x="611" 
d="M196 757q-2 1 -3.5 3.5l-3 5t-2.5 4.5t-2 3.5l-1 1.5q-10 16 4 28q36 30 73 35q28 4 78 -15.5t63 -18.5t38 16q12 8 18 -7l9 -28q6 -15 -8 -25q-25 -18 -64 -17q-13 1 -32 6.5t-33.5 11.5t-29 11.5t-22.5 5.5q-25 0 -53 -26q-14 -13 -29 5zM584 455q6 -22 10 -53t3 -44
q0 -68 -11 -125q-1 -1 -2.5 -9t-5 -20t-7.5 -22q-11 -34 -24 -54q-3 -6 -6 -9l-2 -4q-24 -44 -66 -75t-91 -44.5t-103 -9t-102 26.5t-87 67.5t-59 108.5q-3 14 -6.5 31t-4.5 21.5t-2.5 15t-2 20l-1.5 28.5q-5 40 1 85q9 45 10 51q7 22 9 25q19 60 50.5 105.5t64 70t70 39.5
t65 19t51.5 3q78 -3 131 -43q3 -2 12 -10l7.5 -6.5t16.5 -16t12 -14.5q13 -17 23 -34q25 -41 36 -79q1 -6 5.5 -22t5.5 -23zM565 333q2 9 -1 50.5t-5 45.5q0 13 -14 58q-18 52 -35 76q-2 6 -17 25t-18 22q-12 14 -27 25q-12 7 -23 12t-12 6q-8 5 -20 6q-22 4 -45 2
q-7 -1 -15 -2q-57 -20 -88 -49l-4 -4q-21 -27 -37 -55t-26 -51.5t-16.5 -47.5t-9 -42t-3.5 -35.5t-0.5 -27.5t1.5 -19.5t1 -10.5q0 -17 4 -39q1 -6 2.5 -17.5t2.5 -16.5q4 -20 7 -33q5 -21 22 -51q2 -3 4 -7q1 -3 2 -4q2 -3 9 -17t13 -23t16.5 -22.5t26 -24.5t34.5 -20
q12 -5 29 -8q15 -2 29 -1q21 0 43 8q88 29 138 130q10 21 12 28q11 31 15 64q4 36 5 70z" />
    <glyph glyph-name="Odieresis" unicode="&#xd6;" horiz-adv-x="611" 
d="M269 741q-19 0 -32.5 14t-13.5 33t13.5 32.5t32.5 13.5t32.5 -13.5t13.5 -32.5t-13.5 -33t-32.5 -14zM403.5 741q-19.5 0 -33 14t-13.5 33t13.5 32.5t33 13.5t33 -13.5t13.5 -32.5t-13.5 -33t-33 -14zM584 455q6 -22 10 -53t3 -44q0 -68 -11 -125q-1 -1 -2.5 -9t-5 -20
t-7.5 -22q-11 -34 -24 -54q-3 -6 -6 -9l-2 -4q-24 -44 -66 -75t-91 -44.5t-103 -9t-102 26.5t-87 67.5t-59 108.5q-3 14 -6.5 31t-4.5 21.5t-2.5 15t-2 20l-1.5 28.5q-5 40 1 85q9 45 10 51q7 22 9 25q16 51 40 91t52 65t57 42.5t58.5 25.5t51.5 11t42 2q78 -3 131 -43
q3 -2 12 -10l3 -2.5t7.5 -7l9.5 -9.5t9.5 -10t6.5 -8q13 -17 23 -34q25 -41 36 -79q1 -4 2.5 -10.5t3 -12t3 -12t2.5 -10.5zM565 333q2 9 -1 50.5t-5 45.5q0 13 -14 58q-18 52 -35 76q-2 6 -17 25t-18 22q-12 14 -27 25q-12 7 -23 12t-12 6q-8 5 -20 6q-22 4 -45 2
q-7 -1 -15 -2q-57 -20 -88 -49l-4 -4q-19 -24 -33.5 -49t-24.5 -47t-17 -43t-10.5 -39.5t-5.5 -34t-2 -29t0.5 -22.5t1.5 -16.5t1 -8.5q0 -17 4 -39q1 -6 2.5 -17.5t2.5 -16.5q4 -20 7 -33q5 -21 22 -51q2 -3 4 -7q1 -3 2 -4q2 -3 9 -17t13 -23t16.5 -22.5t26 -24.5
t34.5 -20q12 -5 29 -8q15 -2 29 -1q21 0 43 8q88 29 138 130q10 21 12 28q11 31 15 64q4 36 5 70z" />
    <glyph glyph-name="multiply" unicode="&#xd7;" horiz-adv-x="379" 
d="M345 158q10 -9 10 -22.5t-10 -23.5q-12 -12 -25.5 -12t-23.5 10l-102 102q-5 5 -10 0l-102 -102q-9 -10 -23 -10t-23 10q-11 11 -12 25q0 14 10 23l100 100q7 7 0 14l-100 100q-10 10 -10 23.5t10 23.5q12 12 25.5 12t22.5 -10l102 -102q5 -5 10 0l102 102q10 10 23.5 10
t23.5 -10q11 -11 11.5 -25t-9.5 -24l-100 -100q-7 -7 0 -14z" />
    <glyph glyph-name="Oslash" unicode="&#xd8;" horiz-adv-x="615" 
d="M585 455q6 -22 10 -53t3 -44q0 -68 -11 -125q-1 -1 -2.5 -9t-5 -20t-7.5 -22q-11 -34 -24 -54q-3 -6 -6 -8q-1 -2 -2 -5q-35 -64 -104 -99t-149 -30t-144 49l-30 -42q-24 -27 -43 -13q-15 12 -4 29q1 3 3 5l36 52q-50 50 -73 123q-3 14 -6.5 31t-4.5 21.5t-2.5 15t-2 20
l-1.5 28.5q-5 40 1 85q9 45 10 51q7 22 9 26q19 59 50.5 104.5t64 70t70 39.5t65 19t51.5 3q78 -3 131 -43q3 -2 12 -10q1 0 17 -15l27 39q24 27 46 11q17 -13 6 -30q-1 -2 -3 -5l-42 -59q1 -2 3.5 -6t4.5 -6q25 -41 36 -79q1 -4 2.5 -10.5t3 -12t3 -12t2.5 -10.5zM168 211
q3 -12 13 -34l296 431l-1 2q-12 14 -27 25q-9 5 -16 9t-12 6t-7 3q-8 5 -20 7q-22 3 -45 1q-7 -1 -15 -2q-57 -20 -88 -49l-4 -4q-19 -24 -33.5 -49t-24.5 -47t-17 -43t-10.5 -39.5t-5.5 -34t-2 -29t0.5 -22.5t1.5 -16.5t1 -8.5q0 -17 4 -39q1 -6 2.5 -17.5t2.5 -16.5
q4 -20 7 -33zM566 333q2 9 -1 50.5t-5 45.5q0 12 -14 58q-18 52 -35 76v1l-304 -436q32 -61 88 -86q12 -5 29 -8q15 -2 29 -1q21 0 43 8q88 29 138 130q10 21 12 28q11 31 15 64q4 36 5 70z" />
    <glyph glyph-name="Ugrave" unicode="&#xd9;" horiz-adv-x="535" 
d="M276 750q-11 0 -14 2q-39 36 -86 95q1 2 7 5t18.5 5.5t27.5 2.5q48 0 60 -21q25 -47 36 -79q-2 -3 -17.5 -6.5t-31.5 -3.5zM497 304q-4 -71 1 -145q1 -12 3.5 -38.5t2.5 -36t-1 -35.5q-2 -12 -0.5 -21t-2 -15t-13.5 -6q-35 1 -58 8t-31.5 18.5t-11.5 21t-2.5 22.5t0.5 14
q-2 11 -3.5 22.5t-2.5 21.5t-2 19t-1.5 16.5t-0.5 11.5q-5 44 -5 51q-8 -33 -17 -62q-20 -69 -49 -109q-16 -23 -33 -38q-7 -6 -17 -12q-21 -16 -56 -21q-55 -7 -102.5 22.5t-58.5 94.5q0 5 -1 22q-1 8 -0.5 18t0.5 13q-1 9 -3 41v2.5v1.5q-2 76 -1.5 213t3.5 166q1 4 3 25
t4.5 41.5t3.5 31.5q1 5 5 8.5t8 4.5q15 1 42.5 -10.5t38.5 -27.5q6 -28 5.5 -105.5t-3 -186.5t-1.5 -124q1 -12 2.5 -31.5t2.5 -34.5t1 -28q5 -112 57 -110q4 1 9 2q17 3 35 17l5 3l12 12l4 4q8 9 12 17q14 23 22.5 41.5t13.5 33.5t8 21q10 26 16 55q19 78 23 110
q9 61 14 118q2 84 7 115q0 4 2.5 25.5t4.5 41.5t4 32q1 4 5.5 8t8.5 4q17 2 46.5 -9.5t41.5 -27.5q9 -22 8 -92t-5 -94q-7 -41 -7.5 -78.5t2 -63.5t2.5 -29z" />
    <glyph glyph-name="Uacute" unicode="&#xda;" horiz-adv-x="535" 
d="M294 752q-3 -2 -14 -2q-17 0 -32 4t-17 8q13 33 37 77q11 21 59 21q15 0 27.5 -2.5t19 -5.5t7.5 -5q-49 -60 -87 -95zM497 304q-4 -70 1 -145q1 -12 3.5 -38.5t2.5 -36t-1 -35.5q-2 -12 -0.5 -21t-2 -15t-13.5 -6q-35 1 -58 8t-31.5 18.5t-11.5 21t-2.5 22.5t0.5 14
q-2 13 -4 28t-3 26t-2 21.5t-1 15.5q-5 44 -5 51q-8 -33 -17 -62q-20 -69 -49 -109q-16 -23 -33 -38q-7 -6 -17 -12q-21 -16 -56 -21q-55 -7 -102.5 22.5t-58.5 94.5q0 5 -1 22q-1 8 -0.5 18t0.5 13q-1 8 -3 41v2.5v1.5q-2 76 -1.5 213t3.5 166q1 4 3 25t4.5 41.5t3.5 31.5
q1 5 5 8.5t8 4.5q15 1 42.5 -10.5t38.5 -27.5q6 -28 5.5 -105.5t-3 -186.5t-1.5 -124q1 -12 2.5 -31.5t2.5 -34.5t1 -28q5 -112 57 -110q4 1 9 2q17 3 35 17l5 3l12 12l4 4q8 9 12 17q14 23 22.5 41.5t13.5 33.5t8 21q10 26 16 55q19 78 23 110q9 61 14 118q2 84 7 115
q0 4 2.5 25.5t4.5 41.5t4 32q1 4 5.5 8t8.5 4q11 1 28 -3.5t34.5 -14t25.5 -19.5q9 -22 8 -92t-5 -94q-7 -41 -7.5 -78.5t2 -63.5t2.5 -29z" />
    <glyph glyph-name="Ucircumflex" unicode="&#xdb;" horiz-adv-x="534" 
d="M174 743q-16 0 -24 10t1 20q3 5 30.5 39t38.5 46q8 11 18 11h52q13 0 22 -12q58 -69 71 -86q9 -13 -15 -22q-31 -10 -47 6l-56 70q-45 -63 -51 -68q-14 -14 -40 -14zM497 303q-4 -71 1 -144q1 -13 3.5 -39.5t2.5 -36t-1 -35.5q-2 -11 -0.5 -20.5t-2 -15t-13.5 -5.5
q-35 0 -58 7t-31.5 19t-11.5 21t-2.5 22t0.5 14q-3 17 -5 36t-3.5 35t-1.5 20q-5 44 -5 51q-8 -33 -17 -62q-20 -69 -49 -108q-16 -24 -33 -39q-7 -6 -17 -12q-21 -16 -56 -21q-55 -7 -102.5 23t-58.5 94q0 5 -1 22q-1 8 -0.5 18.5t0.5 12.5q-1 9 -3 42v1.5v2.5
q-2 75 -1.5 212t3.5 166q1 4 3 25.5t4.5 41.5t3.5 32q1 4 5 7.5t8 4.5q15 2 42.5 -10t38.5 -27q6 -28 5.5 -106t-3 -186.5t-1.5 -124.5q1 -10 2 -24.5t2 -24.5t1.5 -22t0.5 -22v-1q5 -112 57 -110q4 1 9 2q17 3 35 17l5 4q6 5 12 11l4 4q8 10 12 17q14 23 22.5 42t13.5 34
t8 20q10 27 16 55q19 79 23 111q9 60 14 118q2 83 7 115q0 4 1.5 18t3 27.5t3.5 28.5t3 24q1 5 5.5 8.5t8.5 3.5q17 2 46.5 -9.5t41.5 -27.5q9 -22 8 -92t-5 -94q-7 -41 -7.5 -78t2 -63t2.5 -30z" />
    <glyph glyph-name="Udieresis" unicode="&#xdc;" horiz-adv-x="534" 
d="M197.5 743q-19.5 0 -33 13.5t-13.5 33t13.5 33t33 13.5t33 -13.5t13.5 -33t-13.5 -33t-33 -13.5zM332 743q-19 0 -33 13.5t-14 33t14 33t33 13.5t32.5 -13.5t13.5 -33t-13.5 -33t-32.5 -13.5zM497 303q-4 -71 1 -144q1 -13 3.5 -39.5t2.5 -36t-1 -35.5q-2 -11 -0.5 -20.5
t-2 -15t-13.5 -5.5q-35 0 -58 7t-31.5 19t-11.5 21t-2.5 22t0.5 14q-2 13 -4 28.5t-3 26t-2 21.5t-1 15q-5 44 -5 51q-8 -33 -17 -62q-20 -69 -49 -108q-16 -24 -33 -39q-7 -6 -17 -12q-21 -16 -56 -21q-55 -7 -102.5 23t-58.5 94q0 5 -1 22q-1 8 -0.5 18.5t0.5 12.5
q-1 9 -3 42v1.5v2.5q-2 75 -1.5 212t3.5 166q1 4 3 25.5t4.5 41.5t3.5 32q1 4 5 7.5t8 4.5q15 2 42.5 -10t38.5 -27q6 -28 5.5 -106t-3 -186.5t-1.5 -124.5q1 -10 2 -24.5t2 -24.5t1.5 -22t0.5 -22v-1q5 -112 57 -110q4 1 9 2q17 3 35 17q4 3 5 4q6 5 12 11l4 4q8 10 12 17
q14 23 22.5 42t13.5 34t8 20q10 26 16 55q18 78 23 111q9 60 14 118q2 84 7 115q0 4 2.5 25t4.5 41.5t4 31.5q1 5 5.5 8.5t8.5 3.5q17 2 46.5 -9.5t41.5 -27.5q9 -22 8 -92t-5 -94q-7 -41 -7.5 -78t2 -63t2.5 -30z" />
    <glyph glyph-name="Yacute" unicode="&#xdd;" horiz-adv-x="451" 
d="M234 753q-11 -14 -43 -10q-22 3 -21 15q0 2 1 5q25 59 39 87q12 21 60 21q23 0 33 -9.5t1 -21.5q-57 -72 -70 -87zM427 517q0 -55 -3 -93v-36t-0.5 -58.5t-1.5 -30.5q-1 -2 -3 -24.5t-5.5 -53.5t-8.5 -52q-2 -8 -7.5 -24t-9.5 -28q0 -2 -2.5 -8t-9 -16t-14.5 -21
t-21 -22.5t-27.5 -20t-34.5 -14.5t-42 -6q-79 0 -123 45q-16 17 -1 33q12 14 25 3l4.5 -4.5t8.5 -8t10.5 -7.5t15 -7.5t17.5 -4.5q32 -5 55 18.5t35.5 69t18 94.5t6.5 108q-11 -23 -20 -36q-16 -24 -33 -38q-7 -6 -18 -13q-20 -15 -55 -20q-26 -3 -52.5 5t-50.5 27
t-40.5 54.5t-18.5 83.5q-3 34 -3 41v2.5v1.5v7.5t-0.5 8.5t-0.5 7q-1 -5 -2 6q-5 63 0 114q0 7 1.5 20.5t2.5 24t2.5 22.5t2.5 19q0 2 1.5 4.5t3.5 4t4 2.5t4 1q15 2 42.5 -9.5t38.5 -27.5q6 -17 5.5 -38.5t-2.5 -62t-1 -57.5q1 -24 -1 -104q2 -40 13.5 -68t25.5 -39t30 -11
q3 2 8 2q101 6 110 240q-1 23 -1 28v27v35.5t0.5 36.5t1.5 29q3 25 45 11q44 -14 62 -46q3 -5 5 -10q4 -13 5.5 -32t2 -34t0.5 -31v-19z" />
    <glyph glyph-name="germandbls" unicode="&#xdf;" horiz-adv-x="529" 
d="M436 350q43 -40 66 -100t12 -122.5t-62 -99.5q-46 -30 -96 -27.5t-95 32.5t-67 75q-9 19 7 32q15 12 26 -5q30 -47 70 -71.5t72.5 -24t49.5 20.5q15 16 22.5 42t5 57t-26 65t-65.5 61q-5 3 -23 14.5t-28.5 18t-25.5 17.5t-26 20q-15 15 -14 35.5t14 36.5q8 8 17.5 28.5
t19.5 46.5t14 54.5t2 52.5t-17.5 40t-43.5 18q-53 3 -83 -31q-24 -27 -31 -129q-3 -51 -2 -169q1 -161 15 -306q2 -12 -23 -17.5t-51 0t-27 17.5q-4 40 -11 163q-8 143 -3 240q3 46 6 73t16 64.5t34 63.5q51 59 130 65.5t139 -43.5q24 -20 37.5 -45.5t16 -51t-3 -53.5
t-16 -53.5t-26.5 -50.5q4 -3 7 -4q40 -26 68 -50z" />
    <glyph glyph-name="agrave" unicode="&#xe0;" horiz-adv-x="487" 
d="M240 481q-15 17 -70 88q-9 11 1 21t33 10q48 0 60 -22q15 -27 40 -87q6 -15 -19 -19q-31 -4 -45 9zM508 186q1 4 10 3t9 -6q-2 -17 -5 -35t-11 -42t-19 -42t-30 -30.5t-42 -12.5h-1.5h-0.5q-29 2 -50.5 11.5t-32.5 21.5t-18 27.5t-9 26t-2 20.5q-7 -8 -14 -14
q-3 -4 -11.5 -12t-10.5 -9q-11 -12 -34 -25q-1 -1 -2 -1.5l-1 -0.5q-8 -4 -14 -6q-32 -17 -64.5 -15t-54 9.5t-33.5 18.5q-1 1 -9 7t-11.5 9t-10.5 10.5t-10 16t-7.5 20.5t-6 28t-1.5 36q0 14 5 34.5t11 36t10 23.5q16 28 37 54q15 17 49 38.5t82 32.5q25 5 55 1
q23 -2 40 -8q1 0 10 -4q2 17 3 23q0 6 11 7q12 1 43 -1.5t41 -5.5q7 -2 7 -7q-4 -38 -5 -50q-2 -25 -1.5 -84.5t-0.5 -60.5q-1 -20 -1.5 -33t-1.5 -24v-18.5v-20.5q-1 -30 10 -51.5t30 -22.5q17 -1 34.5 30t28.5 97zM308 380v2q-17 8 -23 8q-5 2 -7.5 2t-5.5 0.5t-7 1.5
q-10 3 -24 1q-50 -5 -87.5 -57t-39.5 -130q-1 -1 -1 -6t0.5 -12.5t2.5 -13.5q0 -1 1.5 -9t3 -14t5.5 -17t8.5 -18.5t11.5 -17t15.5 -13t20.5 -6.5t26 2q7 3 12 5q11 5 25 15q9 5 27 26q14 14 31 40v4.5v3.5q-3 28 -2 39q0 4 1 19t2.5 29.5t2.5 16.5v22t-0.5 40.5t1.5 36.5z
" />
    <glyph glyph-name="aacute" unicode="&#xe1;" horiz-adv-x="487" 
d="M333 481q-11 -13 -42 -9q-23 2 -22 14q0 3 1 5q25 60 40 87q11 22 59 22q24 0 33.5 -10t0.5 -21q-56 -73 -70 -88zM508 186q1 4 10 3t9 -6q-2 -23 -7.5 -46t-16.5 -52t-32.5 -46.5t-50.5 -17.5h-1.5h-0.5q-29 2 -50.5 11.5t-32.5 21.5t-18 27.5t-9 26t-2 20.5
q-7 -8 -14 -14q-3 -4 -11.5 -12t-10.5 -10q-11 -11 -34 -24q-1 -1 -2 -1.5l-1 -0.5q-8 -4 -14 -6q-32 -17 -64.5 -15t-54 9.5t-33.5 18.5q-1 1 -9 7t-11.5 9t-10.5 10.5t-10 16t-7.5 20.5t-6 28t-1.5 36q0 21 9.5 51t16.5 43q16 28 37 54q8 9 22 20.5t44.5 27t64.5 23.5
q25 5 55 1q23 -2 40 -8q1 0 10 -4q2 17 3 23q0 6 11 7q12 1 43 -1.5t41 -5.5q7 -2 7 -7q-4 -38 -5 -50q-2 -25 -1.5 -84.5t-0.5 -60.5q-1 -15 -1.5 -24.5t-0.5 -16t-1 -16.5v-18.5v-20.5q0 -20 4.5 -36.5t14 -27t21.5 -10.5q17 -1 34.5 30t28.5 97zM308 380v1v1q-17 8 -23 9
q-5 1 -7.5 1t-5.5 0.5t-7 1.5q-10 3 -24 1q-50 -5 -87.5 -57t-39.5 -130q-1 -1 -1 -4v-7.5t0.5 -10t2.5 -10.5q0 -1 1.5 -8.5t3 -14t5.5 -17.5t8.5 -18.5t11.5 -17t15.5 -13t20.5 -6.5t26 2q7 3 12 5q11 5 25 15q9 5 27 26q14 15 31 41v3.5v3.5q-3 28 -2 39q0 4 1 19
t2.5 29.5t2.5 16.5v22t-0.5 40.5t1.5 36.5z" />
    <glyph glyph-name="acircumflex" unicode="&#xe2;" horiz-adv-x="487" 
d="M239 471q-16 0 -24 9.5t1 20.5q3 4 30.5 38.5t37.5 46.5q9 10 19 10h51q14 0 23 -11q58 -69 71 -87q9 -12 -15 -21q-31 -11 -47 6l-56 70q-45 -63 -51 -68q-14 -14 -40 -14zM508 186q1 4 10 3t9 -6q-2 -23 -7.5 -46t-16.5 -52t-32.5 -46.5t-50.5 -17.5h-1.5h-0.5
q-29 2 -50.5 11.5t-32.5 21.5t-18 27.5t-9 26t-2 20.5q-7 -8 -14 -14q-3 -4 -11.5 -12t-10.5 -10q-11 -11 -34 -24q-1 -1 -2 -1.5l-1 -0.5q-8 -4 -14 -6q-32 -17 -64.5 -15t-54 9.5t-33.5 18.5q-1 1 -9 7t-11.5 9t-10.5 10.5t-10 16t-7.5 20.5t-6 28t-1.5 36q0 21 9.5 51
t16.5 43q16 28 37 54q15 17 49 38.5t82 32.5q25 5 55 1q23 -2 40 -8q1 0 10 -4q2 17 3 23t11 7q12 1 43 -1.5t41 -5.5q7 -2 7 -7q-4 -38 -5 -50q-2 -25 -1.5 -84.5t0.5 -60.5q-2 -20 -2.5 -33t-1.5 -24v-18.5v-20.5q0 -20 4.5 -36.5t14 -27t21.5 -10.5q17 -1 34.5 30
t28.5 97zM308 380v2q-17 8 -22 9q-6 1 -8.5 1t-5.5 0.5t-7 1.5q-10 3 -24 1q-33 -3 -61 -26.5t-46.5 -66t-19.5 -94.5l-0.5 -1.5t-0.5 -3.5v-4v-5t0.5 -6l1 -6t1.5 -6q0 -1 1.5 -8.5t3 -14t5.5 -17.5t8.5 -18.5t11.5 -17t15.5 -13t20.5 -6.5t27 2q6 3 11 5q11 5 25 15
q10 5 28 26q13 15 30 41v3.5v3.5q-2 28 -2 39q0 4 1 19t2.5 29.5t2.5 16.5v22t-0.5 40.5t1.5 36.5z" />
    <glyph glyph-name="atilde" unicode="&#xe3;" horiz-adv-x="487" 
d="M194 485q-2 2 -5 6.5t-4.5 8l-1.5 3.5q-10 16 4 28q36 30 73 35q28 4 78 -15.5t62 -18.5q14 1 38 16q12 8 18 -7l10 -28q5 -15 -8 -25q-26 -18 -64 -17q-23 1 -65.5 18t-52.5 17q-24 0 -53 -27q-13 -12 -29 6zM508 186q1 4 10 3t9 -6q-2 -23 -7.5 -46t-16.5 -52
t-32.5 -46.5t-50.5 -17.5h-1.5h-0.5q-29 2 -50.5 11.5t-32.5 21.5t-18 27.5t-9 26t-2 20.5q-7 -8 -14 -14q-3 -4 -11.5 -12t-10.5 -10q-11 -11 -34 -24q-1 -1 -2 -1.5l-1 -0.5q-8 -4 -14 -6q-32 -17 -64.5 -15t-54 9.5t-33.5 18.5q-1 1 -9 7t-11.5 9t-10.5 10.5t-10 16
t-7.5 20.5t-6 28t-1.5 36q0 21 9.5 51t16.5 43q16 28 37 54q15 17 49 38.5t82 32.5q25 5 55 1q23 -2 40 -8q1 0 10 -4q2 17 3 23t11 7q12 1 43 -1.5t41 -5.5q7 -2 7 -7q-4 -38 -5 -50q-2 -25 -1.5 -84.5t0.5 -60.5q-2 -20 -2.5 -33t-1.5 -24v-18.5v-20.5q-1 -30 10.5 -51.5
t29.5 -22.5q17 -1 34.5 30t28.5 97zM308 380v2q-17 8 -22 9q-6 1 -8.5 1t-5.5 0.5t-7 1.5q-10 3 -24 1q-50 -5 -87.5 -57t-39.5 -130q-1 -1 -1 -6t0.5 -12t2.5 -14q0 -1 1.5 -8.5t3 -14t5.5 -17.5t8.5 -18.5t11.5 -17t15.5 -13t20.5 -6.5t27 2q6 3 11 5q11 5 25 15
q10 5 28 26q13 15 30 41v3.5v3.5q-2 28 -2 39q0 4 1 19t2.5 29.5t2.5 16.5v22t-0.5 40.5t1.5 36.5z" />
    <glyph glyph-name="adieresis" unicode="&#xe4;" horiz-adv-x="487" 
d="M208 471q-19 0 -32.5 13.5t-13.5 32.5t13.5 33t32.5 14t32.5 -14t13.5 -33t-13.5 -32.5t-32.5 -13.5zM342 471q-19 0 -32.5 13.5t-13.5 32.5t13.5 33t32.5 14t33 -14t14 -33t-14 -32.5t-33 -13.5zM508 186q1 4 10 3t9 -6q-2 -23 -7.5 -46t-16.5 -52t-32.5 -46.5
t-50.5 -17.5h-1.5h-0.5q-29 2 -50.5 11.5t-32.5 21.5t-18 27.5t-9 26t-2 20.5q-7 -8 -14 -14q-3 -4 -11.5 -12t-10.5 -10q-11 -11 -34 -24q-1 -1 -2 -1.5l-1 -0.5q-8 -4 -14 -6q-32 -17 -64.5 -15t-54 9.5t-33.5 18.5q-1 1 -9 7t-11.5 9t-10.5 10.5t-10 16t-7.5 20.5t-6 28
t-1.5 36q0 21 9.5 51t16.5 43q16 28 37 54q15 17 49 38.5t82 32.5q25 5 55 1q23 -2 40 -8q1 0 10 -4q2 17 3 23t11 7q12 1 43 -1.5t41 -5.5q7 -2 7 -7q-4 -38 -5 -50q-2 -25 -1.5 -84.5t0.5 -60.5q-2 -20 -2.5 -33t-1.5 -24v-18.5v-20.5q-1 -30 10 -51.5t30 -22.5
q17 -1 34.5 30t28.5 97zM308 380v1v1q-17 8 -23 9q-5 1 -7.5 1t-5.5 0.5t-7 1.5q-10 3 -24 1q-50 -5 -87.5 -57t-39.5 -130l-0.5 -1.5t-0.5 -3.5v-4v-5t0.5 -6l1 -6t1.5 -6q0 -1 1.5 -8.5t3 -14t5.5 -17.5t8.5 -18.5t11.5 -17t15.5 -13t20.5 -6.5t26 2q7 3 12 5q11 5 25 15
q9 5 27 26q14 15 31 41v3.5v3.5q-3 28 -2 39q0 4 1 19t2.5 29.5t2.5 16.5v22t-0.5 40.5t1.5 36.5z" />
    <glyph glyph-name="aring" unicode="&#xe5;" horiz-adv-x="487" 
d="M301 457q-41 3 -58.5 27t-17.5 49q0 27 9 46t23 28t27 12.5t27 3.5q40 0 60 -25t20 -52q0 -37 -22 -64t-68 -25zM274 573q-12 -14 -13 -32t10 -34q13 -17 35 -17q32 2 45 32q7 11 1 31.5t-25 30.5q-8 3 -19 3q-22 0 -34 -14zM508 186q1 4 10 3t9 -6q-2 -23 -7.5 -46
t-16.5 -52t-32.5 -46.5t-50.5 -17.5h-1.5h-0.5q-29 2 -50.5 11.5t-32.5 21.5t-18 27.5t-9 26t-2 20.5q-7 -8 -14 -14q-3 -4 -11.5 -12t-10.5 -10q-11 -11 -34 -24q-1 -1 -2 -1.5l-1 -0.5q-8 -4 -14 -6q-32 -17 -64.5 -15t-54 9.5t-33.5 18.5q-1 1 -9 7t-11.5 9t-10.5 10.5
t-10 16t-7.5 20.5t-6 28t-1.5 36q0 21 9.5 51t16.5 43q16 28 37 54q15 17 49 38.5t82 32.5q25 5 55 1q23 -2 40 -8q1 0 10 -4q2 17 3 23t11 7q12 1 43 -1.5t41 -5.5q7 -2 7 -7q-4 -38 -5 -50q-2 -25 -1.5 -84.5t0.5 -60.5q-2 -20 -2.5 -33t-1.5 -24v-18.5v-20.5
q0 -20 4.5 -36.5t14 -27t21.5 -10.5q17 -1 34.5 30t28.5 97zM308 380v2q-17 8 -23 9q-5 1 -7.5 1t-5.5 0.5t-7 1.5q-10 3 -24 1q-50 -5 -87.5 -57t-39.5 -130l-0.5 -1.5t-0.5 -3.5v-4v-5t0.5 -6l1 -6t1.5 -6q0 -1 1.5 -8.5t3 -14t5.5 -17.5t8.5 -18.5t11.5 -17t15.5 -13
t20.5 -6.5t26 2q7 3 12 5q11 5 25 15q9 5 27 26q14 15 31 41v3.5v3.5q-3 28 -2 39q0 4 1 19t2.5 29.5t2.5 16.5v22t-0.5 40.5t1.5 36.5z" />
    <glyph glyph-name="ae" unicode="&#xe6;" horiz-adv-x="648" 
d="M670 224q4 0 10.5 -4t7.5 -7q1 -2 -2 -7q-1 -1 -7 -13t-12 -23t-18 -28t-25 -31.5t-32 -29.5t-41 -26l-3 -1l-12 -7h-1q-35 -13 -74 -14q-5 -4 -16 -7t-18.5 -4t-8.5 -1q-29 2 -50.5 11.5t-32.5 21.5t-18 27.5t-9 26t-2 20.5q-7 -8 -14 -14q-3 -4 -11.5 -12t-10.5 -9
q-11 -12 -34 -25q-1 -1 -2 -1.5l-1 -0.5q-8 -4 -14 -6q-32 -17 -64.5 -15t-54 9.5t-33.5 18.5q-1 1 -9 7t-11.5 9t-10.5 10.5t-10 16t-7.5 20.5t-6 28t-1.5 36q0 21 9.5 51t16.5 43q16 29 37 54q8 10 22.5 21t44.5 26.5t64 23.5q25 5 55 2q23 -3 40 -9q1 0 10 -4q2 17 3 23
t11 7q12 1 43 -1.5t41 -5.5q7 -2 7 -7q-2 -20 -3 -36q32 24 74 36q41 12 83 -1q30 -9 45 -34.5t9 -54.5q-11 -61 -70 -94.5t-145 -31.5q-1 -1 -1 -4v-7.5t0.5 -10t2.5 -10.5q26 -104 98 -103q42 1 98 54q9 9 19.5 24t17 27t14 25.5t8.5 15.5q3 4 5 5zM535 395
q-45 6 -82.5 -44.5t-43.5 -125.5q83 18 115 44q19 15 30 33t12.5 33.5t-2 29t-11.5 21.5t-18 9zM308 380v2q-16 8 -22 9q-5 1 -8 1t-6 0.5t-7 1.5q-10 3 -24 1q-33 -3 -61 -26.5t-46.5 -66t-19.5 -94.5l-0.5 -1.5t-0.5 -3.5v-4v-5t0.5 -6l1 -6t1.5 -6q0 -1 1.5 -8.5t3 -14
t5.5 -17.5t8.5 -18.5t11.5 -17t15.5 -13t20.5 -6.5t27 2q6 3 11 5q11 5 25 15q10 5 28 26q13 15 30 41v3.5v3.5q-2 28 -2 39q0 4 1 19t2.5 29.5t2.5 16.5t0.5 22t-1 40.5t1.5 36.5z" />
    <glyph glyph-name="ccedilla" unicode="&#xe7;" horiz-adv-x="354" 
d="M376 238q4 0 10.5 -4t7.5 -7q1 -2 -2 -7q-1 -1 -7 -13t-12 -23t-18 -28t-25 -31.5t-32 -29.5t-41 -26l-3 -1l-12 -7h-1q-33 -13 -71 -14v-19q16 -4 30 -18q22 -21 19 -53q-4 -33 -31 -49q-14 -8 -33 -8q-32 0 -47 18q-8 10 -3 22q5 10 14 10q6 0 13 -4q10 -7 21 -7
q22 0 24 20q2 24 -35 33q-16 4 -16 21v36q-26 4 -40 12q-35 21 -55 54.5t-20 98.5q0 21 9.5 51t16.5 43q16 29 37 54q47 55 118 76q41 12 83 -1q29 -9 45 -32.5t12 -46.5q-4 -15 -25 -26t-33 -10q5 23 -2.5 55t-30.5 32q-49 2 -87 -52.5t-40 -134.5q-1 -1 -1 -6t0.5 -12
t2.5 -14q26 -104 98 -103q42 1 98 54q9 9 19.5 24t17 27t14 25.5t8.5 15.5q3 4 5 5z" />
    <glyph glyph-name="egrave" unicode="&#xe8;" horiz-adv-x="355" 
d="M208 464q-13 15 -70 87q-9 12 1 21.5t33 9.5q48 0 60 -21q15 -28 40 -87q6 -16 -19 -20q-31 -3 -45 10zM377 225q4 0 10.5 -4t7.5 -7q1 -2 -2 -7l-4.5 -9t-7.5 -14.5t-10.5 -19t-14 -22t-18.5 -23t-22 -23.5t-26.5 -21.5t-31.5 -18.5l-3 -1l-12 -7h-1q-53 -16 -93.5 -14
t-61.5 14q-35 21 -55 54.5t-20 98.5q0 21 9.5 51t16.5 43q16 29 37 54q47 55 118 76q41 12 83 -1q20 -6 33.5 -20t19 -32t1.5 -37q-11 -61 -70 -94.5t-145 -31.5l-0.5 -1t-0.5 -2.5v-3.5v-4.5v-5t0.5 -5l1 -5t1.5 -5.5q26 -104 98 -103q42 1 98 54q9 9 19.5 24t17 27
t14 25.5t8.5 15.5q3 5 5 5zM242 396q-45 6 -82.5 -44.5t-43.5 -125.5q83 18 115 44q19 15 30 33t12.5 33.5t-2 29t-11.5 21.5t-18 9z" />
    <glyph glyph-name="eacute" unicode="&#xe9;" horiz-adv-x="355" 
d="M280 464q-12 -14 -43 -10q-22 3 -22 15q0 2 2 5q24 59 39 87q12 21 60 21q23 0 33 -9.5t1 -21.5q-57 -72 -70 -87zM377 225q4 0 10.5 -4t7.5 -7q1 -2 -2 -7q-1 -1 -7 -13t-12 -23t-18 -28t-25 -31.5t-32 -29.5t-41 -26l-3 -1l-12 -7h-1q-53 -16 -93.5 -14t-61.5 14
q-35 21 -55 54.5t-20 98.5q0 21 9.5 51t16.5 43q16 29 37 54q47 55 118 76q41 12 83 -1q30 -9 45 -34.5t9 -54.5q-11 -61 -70 -94.5t-145 -31.5q-1 -1 -1 -4v-7.5t0.5 -10t2.5 -10.5q26 -104 98 -103q42 1 98 54q9 9 19.5 24t17 27t14 25.5t8.5 15.5q3 4 5 5zM242 396
q-22 3 -44 -9t-38.5 -35t-28.5 -56t-14 -70q82 18 114 44q19 15 30 33t12.5 33.5t-2 29t-11.5 21.5t-18 9z" />
    <glyph glyph-name="ecircumflex" unicode="&#xea;" horiz-adv-x="355" 
d="M139 454q-16 0 -24 10t0 20q6 7 20.5 25t28 34.5t20.5 25.5q9 11 18 11h52q14 0 23 -12q58 -69 71 -86q9 -13 -15 -22q-31 -10 -47 6l-56 70q-45 -63 -51 -68q-14 -14 -40 -14zM377 225q4 0 10.5 -4t7.5 -7q1 -2 -2 -7q-1 -1 -7 -13t-12 -23t-18 -28t-25 -31.5t-32 -29.5
t-41 -26l-3 -1l-12 -7h-1q-53 -16 -93.5 -14t-61.5 14q-35 21 -55 54.5t-20 98.5q0 21 9.5 51t16.5 43q16 29 37 54q47 55 118 76q41 12 83 -1q20 -6 33.5 -20t19 -32t1.5 -37q-11 -61 -70 -94.5t-145 -31.5q0 -1 -0.5 -3t-0.5 -5v-7t1 -8.5t2 -8.5q26 -104 98 -103
q42 1 98 54q9 9 19.5 24t17 27t14 25.5t8.5 15.5q3 4 5 5zM242 396q-45 6 -82.5 -44.5t-43.5 -125.5q83 18 115 44q19 15 30 33t12.5 33.5t-2 29t-11.5 21.5t-18 9z" />
    <glyph glyph-name="edieresis" unicode="&#xeb;" horiz-adv-x="355" 
d="M172 454q-19 0 -32.5 13.5t-13.5 33t13.5 33t32.5 13.5t32.5 -13.5t13.5 -33t-13.5 -33t-32.5 -13.5zM306 454q-19 0 -32.5 13.5t-13.5 33t13.5 33t32.5 13.5t32.5 -13.5t13.5 -33t-13.5 -33t-32.5 -13.5zM377 225q4 0 10.5 -4t7.5 -7q1 -2 -2 -7q-1 -2 -5.5 -10.5
t-9.5 -18t-13 -23t-18.5 -26.5t-23.5 -26t-29.5 -25.5t-35.5 -21.5l-3 -1l-12 -7h-1q-53 -16 -93.5 -14t-61.5 14q-35 21 -55 54.5t-20 98.5q0 21 9.5 51t16.5 43q16 29 37 54q47 55 118 76q41 12 83 -1q20 -6 33.5 -20t19 -32t1.5 -37q-11 -61 -70 -94.5t-145 -31.5
q0 -1 -0.5 -3t-0.5 -5v-7t1 -8.5t2 -8.5q26 -104 98 -103q42 1 98 54q9 9 19.5 24t17 27t14 25.5t8.5 15.5q3 4 5 5zM242 396q-30 4 -57.5 -17.5t-46 -62.5t-21.5 -90q82 18 114 44q19 15 30 33t12.5 33.5t-2 29t-11.5 21.5t-18 9z" />
    <glyph glyph-name="igrave" unicode="&#xec;" horiz-adv-x="201" 
d="M100 473q7 -16 -18 -20q-31 -3 -45 10q-13 15 -70 87q-9 12 1 21.5t33 9.5q48 0 60 -21q15 -28 39 -87zM222 201q1 3 6 3.5t9.5 -1.5t3.5 -5q-2 -23 -7 -45.5t-16.5 -50.5t-33 -46t-50.5 -20q-49 -4 -77.5 24t-32.5 68q-2 11 -2 23v3v1q1 128 3 133l0.5 23.5t1 48.5
t0.5 27q0 23 22.5 33.5t45 2t22.5 -30.5l1.5 -12l1.5 -12q-1 -18 1 -88t1 -86h1q-1 -1 -1 -15.5v-15.5v-6v-10v-3v-2q0 -29 10 -48t27 -20t34.5 30t28.5 97z" />
    <glyph glyph-name="iacute" unicode="&#xed;" horiz-adv-x="201" 
d="M110 463q-11 -14 -42 -10q-23 3 -22 15l1 5q25 59 40 87q11 21 59 21q24 0 33.5 -9.5t0.5 -21.5q-56 -72 -70 -87zM222 201q1 3 6 3.5t9 -1.5t4 -5q-2 -23 -7 -45.5t-16.5 -50.5t-33 -46t-50.5 -20q-49 -4 -77.5 24t-32.5 68q-2 11 -2 23v3v1q1 128 3 133l0.5 23.5
t1 48.5t0.5 27q0 23 22.5 33t45 2t22.5 -30l1.5 -12l1.5 -12q-1 -18 1 -88t1 -86v-15.5v-15.5v-6v-10v-3v-2q0 -29 10 -48t27 -20q8 -1 16.5 6t17 21t16.5 39.5t13 60.5z" />
    <glyph glyph-name="icircumflex" unicode="&#xee;" horiz-adv-x="202" 
d="M76 535q-1 -1 -3 -3.5t-6.5 -9t-9 -12.5t-10 -13.5t-10 -13.5t-8 -10.5t-4.5 -5.5q-15 -14 -40 -14q-16 0 -24 10t0 20q4 5 31.5 39t37.5 46q9 11 18 11h52q14 0 22 -12q59 -69 72 -86q9 -13 -15 -22q-31 -10 -47 6zM223 201q1 4 10 3t9 -6q-2 -23 -7.5 -45.5
t-16.5 -50.5t-32.5 -46t-50.5 -20q-50 -4 -78 24t-33 68q-1 11 -1 23v3v1q0 128 2 133l0.5 23.5t1 48.5t0.5 27q0 23 22.5 33.5t45.5 2t23 -30.5l1.5 -12l1.5 -12q-1 -18 0.5 -88t1.5 -86v-15.5v-15.5q-1 -3 -1 -6q0 -6 1 -10v-3v-2q0 -29 10 -48t27 -20t34.5 30t28.5 97z
" />
    <glyph glyph-name="idieresis" unicode="&#xef;" horiz-adv-x="202" 
d="M-2 453q-19 0 -32.5 13.5t-13.5 33t13.5 33t32.5 13.5t33 -13.5t14 -33t-14 -33t-33 -13.5zM132.5 453q-19.5 0 -33 13.5t-13.5 33t13.5 33t33 13.5t33 -13.5t13.5 -33t-13.5 -33t-33 -13.5zM223 201q1 3 5.5 3.5t9 -1.5t4.5 -5q-2 -23 -7.5 -45.5t-16.5 -50.5t-32.5 -46
t-50.5 -20q-49 -4 -77.5 24t-33.5 68q-1 11 -1 23v3v1q1 128 2 133l0.5 23.5t1.5 48.5t1 27q-1 23 21.5 33.5t45.5 2t23 -30.5l1.5 -12l1.5 -12q-1 -18 1 -88t1 -86v-15.5v-15.5q0 -3 -1 -6q1 -6 1 -10v-3v-2q0 -29 10 -48t27 -20t34.5 30t28.5 97z" />
    <glyph glyph-name="ntilde" unicode="&#xf1;" horiz-adv-x="446" 
d="M72 469q-1 2 -2.5 4.5t-3 4.5t-3 4.5t-2.5 4l-1 1.5q-10 16 4 27q36 31 74 36q28 3 78 -16t62 -18q14 1 38 16q12 8 18 -7l10 -28q5 -15 -8 -25q-26 -19 -64 -17q-23 1 -65.5 17.5t-52.5 16.5q-24 0 -53 -26q-14 -12 -29 5zM467 205q1 4 10 3t9 -5q-2 -18 -5 -35.5
t-11 -41t-19 -41t-30 -30.5t-42 -15q-37 -3 -63.5 13.5t-38.5 40t-12 49.5q0 11 1 49q2 96 2 97q2 3 3 26q-1 36 -11.5 58.5t-26.5 22.5q-74 0 -98 -247l-1 1q-5 -74 -1 -86q0 -4 -0.5 -6.5t-4 -4.5t-6.5 -2.5t-11 -2.5l-47 2q-12 -5 -22.5 -1.5t-12.5 21.5q-2 10 -2.5 33.5
t-1 54.5t-0.5 39q-2 65 7 220q1 11 12 13q16 8 44 -12.5t33 -51.5q5 -23 8 -58q25 68 64 98q21 16 42 22t38 3t29.5 -8.5t20.5 -13.5q28 -22 41 -84v0q6 -27 5 -61q0 -22 -2 -66v-15.5v-15.5q-1 -6 -1 -15q-1 -31 9.5 -52t28.5 -22q17 -1 34.5 30t28.5 97z" />
    <glyph glyph-name="ograve" unicode="&#xf2;" horiz-adv-x="359" 
d="M169 463q-14 17 -70 88q-9 12 1 21.5t33 9.5q48 0 59 -21q15 -28 40 -88q7 -15 -18 -19q-31 -4 -45 9zM337 300q9 -33 7 -55q0 -37 -6 -68l-1 -5q-3 -14 -7 -24q-6 -19 -14 -30q-2 -4 -4 -6q-18 -35 -54 -55t-80 -20q-48 0 -91.5 28t-61.5 87l-5 19q-4 20 -5 46
q-3 21 1 47l1 9q3 14 5 19q4 13 5 15q11 36 30.5 62t38 39t40.5 20.5t33.5 9t21.5 1.5h5q45 -2 74 -24q3 -2 8 -6l-1 -1q2 -1 4 -2.5t4 -3.5t4 -4.5t4 -4t3 -3t2 -2.5l1 -1q7 -9 12 -19q14 -23 20 -43zM318 233q0 3 -0.5 14.5t-1.5 23t-1 13.5q-3 16 -9 34q-9 28 -18 41
q-4 9 -20 26q-6 7 -14 13q-7 4 -13 7q-5 2 -6 3q-3 2 -8 2q-6 1 -16 1h-8t-8 -1q-29 -11 -46 -26q-59 -77 -51 -156l1 -4q0 -9 2 -21l3 -20q2 -10 3 -18q3 -11 12 -27q1 0 3 -4l5 -10q18 -36 48 -49q6 -3 13 -4t11 -1h5q11 0 22 4q48 16 74 70q5 11 7 15q5 17 8 35
q2 20 2 34z" />
    <glyph glyph-name="oacute" unicode="&#xf3;" horiz-adv-x="359" 
d="M224 463q-12 -13 -43 -9q-23 2 -22 15q0 2 1 4q25 60 40 88q12 21 59 21q24 0 34 -9.5t1 -21.5q-57 -73 -70 -88zM337 300q9 -33 7 -55q0 -37 -6 -68l-1 -5q-3 -14 -7 -24q-6 -19 -14 -30q-2 -4 -4 -6q-18 -35 -54 -55t-80 -20q-48 0 -91.5 28t-61.5 87l-5 19
q-4 20 -5 46q-3 21 1 47l1 9q3 14 5 19q4 13 5 15q11 36 30.5 62t38 39t40.5 20.5t33.5 9t21.5 1.5h5q45 -2 74 -24q3 -2 8 -6l-1 -1q2 -1 4 -2.5t4 -3.5t4 -4.5t4 -4t3 -3t2 -2.5l1 -1q7 -9 12 -19q14 -23 20 -43zM318 233q0 5 -1 26t-2 25q-3 16 -9 34q-9 28 -18 41
q-4 9 -20 26q-6 7 -14 13q-7 4 -13 7q-5 2 -6 3q-3 2 -8 2q-6 1 -16 1h-8q-3 0 -8 -1q-29 -11 -46 -26q-59 -77 -51 -156l1 -4q0 -9 2 -21l3 -20q2 -10 3 -18q3 -11 12 -27q1 0 3 -4l5 -10q18 -36 48 -49q6 -3 13 -4t11 -1h5q11 0 22 4q48 16 74 70q5 11 7 15q5 17 8 35
q2 20 2 34z" />
    <glyph glyph-name="ocircumflex" unicode="&#xf4;" horiz-adv-x="359" 
d="M102 452q-15 0 -23 10t0 20q4 5 31.5 39t37.5 46q9 11 18 11h52q13 0 22 -12q58 -69 71 -86q10 -13 -14 -22q-32 -10 -48 6l-56 70q-45 -63 -51 -68q-14 -14 -40 -14zM337 300q9 -33 7 -55q0 -37 -6 -68l-1 -5q-3 -14 -7 -24q-6 -19 -14 -30q-2 -4 -4 -6q-18 -35 -54 -55
t-80 -20q-48 0 -91.5 28t-61.5 87l-5 19q-4 20 -5 46q-3 21 1 47l1 9q3 14 5 19q4 13 5 15q11 36 30.5 62t38 39t40.5 20.5t33.5 9t21.5 1.5h5q45 -2 74 -24q3 -2 8 -6l-1 -1q4 -2 9.5 -7.5t8.5 -9.5t4 -4q7 -9 12 -19q14 -23 20 -43zM318 233q0 5 -1 26t-2 25q-3 16 -9 34
q-9 28 -18 41q-4 9 -20 26q-6 7 -14 13q-7 4 -13 7q-5 2 -6 3q-3 2 -8 2q-6 1 -16 1h-8q-3 0 -8 -1q-29 -11 -46 -26q-59 -77 -51 -156l1 -4q0 -9 2 -21l3 -20q2 -10 3 -18q3 -11 12 -27q1 0 3 -4l5 -10q18 -36 48 -49q6 -3 13 -4t11 -1h5q11 0 22 4q48 16 74 70q5 11 7 15
q5 17 8 35q2 20 2 34z" />
    <glyph glyph-name="otilde" unicode="&#xf5;" horiz-adv-x="360" 
d="M64 469q-4 4 -11 17l-1 1q-10 16 4 28q36 30 73 35q29 4 79 -15t62 -19q13 1 38 17q12 7 18 -7l10 -28q5 -16 -8 -25q-26 -19 -64 -17q-23 1 -65.5 17.5t-52.5 16.5q-24 0 -53 -26q-14 -13 -29 5zM337 300q9 -33 7 -55q0 -37 -6 -68l-1 -5q-3 -14 -7 -24q-6 -19 -14 -30
q-2 -4 -4 -6q-18 -35 -54 -55t-80 -20q-48 0 -91.5 28t-61.5 87l-5 19q-4 20 -5 46q-3 21 1 47l1 9q3 14 5 19q4 13 5 15q11 36 30.5 62t38 39t40.5 20.5t33.5 9t21.5 1.5h5q45 -2 74 -24q3 -2 8 -6l-1 -1q2 -1 4 -2.5t4 -3.5t4 -4.5t4 -4t3 -3t2 -2.5l1 -1q7 -9 12 -19
q14 -23 20 -43zM318 233q0 5 -1 26t-2 25q-3 16 -9 34q-9 28 -18 41q-4 9 -20 26q-6 7 -14 13q-7 4 -13 7q-5 2 -6 3q-3 2 -8 2q-6 1 -16 1h-8q-3 0 -8 -1q-29 -11 -46 -26q-59 -77 -51 -156l1 -4q0 -9 2 -21l3 -20q2 -10 3 -18q3 -11 12 -27q1 0 3 -4l5 -10q18 -36 48 -49
q6 -3 13 -4t11 -1h5q11 0 22 4q48 16 74 70q5 11 7 15q5 17 8 35q2 20 2 34z" />
    <glyph glyph-name="odieresis" unicode="&#xf6;" horiz-adv-x="359" 
d="M123 454q-19 0 -32.5 13.5t-13.5 32.5t13.5 32.5t32.5 13.5t33 -13.5t14 -32.5t-14 -32.5t-33 -13.5zM257.5 454q-19.5 0 -33 13.5t-13.5 32.5t13.5 32.5t33 13.5t33 -13.5t13.5 -32.5t-13.5 -32.5t-33 -13.5zM337 300q9 -33 7 -55q0 -37 -6 -68l-1 -5q-3 -14 -7 -24
q-6 -19 -14 -30q-2 -4 -4 -6q-18 -35 -54 -55t-80 -20q-48 0 -91.5 28t-61.5 87l-5 19q-4 20 -5 46q-3 21 1 47l1 9q3 14 5 19q4 13 5 15q11 36 30.5 62t38 39t40.5 20.5t33.5 9t21.5 1.5h5q45 -2 74 -24q3 -2 8 -6l-1 -1q4 -2 9.5 -7.5t8.5 -9.5t4 -4q7 -9 12 -19
q14 -23 20 -43zM318 233q0 5 -1 26t-2 25q-3 16 -9 34q-9 28 -18 41q-4 9 -20 26q-6 7 -14 13q-7 4 -13 7q-5 2 -6 3q-3 2 -8 2q-6 1 -16 1h-8t-8 -1q-29 -11 -46 -26q-59 -77 -51 -156l1 -4q0 -9 2 -21l3 -20q2 -10 3 -18q3 -11 12 -27q1 0 3 -4l5 -10q18 -36 48 -49
q6 -3 13 -4t11 -1h5q11 0 22 4q48 16 74 70q5 11 7 15q5 17 8 35q2 20 2 34z" />
    <glyph glyph-name="oslash" unicode="&#xf8;" horiz-adv-x="363" 
d="M331 350l6 -25q8 -32 7 -55q0 -37 -6 -68l-1 -5q-3 -14 -7 -24q-6 -19 -14 -30q-2 -4 -4 -6q-18 -35 -54 -55t-80 -20q-34 0 -66 14l-15 -22q-17 -25 -33 -15q-15 11 -1 33l16 24q-39 31 -54 81l-5 19q-4 20 -5 46q-3 21 1 47l1 9q3 14 5 19q4 13 5 15q11 36 30.5 62
t38 39t40.5 20.5t33.5 9t21.5 1.5h5q45 -2 74 -24q3 -2 8 -6l-1 -1q7 -4 16 -15l7 11q21 33 39 20q14 -10 4 -33l-3 -4l-22 -32q8 -15 13 -30zM119 163l2 -3l158 237q-8 10 -11 13q-6 7 -14 13q-7 4 -14 7q-4 2 -5 3q-3 2 -8 2q-6 1 -16 1h-8q-3 0 -8 -1q-29 -11 -46 -26
q-59 -77 -51 -156v-4q0 -9 2 -21l3 -20q2 -10 4 -18q4 -12 12 -27zM318 258q0 5 -1 26t-2 25q-3 16 -9 34l-4 12l-158 -232q12 -15 31 -23q6 -3 13 -4t11 -1h5q11 0 22 4q47 16 74 70q5 11 7 15q5 17 8 35q2 20 2 34z" />
    <glyph glyph-name="ugrave" unicode="&#xf9;" horiz-adv-x="441" 
d="M183 462q-11 0 -14 2q-39 36 -86 95q1 3 7 6t18.5 5.5t27.5 2.5q48 0 59 -22q26 -47 37 -78q-2 -3 -17.5 -7t-31.5 -4zM462 142q1 5 10 4t9 -6q-2 -18 -5 -35.5t-11 -40.5t-19 -41t-30 -31t-42 -15q-37 -2 -63 14.5t-37.5 40.5t-11.5 50v12q0 10 1 33q-47 -89 -129 -89
h-0.5h-1.5q-32 2 -55.5 14.5t-34 26t-16 33.5t-6 26.5t-0.5 15.5q0 5 1 70.5t2 66.5l0.5 12.5t1 26t0.5 15.5q-1 40 76 39q7 0 12.5 -5t5.5 -13q0 -19 0.5 -63.5t1 -69.5t-0.5 -44q-1 -4 -0.5 -18.5t0.5 -20.5q-1 -34 12.5 -59t40.5 -19q22 0 53.5 41.5t37.5 89.5q1 24 1 25
v17.5t0.5 42t1 50t1 44t0.5 19.5q0 11 22.5 20t44.5 7t22 -17l2 -14l2 -14q0 -11 -1 -85.5t-2 -139.5t-1 -69q-1 -29 11 -51t31 -23q17 -1 34.5 30t28.5 97z" />
    <glyph glyph-name="uacute" unicode="&#xfa;" horiz-adv-x="441" 
d="M219 464q-3 -2 -14.5 -2t-22.5 2t-18 5t-9 5q13 33 37 77q12 22 60 22q14 0 27 -2.5t19 -5.5t7 -5q-49 -61 -86 -96zM462 142q1 5 10 4t9 -6q-2 -18 -5 -35.5t-11 -40.5t-19 -41t-30 -31t-42 -15q-37 -2 -63 14.5t-37.5 40.5t-11.5 50v12q0 10 1 33q-47 -89 -129 -89
h-0.5h-1.5q-32 2 -55.5 14.5t-34 26t-16 33.5t-6 26.5t-0.5 15.5q0 5 1 70.5t2 66.5v5t0.5 12.5t0.5 15t0.5 14t0.5 7.5q-1 40 76 39q7 0 12.5 -5t5.5 -13q0 -19 0.5 -63.5t1 -69.5t-0.5 -44q-1 -4 -0.5 -18.5t0.5 -20.5q-1 -34 12.5 -59t40.5 -19q22 0 53.5 41.5t37.5 89.5
q1 24 1 25v17.5t0.5 42t1 50t1 44t0.5 19.5q0 11 22.5 20t44.5 7t22 -17l2 -14l2 -14q0 -11 -1 -85.5t-2 -139.5t-1 -69q-1 -29 11 -51t31 -23q17 -1 34.5 30t28.5 97z" />
    <glyph glyph-name="ucircumflex" unicode="&#xfb;" horiz-adv-x="441" 
d="M112 446q-16 0 -24 9.5t0 20.5q6 7 20.5 25t28 34.5t20.5 25.5q9 10 18 10h52q14 0 22 -11q59 -69 72 -87q9 -12 -15 -21q-31 -11 -47 6l-56 70q-46 -63 -51 -68q-14 -14 -40 -14zM462 142q1 5 10 3.5t9 -5.5q-2 -18 -5 -35.5t-11 -41t-19 -41t-30 -30.5t-42 -15
q-37 -3 -63 13.5t-37.5 40.5t-11.5 50v13q0 10 1 33q-47 -89 -129 -89h-0.5h-1.5q-32 2 -55.5 14.5t-34 26t-16 33t-6 26t-0.5 16.5q0 4 1 69.5t2 66.5v5.5t0.5 13t0.5 15t0.5 14t0.5 7.5q-1 40 76 39q7 0 12.5 -5t5.5 -13q0 -19 0.5 -63.5t1 -69.5t-0.5 -44
q-1 -4 -0.5 -18.5t0.5 -20.5q-1 -21 4 -40t18 -31t31 -7q22 0 53.5 41t37.5 90l1 24v17.5t0.5 42.5l1 50t1 43.5t0.5 20.5q0 11 22.5 19.5t44.5 6.5t22 -16l2 -14.5l2 -14.5q0 -10 -1 -84.5t-2 -140t-1 -68.5q-1 -30 11 -51.5t31 -22.5q17 -1 34.5 30t28.5 97z" />
    <glyph glyph-name="udieresis" unicode="&#xfc;" horiz-adv-x="441" 
d="M119 446q-19 0 -32.5 13.5t-13.5 32.5t13.5 32.5t32.5 13.5t32.5 -13.5t13.5 -32.5t-13.5 -32.5t-32.5 -13.5zM253 446q-19 0 -32.5 13.5t-13.5 32.5t13.5 32.5t32.5 13.5t32.5 -13.5t13.5 -32.5t-13.5 -32.5t-32.5 -13.5zM462 142q1 5 10 3.5t9 -5.5q-2 -18 -5 -35.5
t-11 -41t-19 -41t-30 -30.5t-42 -15q-54 -4 -83 29t-29 75v13q0 10 1 33q-47 -89 -129 -89h-0.5h-1.5q-32 2 -55.5 14.5t-34 26t-16 33t-6 26t-0.5 16.5q0 4 1 69.5t2 66.5v5.5t0.5 13t0.5 15t0.5 14t0.5 7.5q-1 40 76 39q7 0 12.5 -5t5.5 -13q0 -19 0.5 -63.5t1 -69.5
t-0.5 -44q-1 -4 -0.5 -18.5t0.5 -20.5q-1 -34 12.5 -59t40.5 -19q22 0 53.5 41t37.5 90l1 24v17.5t0.5 42.5l1 50t1 43.5t0.5 20.5q0 11 22.5 19.5t44.5 6.5t22 -16l2 -14.5l2 -14.5q0 -10 -1 -84.5t-2 -140t-1 -68.5q-1 -30 11 -51.5t31 -22.5q17 -1 34.5 30t28.5 97z" />
    <glyph glyph-name="yacute" unicode="&#xfd;" horiz-adv-x="388" 
d="M254 469q-12 -13 -43 -9q-23 3 -22 15q0 2 1 4q25 60 40 88q12 21 59 21q24 0 34 -9.5t1 -21.5q-57 -72 -70 -88zM362 158q0 -4 0.5 -46.5t-0.5 -68.5q-2 -45 -11 -87t-28 -83t-53.5 -67t-81.5 -30q-14 -1 -29 2q-12 2 -24.5 6t-19 7.5t-8.5 4.5l-10.5 7t-19.5 18t-19 28
q-10 20 -13 38q-1 7 6 9.5t15 -0.5t9 -9t4 -14l3 -8q9 -25 23 -34q21 -20 44 -22q109 -8 107 341q-29 -49 -71 -54q-62 -6 -111.5 33t-54.5 95q-8 79 -3 121q1 8 3 26.5t3.5 34t3.5 25.5q0 4 4 7.5t9 4.5q13 2 39.5 -10.5t41.5 -26.5q5 -5 5 -35.5t-2 -74t-1 -61.5
q2 -51 16.5 -70.5t50.5 -19.5q32 0 49 36t15 76q-2 38 -2 42q0 33 2 51q2 16 23 24t44 1.5t29 -25.5q7 -24 11.5 -91t1.5 -101z" />
    <glyph glyph-name="ydieresis" unicode="&#xff;" horiz-adv-x="388" 
d="M143 460q-19 0 -33 13.5t-14 32.5t14 32.5t33 13.5t32.5 -13.5t13.5 -32.5t-13.5 -32.5t-32.5 -13.5zM277 460q-19 0 -32.5 13.5t-13.5 32.5t13.5 32.5t32.5 13.5t32.5 -13.5t13.5 -32.5t-13.5 -32.5t-32.5 -13.5zM362 158q0 -4 0.5 -46.5t-0.5 -68.5q-2 -45 -11 -87
t-28 -83t-53.5 -67t-81.5 -30q-14 -1 -29 2q-12 2 -24.5 6t-19 7.5t-8.5 4.5l-10.5 7t-19.5 18t-19 28q-10 20 -13 38q-1 7 6 9.5t15 -0.5t9 -9t4 -14l3 -8q9 -25 23 -34q21 -20 44 -22q109 -8 107 341q-29 -49 -71 -54q-41 -4 -78 13t-61 48t-27 67q-8 79 -3 121
q1 8 3 26.5t3.5 34t3.5 25.5q0 4 4 7.5t9 4.5q13 2 39.5 -10.5t41.5 -26.5q5 -5 5 -35.5t-2 -74t-1 -61.5q2 -51 16.5 -70.5t50.5 -19.5q32 0 49 36t15 76q-2 38 -2 42q0 33 2 51q2 16 23 24t44 1.5t29 -25.5q7 -24 11.5 -91t1.5 -101z" />
    <glyph glyph-name="dotlessi" unicode="&#x131;" horiz-adv-x="201" 
d="M222 200q1 5 10.5 4t8.5 -6q-2 -23 -7 -45.5t-16.5 -50.5t-33 -46t-50.5 -21q-49 -3 -77.5 25t-32.5 68q-2 11 -2 23v3v0q1 129 3 134l0.5 23.5t1 48t0.5 27.5q0 22 22.5 32.5t45 2.5t22.5 -31l1.5 -11.5l1.5 -11.5q-1 -18 1 -88t1 -87v-15v-16v-5v-10v-3v-2v-1
q0 -28 10 -47.5t27 -20t34.5 30t28.5 96.5z" />
    <glyph glyph-name="OE" unicode="&#x152;" horiz-adv-x="928" 
d="M934 47q2 -9 -7 -11q-6 -3 -36.5 -9t-41.5 -6q-23 -3 -44 -4q-5 -1 -31 -0.5t-29 1.5q-40 -6 -72.5 -6t-53.5 3.5t-37 12t-24 16t-13 18.5t-6 16.5t-3 13.5v4t-2 12q-25 -42 -67 -71.5t-91 -42t-102 -7t-100 27.5t-85.5 67t-57.5 107q-3 14 -6.5 31t-4.5 21.5t-2.5 15
t-2 20l-1.5 28.5q-5 40 1 85q9 45 10 51q7 22 9 26q16 50 40 90t52 65t57 42.5t58.5 25.5t51.5 11t42 2q78 -3 131 -43q3 -2 12 -10l3 -2.5t7.5 -7l9.5 -9.5t9.5 -10t6.5 -8q11 -13 20 -30q1 4 1 9q1 5 2.5 19t3 27.5t3.5 28.5t3 24q1 4 5 8t9 4q10 1 31 -1t41.5 -5.5
t27.5 -7.5h1q18 2 27 2q11 0 25 2q26 4 54 5h68q4 0 30 -0.5t31 -1.5q5 0 6 -1.5t1 -5.5l-1 -14q0 -9 -9 -9q-3 1 -17 -0.5t-30.5 -3t-20.5 -1.5q-30 -1 -40 -1q-4 -1 -30.5 -6t-27.5 -5q-3 1 -63 -7q-6 -48 -8 -60q1 -82 -5 -102q-8 -25 -6 -55q2 -17 2 -42q9 -1 16 0
q22 3 42 3q13 0 29.5 0.5t24.5 0.5q2 0 24 0.5t24 1.5q4 0 5 -1t1.5 -2.5t0.5 -4.5v-18q1 -10 -6 -11q-33 0 -58 -2q-22 -2 -33 -2h-23h-21q-1 0 -25 -1q0 -26 -1 -38q-2 -34 0 -81.5t2 -63.5q0 -3 1 -10.5t5 -21.5t10.5 -26t20.5 -21.5t31 -11.5q3 0 8.5 -0.5t10 -1
t7.5 -0.5q7 0 50.5 -2t83 -3.5t42.5 -0.5q6 1 7.5 0.5t2.5 -4.5zM525 186q-5 55 -5 94q0 5 0.5 24.5t2 40.5t3 39t2.5 21q0 2 0.5 19.5t1 46.5t1.5 52q-12 27 -21 40q-2 6 -17.5 25t-17.5 22q-12 14 -27 25q-12 7 -23 12t-12 6q-8 5 -20 6q-22 4 -45 2q-7 -1 -15 -2
q-57 -20 -88 -49l-4 -4q-21 -27 -37 -55t-26 -51.5t-16.5 -47.5t-9 -42t-3.5 -35.5t-0.5 -27.5t1.5 -19.5t1 -10.5q0 -17 4 -39q1 -6 2.5 -17.5t2.5 -16.5q4 -20 7 -33q5 -21 21 -51q3 -3 5 -7q1 -3 2 -4q2 -3 9 -17t13 -23t16.5 -22.5t26 -24.5t34.5 -20q12 -5 29 -8
q15 -2 29 -1q21 0 43 8q84 27 133 121q-2 21 -3 24z" />
    <glyph glyph-name="oe" unicode="&#x153;" horiz-adv-x="661" 
d="M683 229q4 0 10.5 -4t7.5 -7q0 -2 -2 -7q-1 -1 -7 -13t-12 -23t-18 -28t-25 -31.5t-32.5 -29.5t-40.5 -26l-3 -1l-12 -7h-1q-53 -16 -93.5 -14.5t-61.5 14.5q-53 31 -68 88q-5 -12 -9 -17q-2 -4 -4 -6q-18 -35 -54 -55t-80 -20q-48 0 -91.5 28.5t-61.5 86.5l-5 20
q-4 19 -5 45q-3 21 1 47l1 9q3 14 5 19q4 13 5 15q11 36 30.5 62t38 39t40.5 20.5t33.5 9t21.5 1.5h5q45 -2 74 -24q3 -2 8 -6l-1 -1q2 -1 4 -2.5t4 -3.5t4 -4.5t4 -4t3 -3t2 -2.5l1 -1q7 -9 12 -19q14 -23 20 -43l6 -25q2 -5 3 -14q2 5 4 8q16 29 37 54q47 55 118 76
q40 12 83 -1q29 -9 44.5 -34.5t9.5 -54.5q-11 -61 -70 -94.5t-145 -31.5q-1 -1 -1 -4v-7.5t0.5 -10t2.5 -10.5q26 -104 98 -103q42 1 98 54q9 9 19 24t17 27t14.5 25.5t8.5 15.5q3 4 5 5zM547 400q-44 6 -81.5 -44.5t-43.5 -125.5q83 18 115 44q19 15 30 33t12.5 33.5t-2 29
t-11.5 21.5t-19 9zM318 238q0 5 -1 26t-2 25q-3 16 -9 34q-9 28 -18 41q-4 9 -20 26q-6 7 -14 13q-7 4 -13 7q-5 2 -6 3q-3 2 -8 2q-6 1 -16 1h-8t-8 -1q-29 -11 -46 -26q-59 -77 -51 -156l1 -4q0 -9 2 -21l3 -20q2 -10 4 -18q2 -11 11 -27q1 0 3 -4l5 -10q18 -36 48 -49
q6 -3 13 -4t11 -1h5q11 0 22 4q48 16 74 70q6 11 7 15q5 17 8 35q2 20 3 34v5z" />
    <glyph glyph-name="Scaron" unicode="&#x160;" horiz-adv-x="402" 
d="M174 755q-59 69 -72 86q-9 13 15 22q32 10 47 -6l56 -70q46 63 51 68q15 14 40 14q16 0 24 -10t0 -20q-4 -5 -31.5 -39t-37.5 -46q-9 -11 -18 -11h-52q-14 0 -22 12zM334 300q35 -46 46 -89q0 -1 1.5 -6.5t3 -14t1.5 -17.5q2 -40 -11 -72q-13 -39 -46 -66l-1 -1l-2 -2
q-27 -26 -70 -41q-18 -7 -44 -11q-20 -3 -40 -4q-36 1 -62 13q-26 10 -47 36q-1 1 -5 6.5t-9 14t-10 21.5t-7 27q-6 30 -1.5 57.5t14.5 46.5q16 28 25 37q18 22 38 32q10 6 13 5q5 -2 9 -10.5t2 -12.5q-1 -3 -8 -8q-34 -21 -51 -56q-6 -16 -9 -30.5t-3.5 -22t0 -17
t0.5 -12.5q2 -26 14 -42q9 -19 35 -37q15 -9 38 -14q9 -1 19 -2h1q21 -1 49 4q7 2 20 6q33 19 47 67q6 18 3 38.5t-7.5 36.5t-16 34t-21.5 31t-23.5 27t-23 22.5t-19.5 17.5t-13 11q-43 42 -49 52q-57 49 -80.5 106.5t-18.5 92.5q7 52 30.5 88t52.5 52t63 22t60.5 3.5
t48.5 -9.5h1q23 -5 30 -11q20 -12 33.5 -23.5t20 -21t15.5 -25.5q10 -15 14 -40q5 -26 0 -46q-1 -9 -3 -10.5t-5 0.5l-14 4q-9 2 -7 12q4 16 -2 40t-18 40q-11 14 -17 19q-10 9 -18 14q-8 8 -30 16q-11 4 -30 7q-1 0 -7 1v-1q-38 2 -67.5 -18t-41 -51.5t-2.5 -72.5t42 -78
q12 -12 50 -45t47 -42q51 -50 73 -78z" />
    <glyph glyph-name="scaron" unicode="&#x161;" horiz-adv-x="249" 
d="M80 470q-58 69 -71 87q-9 12 15 21q31 11 47 -6l56 -70q45 63 51 68q14 14 40 14q16 0 24 -9.5t0 -20.5q-4 -4 -31.5 -38.5t-37.5 -46.5q-9 -10 -18 -10h-52q-14 0 -23 11zM143 255l14.5 -14.5t27.5 -29t29 -35.5t23.5 -42.5t5.5 -42.5q-2 -26 -14 -45q-12 -24 -36 -39
q-12 -9 -34 -16.5t-34 -10.5q-26 -4 -54 -1q-40 7 -57 30q-7 9 -4 18.5t11.5 11.5t16.5 -5q12 -12 32 -16q55 -10 71 28q21 47 -45 125q-3 3 -17 22.5t-15 22.5q-30 34 -39.5 72.5t-2.5 60.5q8 28 22.5 47t31.5 28t31 12t28 3q3 0 8 -0.5t6 -0.5q12 -1 16 -11t-2 -19.5
t-18 -10.5q-23 -1 -37 -27q-21 -39 10 -85q6 -8 25 -30z" />
    <glyph glyph-name="Ydieresis" unicode="&#x178;" horiz-adv-x="451" 
d="M153 743q-19 0 -32.5 13.5t-13.5 33t13.5 33t32.5 13.5t32.5 -13.5t13.5 -33t-13.5 -33t-32.5 -13.5zM287 743q-19 0 -32.5 13.5t-13.5 33t13.5 33t32.5 13.5t32.5 -13.5t13.5 -33t-13.5 -33t-32.5 -13.5zM427 517q0 -55 -3 -93v-36t-0.5 -58.5t-1.5 -30.5
q-1 -2 -3 -24.5t-5.5 -53.5t-8.5 -52q-2 -8 -7.5 -24t-9.5 -28q0 -2 -2.5 -8t-9 -16t-14.5 -21t-21 -22.5t-27.5 -20t-34.5 -14.5t-42 -6q-79 0 -123 45q-16 17 -1 33q12 14 25 3l4.5 -4.5t8.5 -8t10.5 -7.5t15 -7.5t17.5 -4.5q32 -5 55 18.5t35.5 69t18 94.5t6.5 108
q-11 -23 -20 -36q-16 -24 -33 -38q-7 -6 -18 -13q-20 -15 -55 -20q-21 -3 -42 1.5t-42 17t-37.5 32t-27.5 50.5t-13 69q-3 34 -3 41v2.5v1.5q0 4 -0.5 11.5t-0.5 11.5q-1 -5 -2 6q-5 63 0 114q0 8 2 27t4 34.5t3 24.5q1 5 5 8.5t8 3.5q15 2 42.5 -9.5t38.5 -27.5
q6 -17 5.5 -38.5t-2.5 -62t-1 -57.5q1 -24 -1 -104q2 -40 13.5 -68t25.5 -39t30 -11q3 2 8 2q101 6 110 240q-1 23 -1 28v27v35.5t0.5 36.5t1.5 29q3 25 45 11q44 -14 62 -46q3 -5 5 -10q4 -13 5.5 -32t2 -34t0.5 -31v-19z" />
    <glyph glyph-name="Zcaron" unicode="&#x17d;" horiz-adv-x="530" 
d="M295 755q-59 69 -71 86q-10 13 14 22q32 10 48 -6l55 -70q46 63 52 68q14 14 39 14q16 0 24 -10t0 -20q-4 -5 -31.5 -39t-37.5 -46q-9 -11 -18 -11h-52q-14 0 -22 12zM287 290q-20 -27 -37.5 -52.5t-31.5 -46.5t-27 -39q-1 -2 -6 -9t-12 -17.5t-14.5 -22t-16.5 -25
l-15 -22.5q17 0 27 -1q16 -1 36 0q40 3 60 3h80h66q2 0 30 0.5t33 0.5q6 0 8.5 -1t2.5 -2.5v-4.5v-18q0 -3 -0.5 -5t-3.5 -3.5t-8 -1.5q-3 0 -37 -1t-45 -1q-25 -1 -105 -2q-5 0 -32.5 0.5t-30.5 0.5q-2 0 -34.5 -0.5t-66 -1.5t-35.5 -1q-15 -1 -27.5 -1h-17.5l-6 1
q-26 0 -29 24.5t16 53.5q3 4 25.5 38.5t45 68.5t29.5 46q33 55 54 87q9 13 44 60.5t39 50.5q2 2 24 36.5t50.5 76.5t44.5 61q3 4 14 18t17 22q-32 -2 -43 0q-13 2 -28 1q-31 -3 -60 -2h-29t-25.5 0.5t-21.5 0.5h-22.5h-42h-24.5q-7 0 -8 1.5t-1 6.5v18q1 10 10 10h49.5
t54.5 1q29 1 45 0q51 0 62 -1q1 0 19 0.5t41 0.5h34h20q4 4 42.5 3.5t43.5 -3.5q14 0 20.5 -9.5t5.5 -22t-3.5 -23t-4.5 -13.5q-29 -33 -67 -82q-49 -79 -66 -95q-22 -19 -38 -49q-33 -61 -71 -113z" />
    <glyph glyph-name="zcaron" unicode="&#x17e;" horiz-adv-x="297" 
d="M144 458q-59 69 -71 86q-10 12 14 21q32 11 48 -6l55 -69q46 62 52 68q14 13 39 13q16 0 24 -9.5t0 -19.5q-4 -5 -31.5 -39.5t-37.5 -45.5q-9 -11 -18 -11h-52q-14 0 -22 12zM334 138q6 -6 -1 -14q-15 -15 -33 -29q-20 -16 -41 -26q-24 -12 -48 -18q-63 -17 -166 -3
q-27 4 -35.5 29t9.5 47q10 12 23 27.5t22 26t16.5 19.5t9.5 11q20 28 27 37q2 2 6 7t8 10.5t8 10t4 5.5q3 2 38 51q36 49 14 62q-2 1 -6 2t-8.5 1h-9.5t-8.5 -0.5t-6 -0.5h-2.5q-6 2 -86 -4q-2 0 -5.5 -0.5t-7.5 -0.5t-8.5 -0.5l-9 -1t-7.5 -0.5q-4 0 -5 3q-1 5 -1 16t1 15
q2 2 5 3q111 5 117 5q10 1 17.5 1t18 -0.5t12.5 -0.5q75 -1 96 -25q17 -20 -16 -84q-64 -123 -125 -188q-17 -18 -17.5 -33t13.5 -18q16 -5 47 0q31 4 68 23l3 2t6.5 4t8 5.5t8.5 6.5q3 2 26 24q6 6 11 2z" />
    <glyph glyph-name="endash" unicode="&#x2013;" horiz-adv-x="484" 
d="M423 170q34 0 40 -30q6 -25 -11 -36q-6 -4 -13 -4l-379 4q-36 0 -41 28q-3 22 14 31q6 3 12 3z" />
    <glyph glyph-name="emdash" unicode="&#x2014;" horiz-adv-x="588" 
d="M517 170q42 0 51 -30q6 -24 -14 -35q-7 -5 -17 -5l-467 4q-44 0 -50 28q-5 21 15 31l16 3z" />
    <glyph glyph-name="quoteleft" unicode="&#x2018;" horiz-adv-x="136" 
d="M109 538q-6 -8 -13 -27t-8 -21.5t6.5 -10.5t13 -19t-2.5 -33v-1q-14 -31 -50 -25q-8 3 -16 11q-4 4 -7 9l-4 9q-5 15 -5 20t1 17q0 4 5.5 21t7.5 18q0 1 5.5 11t12 21.5t10.5 16.5q3 5 14 22q2 2 7 0q11 -5 21.5 -16.5t1.5 -22.5z" />
    <glyph glyph-name="quoteright" unicode="&#x2019;" horiz-adv-x="135" 
d="M108 548q4 -15 4.5 -20t-0.5 -17q0 -4 -5.5 -21t-7.5 -19l-5.5 -10t-12 -21.5t-10.5 -16.5q-3 -5 -15 -22q-1 -2 -6 0q-11 4 -21.5 16t-1.5 23q6 8 13 27t8 21t-3.5 7t-10 11.5t-8 17.5t3.5 26q0 1 1 2q14 31 50 25q8 -3 16 -11q4 -4 7 -9z" />
    <glyph glyph-name="quotesinglbase" unicode="&#x201a;" horiz-adv-x="129" 
d="M103 89q4 -15 4.5 -20t-0.5 -17q0 -4 -5.5 -21t-7.5 -19q-1 0 -6 -10t-11.5 -21.5t-10.5 -16.5q-3 -5 -15 -22q-1 -2 -6 0q-11 4 -21.5 16t-1.5 23q6 8 13 27t8 21t-6.5 10t-13 19t1.5 34q16 31 51 26q8 -3 16 -11q4 -4 7 -9q0 -1 1.5 -3t2 -4z" />
    <glyph glyph-name="quotedblleft" unicode="&#x201c;" horiz-adv-x="231" 
d="M86 577q11 -4 21.5 -16t1.5 -23q-6 -8 -13 -27t-8 -21q-1 -3 6.5 -11t13 -19t-2.5 -33v-1q-14 -31 -50 -25q-8 3 -16 11q-4 4 -7 9l-4 9q-5 15 -5 20t1 17q0 4 5.5 21t7.5 18q0 1 5.5 11t12 21.5t10.5 16.5q3 5 14 22q2 2 7 0zM204 538q-6 -8 -13 -27t-8 -21q-2 -3 6 -11
t13.5 -19t-2.5 -33v-1q-14 -31 -50 -25q-8 3 -16 11q-4 4 -7 9q-1 0 -2 2.5t-1.5 4.5l-0.5 2q-5 15 -5 20t1 17q0 4 5.5 21t7.5 18q0 1 3.5 7.5t7.5 14t9 15.5t8 12q3 5 14 22q2 2 7 0q11 -5 21.5 -16.5t1.5 -22.5z" />
    <glyph glyph-name="quotedblright" unicode="&#x201d;" horiz-adv-x="230" 
d="M104 557q0 -1 1.5 -3t2 -4l0.5 -2q4 -15 4.5 -20t-0.5 -17q0 -4 -5.5 -21t-7.5 -19l-5.5 -10t-12 -21.5t-10.5 -16.5q-3 -5 -15 -22q-1 -2 -6 0q-11 4 -21.5 16t-1.5 23q6 8 13 27t8 21t-3.5 7t-10 11.5t-8 18t3.5 26.5l1 1q14 31 50 25q8 -3 16 -11q4 -4 7 -9zM203 548
q4 -15 4.5 -20t-0.5 -17q0 -4 -5.5 -21t-7.5 -19l-2 -3t-4 -7.5t-5 -10t-6 -10.5t-6 -9.5l-5 -7.5q-3 -5 -15 -22q-1 -2 -6 0q-11 4 -21.5 16t-1.5 23q4 6 8 14.5t7.5 18.5t5.5 15q1 2 -3.5 7t-10 11.5t-8 17.5t3.5 26q0 1 1 2q14 31 50 25q8 -3 16 -11q4 -4 7 -9
q0 -1 1.5 -3t2 -4z" />
    <glyph glyph-name="quotedblbase" unicode="&#x201e;" horiz-adv-x="224" 
d="M99 98q0 -1 1.5 -3t2 -4l0.5 -2q4 -15 4.5 -20t-0.5 -17q0 -4 -5.5 -21t-7.5 -19l-5.5 -10t-12 -21.5t-10.5 -16.5q-3 -5 -15 -22q-1 -2 -6 0q-11 4 -21.5 16t-1.5 23q6 8 13 27t8 21t-6.5 10t-13 19.5t1.5 33.5l1 1q14 31 50 25q8 -3 16 -11q4 -4 7 -9zM198 89
q4 -15 4.5 -20t-0.5 -17q0 -4 -5.5 -21t-7.5 -19l-5.5 -10t-12 -21.5t-10.5 -16.5q-3 -5 -15 -22q-1 -2 -6 0q-11 4 -21.5 16t-1.5 23q4 6 8 14.5t7.5 18.5t5.5 15q1 2 -6.5 10t-13 19.5t1.5 33.5l1 1q14 31 50 25q8 -3 16 -11q4 -4 7 -9q0 -1 1.5 -3t2 -4z" />
    <glyph glyph-name="dagger" unicode="&#x2020;" horiz-adv-x="563" 
d="M459 549q36 2 48.5 -20.5t0 -45t-36.5 -22.5l-145 -3l-3 -506q0 -38 -33 -49q-29 -10 -42 10q-5 8 -5 18l1 524l-139 2q-46 0 -54 32q-6 25 15 38q7 5 17 5l157 6l3 162q0 26 22 36.5t43.5 0.5t21.5 -33l2 -159q99 3 127 4z" />
    <glyph glyph-name="bullet" unicode="&#x2022;" horiz-adv-x="173" 
d="M149 180q8 -36 -17.5 -61.5t-61.5 -16.5q-17 4 -29.5 16.5t-16.5 29.5q-9 36 16.5 61.5t61.5 17.5q11 -3 21 -9.5t16.5 -16.5t9.5 -21z" />
    <glyph glyph-name="guilsinglleft" unicode="&#x2039;" horiz-adv-x="260" 
d="M226 113q16 -18 8 -37q-5 -11 -16 -18.5t-20 -7.5q-7 0 -10 4l-159 170q-8 8 -9.5 25.5t5.5 26.5l150 166q11 13 23 13q14 0 29 -18q6 -8 4.5 -17.5t-7.5 -17.5l-112 -143q-8 -10 0 -19q87 -97 114 -127z" />
    <glyph glyph-name="guilsinglright" unicode="&#x203a;" horiz-adv-x="260" 
d="M235 275q7 -8 5.5 -25.5t-9.5 -24.5l-159 -171q-4 -4 -10 -4t-13 3.5t-13.5 9t-9.5 13.5q-9 19 8 37l113 127q9 9 1 19l-112 143q-7 8 -8 17.5t5 17.5q14 18 29 18q11 0 22 -13z" />
    <glyph glyph-name="Euro" unicode="&#x20ac;" horiz-adv-x="557" 
d="M469 107q15 3 29 0.5t22.5 -12t12 -20.5t-1.5 -23t-19 -20q-49 -29 -143 -19q-108 11 -170 75q-64 65 -71 177h-45q-29 0 -33 19q-2 16 13 21q4 1 8 1h57v5v6q2 30 6 64l-51 1q-29 0 -33 19q-2 15 13 20q4 1 8 1l70 1q28 146 118 209q29 20 63 33t80 18t93 -7
q24 -6 32.5 -22.5t3.5 -33.5q-11 -38 -53 -31q-72 11 -118 -16q-64 -38 -86 -148l170 2q21 0 27 -12t-2 -23.5t-22 -11.5l-180 1q-4 -37 -3 -74l180 1q21 0 27 -11t-2 -22.5t-22 -11.5l-181 1q5 -43 20 -76t36 -51t46.5 -28.5t51 -9t49.5 7.5z" />
    </font>
</defs>
</svg>
